<svg xmlns="http://www.w3.org/2000/svg" xmlns:xlink="http://www.w3.org/1999/xlink" width="500" zoomAndPan="magnify" viewBox="0 0 375 374.999991" height="500" preserveAspectRatio="xMidYMid meet" version="1.0"><path stroke-linecap="butt" transform="matrix(-0.731097, 0, 0, 0.731097, 374.99998, 124.820133)" fill-opacity="1" fill="#212121" fill-rule="evenodd" stroke-linejoin="miter" d="M 46.115409 55.225498 L 89.858553 55.225498 C 93.817716 57.709993 97.199835 60.301348 99.865992 63.432346 C 102.489406 66.419084 103.932016 68.689859 105.839467 73.439786 C 107.746918 78.157655 110.626795 83.265564 111.022177 91.691475 C 111.24124 100.117387 110.701597 112.753583 107.314135 123.338067 C 103.862557 133.740888 98.209662 143.855188 90.360795 153.969488 C 86.006249 154.872455 79.920572 155.305238 71.964844 155.267837 C 63.864856 155.160977 54.397059 154.728194 42.733289 153.686309 C 38.629865 151.885717 35.028683 149.075299 32.074004 145.260397 C 29.049865 141.338635 26.640172 136.871886 24.839581 130.754151 C 22.93213 124.593672 20.773558 117.50351 21.131539 108.79442 C 21.313201 99.866266 22.82527 87.299529 26.928694 78.301916 C 31.138979 69.298961 37.438376 61.706557 46.115409 55.225498 Z M 46.115409 55.225498 " stroke="#000000" stroke-width="0.036" stroke-opacity="1" stroke-miterlimit="10"/><path stroke-linecap="butt" transform="matrix(-0.731097, 0, 0, 0.731097, 374.99998, 124.820133)" fill-opacity="1" fill="#ffffff" fill-rule="evenodd" stroke-linejoin="miter" d="M 61.305559 111.059852 C 60.803317 107.533471 60.840718 104.113951 61.12924 100.261648 C 61.44982 96.371944 62.208526 91.835736 63.250411 88.309356 C 64.260238 84.782976 64.944142 82.223679 66.958453 79.274342 C 68.865904 76.175402 74.411939 69.26156 74.700461 70.057667 C 74.807321 70.773629 69.694069 79.739184 68.256802 83.628888 C 66.782134 87.374331 66.669931 88.811598 66.130288 92.808162 C 65.590645 96.735268 65.088403 103.248385 65.013601 107.351809 C 64.76248 111.455234 64.944142 114.586232 65.157862 117.177587 C 64.329697 114.623633 63.790054 113.186366 63.394672 113.004704 C 62.929831 112.716182 63.036691 115.991441 62.748169 115.74032 C 62.352787 115.344938 61.920004 113.832869 61.305559 111.059852 Z M 99.214146 73.942028 C 100.726215 74.914454 101.949762 77.938592 103.103851 80.241426 C 104.257939 82.512201 105.444085 84.563913 106.16539 87.481191 C 106.881352 90.430527 107.640058 96.585664 107.458396 97.670293 C 107.282077 98.674777 106.021129 95.832301 105.048703 93.636327 C 104.076277 91.402953 102.95959 87.33693 101.666583 84.419652 C 100.330833 81.539775 97.739478 78.98582 97.130376 76.357064 C 96.515931 73.728308 97.739478 72.969602 99.214146 73.942028 Z M 99.214146 73.942028 " stroke="#000000" stroke-width="0.036" stroke-opacity="1" stroke-miterlimit="10"/><path stroke-linecap="butt" transform="matrix(-0.731097, 0, 0, 0.731097, 374.99998, 124.820133)" fill-opacity="1" fill="#000000" fill-rule="evenodd" stroke-linejoin="miter" d="M 77.762 78.120254 C 75.058442 80.749011 72.429685 85.322619 70.992418 89.746623 C 69.480349 94.13857 68.833846 99.038101 68.903305 104.29027 C 68.833846 109.478324 69.480349 115.95404 70.992418 120.420788 C 72.467086 124.812735 74.882123 128.916159 78.08258 130.107648 C 81.250979 131.112132 86.57795 130.898412 90.034872 126.538524 C 93.454392 121.970258 97.130376 110.77133 98.423382 103.643767 C 99.57747 96.478804 99.000426 89.244381 97.130376 84.275391 C 95.110722 79.236941 89.997471 74.951855 86.797013 73.942028 C 83.377493 72.937544 80.497616 75.347237 77.762 78.120254 Z M 28.365961 137.053548 C 28.836145 139.28158 30.241355 141.659215 32.581589 144.325372 C 34.953881 146.916727 38.090222 149.759203 42.407366 152.858144 C 48.02286 152.639081 53.242971 152.745941 58.0677 153.034463 C 62.817628 153.322985 66.20509 154.402271 71.136679 154.621334 C 75.961409 154.728194 81.28838 154.514474 87.117593 153.83057 C 92.337705 149.401222 95.361843 145.9069 96.334269 143.352946 C 97.162434 140.649388 95.976288 138.202294 92.770488 138.346555 C 89.42577 138.565618 81.646361 144.213169 76.789574 144.613894 C 71.820583 144.827614 67.284376 143.133883 63.720595 139.933426 C 60.156814 136.583364 57.779178 125.85462 55.332084 125.101257 C 52.665927 124.342551 52.019424 137.44893 48.386184 135.252957 C 44.7102 132.837921 37.080395 115.200677 33.554015 111.204113 C 29.915432 107.277007 26.784433 108.217375 27.072955 111.524693 C 27.324076 114.767894 35.028683 125.817219 35.317205 130.246566 C 35.461466 134.494251 33.190691 136.765026 28.365961 137.053548 Z M 75.346964 66.670205 C 77.110154 65.195537 79.161866 63.865129 81.646361 62.962162 C 84.061397 61.920277 87.048134 59.975425 90.034872 60.878392 C 93.05901 61.706557 96.767052 66.493886 99.214146 68.433395 C 101.44752 70.346189 103.178653 72.937544 103.429774 72.46736 C 103.499233 71.858258 101.522322 67.247249 99.865992 65.051276 C 98.028 62.711041 94.897002 60.301348 92.95215 59.077801 C 90.969897 57.886312 89.350968 57.27721 88.09002 57.635191 C 86.401631 57.17035 84.563639 57.709993 82.442468 59.25412 C 80.315954 60.80359 77.906261 63.143824 75.346964 66.670205 Z M 75.346964 66.670205 " stroke="#000000" stroke-width="0.036" stroke-opacity="1" stroke-miterlimit="10"/><path fill="#808080" d="M 301.148438 202.832031 C 303.515625 202.199219 306.226562 201.355469 309.386719 200.410156 C 312.570312 199.382812 316.125 198.25 320.042969 196.910156 C 320.441406 196.410156 320.464844 196.066406 320.230469 195.671875 C 320.042969 195.25 319.230469 194.75 318.703125 194.671875 C 318.230469 194.566406 317.78125 194.75 317.359375 195.226562 L 299.464844 200.59375 C 300.015625 201.332031 300.570312 202.066406 301.148438 202.832031 Z M 299.648438 197.171875 C 301.699219 197.015625 303.753906 196.933594 305.910156 196.726562 C 308.097656 196.515625 310.332031 196.277344 312.621094 196.015625 C 312.648438 195.328125 312.570312 194.855469 312.175781 194.59375 C 311.886719 194.332031 311.28125 194.171875 310.570312 194.332031 L 297.042969 195.566406 C 297.910156 196.09375 298.777344 196.621094 299.648438 197.171875 Z M 307.78125 204.777344 C 309.28125 205.359375 310.832031 205.988281 312.332031 206.671875 C 313.9375 207.332031 315.386719 208.042969 316.992188 208.804688 C 317.542969 209.199219 317.753906 209.59375 317.625 209.886719 C 317.570312 210.175781 317.148438 210.410156 316.464844 210.597656 L 307.597656 206.675781 C 307.648438 206.042969 307.699219 205.410156 307.78125 204.777344 Z M 307.78125 204.777344 " fill-opacity="1" fill-rule="evenodd"/><path fill="#396ff9" d="M 371.839844 227.070312 C 372.839844 226.703125 373.527344 226.230469 374 225.648438 C 374.5 225.019531 374.605469 224.175781 374.710938 223.414062 C 374.949219 222.515625 375.183594 221.78125 375 220.808594 C 374.84375 219.808594 374.289062 218.621094 373.550781 217.859375 C 372.894531 217.070312 371.972656 216.703125 370.683594 216.148438 C 369.421875 215.492188 367.816406 214.804688 365.761719 214.097656 C 363.761719 213.28125 360.601562 212.4375 358.523438 211.671875 C 356.496094 210.9375 355.128906 210.226562 353.601562 209.542969 C 352.15625 208.726562 350.757812 207.882812 349.839844 207.015625 C 348.996094 206.066406 349.050781 205.988281 348.574219 204.253906 C 348.152344 202.4375 347.707031 199.910156 347.234375 196.460938 L 347.785156 208.359375 L 363.367188 218.121094 C 366.183594 221.097656 369 224.070312 371.839844 227.070312 Z M 371.839844 227.070312 " fill-opacity="1" fill-rule="evenodd"/><path fill="#1a5bff" d="M 346.628906 218.648438 C 346.628906 218.648438 346.390625 215.410156 346.257812 211.78125 C 346.128906 208.070312 345.628906 199.515625 345.8125 196.832031 C 346.023438 194.171875 346.996094 194.410156 347.417969 195.832031 C 347.839844 197.277344 347.734375 203.066406 348.3125 205.332031 C 348.917969 207.542969 349.207031 207.882812 350.917969 209.09375 C 352.65625 210.28125 355.917969 211.4375 358.601562 212.492188 C 361.3125 213.515625 364.5 214.226562 366.917969 215.253906 C 369.367188 216.304688 371.921875 217.097656 373.105469 218.648438 C 374.289062 220.226562 374.316406 223.097656 373.921875 224.570312 C 373.5 225.992188 373.210938 227.28125 370.683594 227.257812 C 368.15625 227.203125 362.917969 225.730469 358.867188 224.308594 C 354.839844 222.832031 346.628906 218.648438 346.628906 218.648438 Z M 346.628906 218.648438 " fill-opacity="1" fill-rule="evenodd"/><path fill="#212121" d="M 369.628906 220.730469 C 367.710938 220.28125 365.683594 219.570312 363.445312 218.492188 C 361.207031 217.386719 358.339844 215.308594 356.367188 214.28125 C 354.550781 213.148438 353.523438 212.59375 352.15625 212.121094 C 350.8125 211.675781 350.496094 211.4375 348.050781 211.410156 C 345.652344 211.277344 341.546875 211.277344 337.757812 211.410156 C 333.96875 211.464844 330.097656 211.78125 325.757812 211.9375 C 321.546875 212.070312 317.203125 212.09375 312.621094 212.121094 L 322.730469 223.570312 C 327.675781 223.648438 332.757812 223.625 338.390625 223.492188 C 344.046875 223.308594 351.839844 222.964844 356.179688 222.78125 C 360.550781 222.542969 362.15625 222.359375 364.15625 222.332031 C 366.15625 222.308594 367.367188 222.570312 368.183594 222.414062 C 369.078125 222.125 369.628906 221.597656 369.628906 220.730469 Z M 369.628906 220.730469 " fill-opacity="1" fill-rule="evenodd"/><path fill="#404040" d="M 322.097656 223.230469 C 325.835938 223.230469 329.886719 223.097656 334.363281 223.042969 C 338.96875 222.914062 344.3125 222.726562 348.863281 222.597656 C 353.46875 222.4375 358.023438 222.125 361.207031 222.070312 C 364.445312 221.910156 366.261719 221.886719 367.65625 221.886719 C 369.105469 221.859375 369.15625 221.886719 369.339844 222.070312 C 369.605469 222.148438 369.867188 222.648438 368.816406 222.859375 C 367.789062 223.019531 365.945312 222.9375 363.078125 223.121094 C 360.183594 223.28125 356.417969 223.492188 351.890625 223.753906 C 347.46875 223.886719 341.757812 224.070312 336.785156 224.203125 C 331.914062 224.308594 327.363281 224.359375 322.808594 224.464844 C 322.570312 224.070312 322.335938 223.648438 322.097656 223.230469 Z M 322.097656 223.230469 " fill-opacity="1" fill-rule="evenodd"/><path fill="#1a5bff" d="M 207.054688 176.75 L 212.871094 228.941406 C 227.109375 230.019531 239.007812 230.964844 249.273438 231.886719 C 259.511719 232.835938 266.300781 233.703125 273.800781 234.28125 C 281.382812 234.625 286.566406 234.78125 294.121094 234.652344 C 301.777344 234.46875 313.597656 234.074219 318.914062 233.753906 C 324.230469 233.4375 326.519531 233.203125 325.78125 232.941406 C 317.042969 223.859375 307.042969 215.726562 295.460938 208.253906 C 283.855469 200.75 269.855469 193.25 256.800781 188.300781 C 243.796875 183.300781 226.714844 180.351562 218.242188 178.457031 C 209.898438 176.539062 206.265625 175.933594 207.054688 176.75 Z M 207.054688 176.75 " fill-opacity="1" fill-rule="evenodd"/><path fill="#396ff9" d="M 193.132812 174.222656 C 198.84375 175.511719 204.316406 176.722656 209.871094 178.167969 C 215.53125 179.539062 220.136719 180.695312 226.320312 182.460938 C 232.53125 184.089844 240.191406 186.433594 246.5625 188.382812 C 253.007812 190.277344 258.195312 191.433594 264.457031 194.09375 C 270.75 196.777344 278.277344 200.726562 283.910156 204.304688 C 289.515625 207.753906 293.066406 210.859375 298.226562 215.042969 C 303.515625 219.203125 311.542969 226.359375 315.203125 229.308594 C 318.941406 232.175781 318.308594 231.675781 320.203125 232.363281 C 322.125 232.96875 325.386719 233.441406 326.546875 233.074219 C 327.78125 232.597656 327.78125 231.519531 327.257812 229.835938 C 326.703125 228.046875 325.625 225.886719 323.414062 222.859375 C 321.335938 219.753906 317.464844 215.042969 314.648438 211.675781 C 311.9375 208.304688 310.253906 205.964844 306.964844 202.910156 C 303.699219 199.753906 299.726562 196.460938 295.148438 193.144531 C 290.59375 189.777344 285.566406 186.382812 279.75 182.855469 C 281.722656 181.988281 282.671875 181.09375 282.699219 180.277344 C 282.671875 179.40625 281.617188 178.695312 279.828125 177.855469 C 278.117188 176.878906 275.355469 175.722656 272.667969 174.984375 C 270.117188 174.117188 267.722656 173.617188 264.351562 173.378906 C 260.957031 173.144531 257.246094 173.300781 252.71875 173.75 C 252.246094 172.960938 250.878906 172.484375 248.613281 172.222656 C 246.429688 171.960938 244.402344 171.984375 239.269531 172.300781 C 234.085938 172.5625 225.792969 173.378906 217.953125 173.75 C 210.214844 174.039062 202.082031 174.195312 193.132812 174.222656 Z M 193.132812 174.222656 " fill-opacity="1" fill-rule="evenodd"/><path fill="#808080" d="M 238.113281 188.066406 C 235.53125 190.488281 232.925781 192.882812 230.191406 195.355469 C 227.503906 197.832031 224.714844 200.171875 221.820312 202.675781 C 230.269531 203.121094 237.535156 203.542969 243.71875 203.9375 C 249.957031 204.28125 254.929688 204.59375 258.851562 204.882812 C 259.695312 205.304688 260.089844 205.699219 260.140625 206.175781 C 260.195312 206.621094 259.878906 207.148438 259.195312 207.648438 C 248.140625 206.992188 239.480469 206.359375 232.613281 205.964844 C 225.792969 205.542969 221.269531 205.148438 218.636719 204.992188 L 217.898438 201.726562 C 221.558594 198.9375 224.742188 196.464844 227.742188 194.09375 C 230.769531 191.699219 233.320312 189.621094 235.691406 187.644531 C 236.585938 187.144531 237.21875 186.9375 237.585938 187.015625 C 237.980469 187.039062 238.191406 187.460938 238.113281 188.066406 Z M 238.113281 188.066406 " fill-opacity="1" fill-rule="evenodd"/><path fill="#616161" d="M 151.546875 143.191406 L 112.9375 128.742188 L 112.726562 135.636719 L 29.265625 140.824219 L 7.710938 134.558594 L 8.132812 167.5625 C 8.761719 163.351562 9.949219 159.902344 11.792969 157.21875 C 13.738281 154.480469 15.238281 152.613281 19.132812 151.402344 C 23.003906 150.164062 28.214844 149.796875 34.875 150.085938 L 56.429688 157.007812 L 75.851562 156.140625 L 68.957031 186.328125 L 87.273438 185.90625 L 86.855469 157.007812 C 98.59375 156.035156 108.59375 155.351562 117.253906 154.851562 C 125.964844 154.351562 132.914062 154.0625 138.597656 153.980469 C 142.914062 150.402344 147.230469 146.796875 151.546875 143.191406 Z M 151.546875 143.191406 " fill-opacity="1" fill-rule="evenodd"/><path fill="#212121" d="M 112.300781 128.320312 L 111.855469 135.003906 L 28.1875 140.164062 L 35.296875 145.347656 L 114.882812 141.480469 L 133.859375 150.957031 L 146.359375 140.824219 Z M 81.246094 185.671875 L 81.878906 157.851562 L 85.5625 157.21875 L 86.640625 186.75 Z M 81.246094 185.671875 " fill-opacity="1" fill-rule="evenodd"/><path fill="#396ff9" d="M 33.136719 149.875 L 34.214844 142.769531 C 34.003906 142.242188 32.320312 141.453125 29.269531 140.402344 C 26.164062 139.296875 19.742188 137.320312 15.898438 136.296875 C 12.214844 135.214844 9.265625 134.425781 7.054688 133.925781 L 7.476562 168.222656 C 8.238281 166.011719 9 163.851562 10.082031 161.746094 C 11.105469 159.535156 12.054688 157.246094 13.738281 155.480469 C 15.527344 153.71875 17.449219 152.324219 20.632812 151.402344 C 23.898438 150.457031 28.03125 149.980469 33.136719 149.875 Z M 33.136719 149.875 " fill-opacity="1" fill-rule="evenodd"/><path fill="#212121" d="M 47.824219 147.347656 L 17.554688 147.347656 C 13.609375 148.21875 10.394531 149.980469 7.816406 152.746094 C 5.289062 155.480469 3.554688 159.007812 2.210938 163.640625 C 0.972656 168.195312 0.132812 173.90625 0 180.066406 C -0.15625 186.25 0.132812 194.066406 1.476562 200.066406 C 2.976562 205.910156 6.054688 211.386719 8.792969 215.070312 C 11.609375 218.570312 13.925781 220.28125 17.871094 221.625 C 21.976562 222.914062 26.847656 223.097656 32.480469 223.203125 C 38.058594 223.308594 44.269531 222.886719 51.21875 222.148438 C 55.929688 217.308594 59.457031 212.464844 61.902344 207.226562 C 64.378906 201.964844 65.351562 196.226562 65.929688 191.039062 C 66.589844 185.722656 66.140625 180.40625 65.613281 176.117188 C 65.140625 171.828125 64.113281 168.878906 62.851562 165.535156 C 61.640625 162.117188 60.773438 158.800781 58.21875 155.800781 C 55.664062 152.691406 52.296875 149.980469 47.824219 147.347656 Z M 47.824219 147.347656 " fill-opacity="1" fill-rule="evenodd"/><path fill="#ffffff" d="M 24.03125 214.199219 C 24.109375 214.4375 28.109375 211.121094 29.636719 209.015625 C 31.164062 206.964844 32.214844 204.910156 33.109375 201.9375 C 34.109375 198.804688 35.058594 194.59375 35.347656 190.933594 C 35.714844 187.328125 35.714844 183.800781 35.242188 180.25 C 34.769531 176.5625 33.820312 172.011719 32.6875 169.113281 C 31.582031 166.113281 29.609375 163.429688 29.003906 162.878906 C 28.582031 162.378906 29.976562 165.667969 29.84375 165.957031 C 29.742188 166.140625 27.898438 162.796875 28.160156 164.035156 C 28.554688 165.195312 30.554688 169.746094 31.425781 173.140625 C 32.347656 176.484375 32.871094 180.222656 33.109375 184.25 C 33.347656 188.277344 33.136719 193.328125 32.582031 197.171875 C 32.054688 200.910156 31.214844 203.882812 29.742188 206.804688 C 28.292969 209.621094 24.160156 213.78125 24.03125 214.199219 Z M 12.792969 156.21875 C 12.394531 157.085938 9.316406 160.089844 7.921875 162.878906 C 6.65625 165.5625 5.710938 168.167969 5.183594 172.511719 C 4.738281 176.878906 4.265625 182.984375 4.972656 188.59375 C 5.738281 194.121094 9.183594 202.410156 9.738281 205.332031 C 10.394531 208.121094 8.582031 204.4375 8.554688 205.332031 C 8.582031 206.121094 10.027344 210.621094 9.632812 210.203125 C 9.316406 209.621094 7.34375 205.726562 6.238281 202.464844 C 5.160156 199.121094 3.765625 195.277344 3.160156 190.832031 C 2.632812 186.304688 2.738281 180.277344 3.054688 175.90625 C 3.527344 171.433594 4.34375 167.722656 5.5 164.667969 C 6.660156 161.535156 8.683594 159.246094 9.84375 157.800781 C 11.105469 156.351562 13.132812 155.351562 12.792969 156.21875 Z M 12.792969 156.21875 " fill-opacity="1" fill-rule="evenodd"/><path fill="#000000" d="M 28.371094 175.878906 C 28.425781 175.167969 28.136719 173.195312 27.503906 171.773438 C 26.898438 170.273438 26.003906 168.617188 24.925781 167.300781 C 23.949219 165.929688 22.820312 164.71875 21.632812 164.0625 C 20.527344 163.324219 19.292969 163.324219 18.027344 163.351562 C 16.84375 163.351562 15.710938 163.300781 14.421875 164.011719 C 13.160156 164.640625 11.605469 165.617188 10.476562 167.222656 C 9.421875 168.722656 8.421875 170.484375 7.976562 173.328125 C 7.660156 176.144531 8 182.933594 8.183594 184.039062 C 8.316406 184.988281 8.527344 181.539062 8.921875 179.484375 C 9.449219 177.355469 9.578125 173.5625 11.054688 171.5625 C 12.605469 169.589844 15.503906 167.722656 17.816406 167.667969 C 20.210938 167.511719 23.265625 169.535156 24.84375 170.90625 C 26.449219 172.273438 26.714844 174.851562 27.265625 175.800781 C 27.898438 176.589844 28.371094 176.511719 28.371094 175.878906 Z M 12.976562 203.832031 C 13.765625 204.832031 14.738281 205.832031 15.898438 206.542969 C 17.082031 207.171875 18.582031 207.570312 20.003906 207.515625 C 21.609375 207.359375 23.265625 206.910156 24.765625 205.753906 C 26.265625 204.566406 27.792969 202.910156 28.742188 200.382812 C 29.765625 197.621094 30.6875 193.488281 30.792969 190.117188 C 31.003906 186.777344 29.792969 181.144531 29.6875 180.722656 C 29.636719 180.328125 30.558594 184.589844 30.214844 187.617188 C 29.925781 190.566406 29.136719 195.382812 27.847656 198.410156 C 26.53125 201.433594 24.636719 204.277344 22.660156 205.515625 C 20.820312 206.542969 18.160156 205.726562 16.710938 205.304688 C 15.398438 204.960938 15.292969 204.332031 14.371094 203.410156 C 13.449219 202.355469 11.816406 199.515625 11.210938 199.144531 C 10.738281 198.671875 11.003906 200.015625 11.292969 200.828125 C 11.660156 201.648438 12.1875 202.777344 12.976562 203.832031 Z M 12.976562 203.832031 " fill-opacity="1" fill-rule="evenodd"/><path fill="#808080" d="M 9.527344 195.988281 C 10.316406 198.144531 11.316406 200.148438 12.316406 201.699219 C 13.371094 203.277344 14.34375 204.621094 15.527344 205.515625 C 16.738281 206.359375 18.027344 206.78125 19.503906 206.78125 C 21.027344 206.726562 22.820312 206.203125 24.265625 205.09375 C 25.742188 203.886719 27.242188 201.832031 28.160156 199.648438 C 29.160156 197.332031 29.820312 194.4375 30.136719 191.671875 C 30.53125 188.828125 30.558594 186.015625 30.214844 183.222656 C 29.871094 180.304688 29.160156 177.511719 28.082031 174.855469 C 26.976562 172.171875 25.160156 169.273438 23.738281 167.589844 C 22.449219 165.90625 21.292969 165.355469 20.160156 164.800781 C 19.109375 164.117188 18.34375 163.851562 17.160156 164.011719 C 16.003906 164.167969 14.710938 164.644531 13.398438 165.828125 C 12.1875 166.960938 10.660156 168.484375 9.738281 170.828125 C 8.871094 173.117188 8.476562 176.511719 8.132812 179.488281 C 7.898438 182.460938 7.871094 185.515625 8.054688 188.355469 C 8.316406 191.171875 8.84375 193.621094 9.527344 195.988281 Z M 9.527344 195.988281 " fill-opacity="1" fill-rule="evenodd"/><path fill="#616161" d="M 21.6875 203.699219 C 20.449219 203.960938 19.265625 203.832031 18.027344 203.09375 C 16.871094 202.304688 15.527344 201.226562 14.503906 199.4375 C 13.527344 197.621094 12.660156 195.277344 12 192.410156 C 11.449219 189.433594 10.976562 185.460938 10.976562 182.117188 C 11.054688 178.644531 11.738281 174.644531 12.316406 172.355469 C 12.949219 170.089844 13.738281 169.511719 14.792969 168.695312 C 16.003906 167.800781 17.898438 167.222656 19.054688 167.378906 C 20.238281 167.484375 21.109375 168.167969 21.765625 169.433594 C 20.503906 170.25 19.632812 171.378906 18.765625 172.722656 C 17.976562 174.039062 17.449219 175.617188 17.082031 177.566406 C 16.710938 179.511719 16.710938 181.539062 16.792969 184.25 C 16.976562 186.828125 17.421875 191.144531 18.027344 193.355469 C 18.6875 195.515625 19.292969 196.015625 20.449219 197.382812 C 21.738281 198.753906 24.609375 201.070312 25.003906 201.277344 C 25.347656 201.226562 23.265625 199.042969 22.425781 197.960938 C 21.636719 196.882812 20.847656 196.621094 20.160156 195.25 C 19.503906 193.855469 18.660156 191.777344 18.238281 189.828125 C 17.871094 187.804688 17.898438 185.433594 17.820312 183.433594 C 17.792969 181.40625 17.636719 179.40625 17.949219 177.722656 C 18.34375 175.933594 18.925781 174.25 19.792969 172.960938 C 20.714844 171.589844 21.792969 170.484375 23.242188 169.644531 C 22.269531 168.222656 21.371094 167.246094 20.164062 166.722656 C 19.109375 166.117188 17.714844 165.957031 16.476562 166.351562 C 15.1875 166.746094 13.820312 167.722656 12.660156 169.273438 C 11.582031 170.855469 10.660156 172.878906 10.105469 175.460938 C 9.6875 177.984375 9.632812 181.222656 9.738281 184.171875 C 9.871094 187.039062 10.320312 190.09375 10.765625 192.621094 C 11.265625 194.988281 11.949219 197.066406 12.820312 198.859375 C 13.820312 200.621094 15.476562 202.253906 16.476562 203.253906 C 17.53125 204.175781 18.347656 204.570312 19.136719 204.648438 C 20.027344 204.699219 20.84375 204.382812 21.6875 203.699219 Z M 21.6875 203.699219 " fill-opacity="1" fill-rule="evenodd"/><path fill="#212121" d="M 23.976562 178.589844 L 23.449219 171.640625 C 22.949219 171.539062 22.582031 171.773438 22.054688 172.351562 C 21.554688 172.933594 21.1875 173.695312 20.660156 174.933594 L 23.609375 178.90625 C 23.714844 178.800781 23.84375 178.695312 23.976562 178.589844 Z M 22.949219 179.328125 L 20.160156 176.039062 C 19.820312 176.378906 19.609375 176.855469 19.421875 177.355469 C 19.292969 177.855469 19.265625 178.378906 19.34375 179.039062 L 22.003906 181.828125 C 21.976562 181.195312 22.082031 180.722656 22.214844 180.300781 C 22.398438 179.855469 22.609375 179.566406 22.949219 179.328125 Z M 21.84375 183.011719 L 19.214844 180.300781 C 18.949219 181.40625 18.898438 182.566406 18.84375 183.671875 C 18.898438 184.75 18.949219 185.882812 19.214844 186.960938 L 22.003906 184.988281 C 21.949219 184.328125 21.898438 183.671875 21.84375 183.011719 Z M 22.132812 185.722656 C 22.214844 186.222656 22.34375 186.671875 22.425781 187.171875 C 22.554688 187.59375 22.738281 188.039062 22.871094 188.511719 L 19.871094 191.59375 C 19.765625 190.988281 19.609375 190.433594 19.503906 189.828125 C 19.398438 189.171875 19.320312 188.566406 19.265625 187.90625 C 20.214844 187.199219 21.160156 186.460938 22.132812 185.722656 Z M 23.238281 189.59375 L 20.660156 192.328125 C 20.949219 193.226562 21.292969 193.910156 21.6875 194.671875 C 22.160156 195.355469 22.554688 195.988281 23.160156 196.566406 L 24.34375 190.566406 C 23.976562 190.25 23.609375 189.933594 23.238281 189.59375 Z M 25.136719 191.066406 C 25.054688 192.277344 24.898438 193.25 24.765625 194.304688 C 24.636719 195.277344 24.53125 196.121094 24.34375 196.933594 C 24.6875 197.304688 25.136719 197.621094 25.582031 197.882812 C 26.027344 198.066406 26.582031 198.226562 27.136719 198.253906 L 28.371094 194.144531 L 27.632812 191.226562 C 26.871094 191.515625 26.320312 191.699219 25.871094 191.671875 C 25.449219 191.644531 25.242188 191.410156 25.136719 191.066406 Z M 24.765625 178.589844 L 24.636719 172.300781 C 25.027344 172.273438 25.449219 172.40625 25.792969 172.589844 C 26.160156 172.773438 26.449219 173.089844 26.765625 173.539062 L 27.847656 176.167969 C 27.609375 176.75 27.425781 177.300781 27.1875 177.933594 C 26.976562 178.566406 26.820312 179.167969 26.609375 179.855469 C 26.242188 179.589844 25.898438 179.273438 25.582031 179.117188 C 25.320312 178.855469 24.976562 178.75 24.765625 178.589844 Z M 26.976562 179.933594 L 28.238281 177.878906 L 28.820312 181.089844 Z M 26.53125 182.566406 C 27.054688 183.222656 27.765625 184.195312 27.847656 185.277344 C 27.976562 186.277344 27.554688 188.09375 26.976562 188.59375 C 26.425781 188.960938 25.136719 188.433594 24.425781 187.617188 C 23.820312 186.59375 23.1875 184.40625 23.242188 183.300781 C 23.453125 182.144531 24.6875 181.539062 25.214844 181.378906 C 25.792969 181.25 26.136719 181.878906 26.53125 182.566406 Z M 26.53125 182.566406 " fill-opacity="1" fill-rule="evenodd"/><path fill="#808080" d="M 25.949219 183.800781 C 26.347656 184.066406 26.636719 185.355469 26.609375 185.933594 C 26.582031 186.460938 26.027344 187.066406 25.660156 186.828125 C 25.34375 186.433594 24.636719 184.695312 24.636719 184.171875 C 24.765625 183.644531 25.609375 183.484375 25.949219 183.800781 Z M 25.949219 183.800781 " fill-opacity="1" fill-rule="evenodd"/><path fill="#000000" d="M 60.480469 206.882812 C 60.0625 208.148438 59.113281 209.910156 57.535156 212.386719 C 55.980469 214.78125 53.824219 217.78125 51.058594 221.386719 L 28.53125 221.808594 C 31.425781 219.808594 33.714844 217.332031 35.402344 214.28125 C 37.136719 211.226562 38.03125 208.171875 38.796875 203.488281 C 39.613281 198.644531 39.796875 187.511719 40.375 185.933594 C 41.085938 184.40625 41.796875 193.621094 42.824219 194.277344 C 43.929688 194.804688 45.796875 188.039062 46.71875 189.617188 C 47.691406 191.25 47.480469 201.9375 48.429688 203.804688 C 49.453125 205.488281 51.613281 199.726562 52.667969 199.910156 C 53.746094 200.09375 53.535156 203.542969 54.773438 204.777344 C 56.085938 205.910156 57.957031 206.648438 60.480469 206.882812 Z M 34.664062 161.507812 C 33.476562 159.246094 31.820312 157.296875 29.792969 155.351562 C 27.6875 153.246094 24.765625 150.21875 22.160156 149.21875 C 19.632812 148.191406 17.132812 148.296875 14.765625 149.113281 C 12.5 149.824219 8.1875 153.296875 8.421875 153.5625 C 8.738281 153.667969 13.710938 150.402344 16.449219 150.375 C 19.238281 150.375 22.03125 151.269531 25.027344 153.773438 C 28.214844 156.191406 32.714844 161.246094 34.875 164.878906 C 37.109375 168.484375 37.53125 174.378906 37.953125 175.167969 C 38.375 175.75 38.164062 171.328125 37.53125 169.011719 C 37.03125 166.640625 35.980469 163.800781 34.664062 161.507812 Z M 34.664062 161.507812 " fill-opacity="1" fill-rule="evenodd"/><path fill="#396ff9" d="M 232.636719 174.667969 C 229.714844 172.90625 225.191406 170.328125 219.058594 166.929688 C 212.871094 163.429688 205.34375 159.324219 195.976562 154.191406 C 195.921875 151.664062 195.132812 149.796875 193.394531 148.585938 C 191.683594 147.347656 189.238281 146.769531 185.839844 146.847656 L 184.761719 144.269531 C 186.710938 144.640625 188.289062 144.640625 189.5 144.269531 C 190.816406 143.902344 191.945312 143.585938 192.078125 141.902344 C 192.238281 140.058594 190.816406 136.007812 190.15625 133.714844 C 189.632812 131.398438 189.183594 129.398438 188.421875 128.109375 C 187.65625 126.714844 188 125.953125 185.394531 125.503906 C 182.710938 124.953125 177.972656 124.371094 172.890625 125.082031 C 167.941406 125.6875 162.335938 127.03125 155.863281 129.398438 C 149.363281 131.714844 140.886719 135.191406 134.28125 139.113281 C 127.804688 142.953125 122.09375 148.453125 117.042969 152.480469 C 112.015625 156.378906 108.039062 159.484375 104.300781 162.824219 C 100.722656 166.167969 99.089844 169.433594 95.039062 172.300781 C 90.984375 175.011719 87.484375 177.589844 79.957031 179.433594 C 72.457031 181.222656 62.746094 182.40625 50.398438 183.089844 L 50.613281 215.226562 L 140.125 230.546875 C 144.308594 229.4375 149.417969 228.570312 155.863281 227.730469 C 162.3125 226.886719 169.785156 226.203125 178.5 225.570312 L 180.027344 175.75 C 194.238281 175.484375 205.425781 175.273438 214.292969 175.117188 C 223.109375 174.957031 229.191406 174.773438 232.636719 174.667969 Z M 74.773438 211.78125 L 74.117188 202.066406 L 71.957031 196.460938 L 92.015625 198.410156 L 92.460938 209.832031 Z M 74.773438 211.78125 " fill-opacity="1" fill-rule="evenodd"/><path fill="#212121" d="M 221.214844 173.617188 C 219.425781 172.878906 216.53125 171.351562 212.136719 168.640625 C 207.765625 165.957031 202.292969 162.324219 195.316406 157.640625 C 195.105469 155.351562 194.710938 153.585938 194.027344 152.246094 C 193.421875 150.902344 192.765625 150.351562 191.449219 149.664062 C 190.238281 148.875 188 147.613281 186.472656 147.71875 C 184.972656 147.746094 183.445312 149.113281 182.394531 150.085938 C 181.367188 150.980469 180.789062 152.0625 180.445312 153.324219 L 174.628906 157.429688 L 174.839844 167.140625 C 176.289062 167.824219 177.734375 168.722656 179.578125 169.933594 C 181.367188 171.089844 183.421875 172.5625 185.632812 174.25 Z M 189.5 135.875 C 188.972656 134.058594 188.367188 132.058594 187.789062 130.6875 C 187.316406 129.269531 187.210938 127.820312 186.472656 127.664062 C 185.761719 127.347656 184.632812 127.582031 183.683594 129.398438 C 182.816406 131.242188 181.789062 136.425781 181.527344 138.664062 C 181.421875 140.769531 181.921875 141.480469 182.816406 142.324219 C 183.84375 143.113281 185.789062 143.507812 187.132812 143.402344 C 188.554688 143.191406 190.34375 142.507812 190.789062 141.242188 C 191.238281 139.902344 190.027344 137.636719 189.5 135.875 Z M 189.5 135.875 " fill-opacity="1" fill-rule="evenodd"/><path fill="#1a5bff" d="M 180.234375 145.347656 C 177.394531 144.875 175.128906 144.664062 173.339844 144.71875 C 171.601562 144.71875 170.339844 145.035156 169.65625 145.558594 L 156.285156 153.773438 L 176.789062 153.113281 C 176.921875 151.246094 177.316406 149.664062 177.867188 148.375 C 178.523438 147.035156 179.183594 146.058594 180.234375 145.347656 Z M 170.101562 157.640625 L 138.386719 155.929688 C 145.519531 156.0625 151.679688 156.851562 157.363281 158.507812 C 163.023438 160.113281 167.8125 162.484375 172.023438 165.617188 C 171.390625 162.957031 170.761719 160.296875 170.101562 157.640625 Z M 156.074219 177.273438 C 148.335938 175.5625 141.074219 174.089844 133.859375 172.746094 C 126.726562 171.433594 119.9375 170.246094 113.382812 169.300781 C 114.648438 167.851562 115.832031 166.484375 117.042969 164.984375 C 118.28125 163.457031 119.359375 161.984375 120.492188 160.457031 L 109.699219 160.007812 C 107.910156 161.007812 106.4375 162.273438 104.960938 163.90625 C 103.59375 165.429688 103.355469 167.667969 101.304688 169.511719 C 99.25 171.328125 96.539062 173.089844 92.882812 174.90625 C 95.75 174.933594 99.171875 175.25 103.25 175.75 C 107.410156 176.222656 116.542969 178.800781 117.253906 177.90625 C 117.832031 176.960938 114.621094 174.484375 107.121094 170.378906 C 115.148438 171.5625 123.097656 172.617188 131.28125 173.828125 C 139.519531 175.011719 147.679688 176.0625 156.074219 177.273438 Z M 156.074219 177.273438 " fill-opacity="1" fill-rule="evenodd"/><path fill="#616161" d="M 91.59375 210.253906 L 90.511719 199.042969 L 72.617188 198.410156 L 66.140625 181.378906 C 70.617188 180.933594 74.222656 180.460938 77.355469 179.855469 C 80.539062 179.25 82.511719 178.433594 84.695312 177.695312 C 86.90625 176.933594 88.828125 175.957031 90.460938 175.0625 C 90.410156 177.378906 90.75 179.300781 91.59375 181.144531 C 92.515625 182.90625 93.671875 184.382812 95.460938 185.671875 L 95.699219 209.410156 C 94.328125 209.675781 92.960938 209.964844 91.59375 210.253906 Z M 91.59375 210.253906 " fill-opacity="1" fill-rule="evenodd"/><path fill="#808080" d="M 90.300781 187.828125 C 83.144531 186.804688 77.957031 185.910156 74.328125 185.25 C 70.773438 184.539062 68.984375 184.039062 68.957031 183.75 L 69.378906 181.800781 C 71.351562 181.671875 73.90625 181.671875 77.140625 181.800781 C 80.40625 181.882812 84.246094 182.09375 88.773438 182.433594 C 89.328125 182.988281 89.511719 183.328125 89.433594 183.75 C 89.40625 184.144531 89.011719 184.328125 88.351562 184.59375 L 81.011719 183.960938 L 89.851562 185.671875 C 89.984375 186.382812 90.144531 187.09375 90.300781 187.828125 Z M 89.855469 193.222656 C 87.378906 193.433594 84.617188 193.515625 81.671875 193.671875 C 78.695312 193.804688 75.644531 193.804688 72.195312 193.882812 L 72.617188 196.25 C 75.144531 196.644531 77.90625 196.933594 81.011719 197.117188 C 84.089844 197.25 87.511719 197.355469 91.171875 197.328125 C 92.40625 195.828125 92.90625 194.75 92.671875 194.089844 C 92.488281 193.382812 91.511719 193.09375 89.855469 193.222656 Z M 89.855469 193.222656 " fill-opacity="1" fill-rule="evenodd"/><path fill="#212121" d="M 171.8125 189.988281 L 141.625 190.855469 L 94.828125 186.328125 L 95.039062 209.199219 L 81.25 210.910156 L 74.984375 211.359375 L 74.773438 202.9375 L 67.21875 181.378906 C 65.851562 181.433594 63.878906 181.644531 61.195312 181.800781 C 58.5625 181.960938 55.21875 182.171875 51.269531 182.433594 L 65.484375 202.9375 L 65.0625 216.304688 C 71.617188 217.015625 80.933594 218.386719 93.328125 220.410156 C 105.804688 222.464844 120.914062 224.992188 139.257812 228.386719 C 140.28125 228.070312 143.519531 227.597656 149.179688 226.859375 C 154.890625 226.125 162.734375 225.226562 173.101562 224.070312 C 172.683594 212.726562 172.261719 201.355469 171.8125 189.988281 Z M 171.8125 189.988281 " fill-opacity="1" fill-rule="evenodd"/><path fill="#000000" d="M 250.746094 174.039062 L 250.746094 171.222656 C 248.585938 171.433594 247.113281 171.222656 246.21875 170.589844 C 245.375 169.878906 245.191406 168.089844 245.5625 167.351562 C 245.957031 166.511719 246.085938 166.351562 248.585938 166.0625 C 251.273438 165.746094 258.589844 165.089844 261.089844 165.617188 C 263.511719 166.117188 263.722656 168.140625 263.246094 169.0625 C 262.90625 169.851562 260.484375 170.433594 258.71875 170.800781 C 257.035156 171.167969 255.0625 171.273438 252.902344 171.222656 L 252.695312 174.039062 Z M 250.746094 174.039062 " fill-opacity="1" fill-rule="evenodd"/><path stroke-linecap="butt" transform="matrix(-0.731097, 0, 0, 0.731097, 374.99998, 124.820133)" fill-opacity="1" fill="#000000" fill-rule="evenodd" stroke-linejoin="miter" d="M 239.580109 67.893752 C 238.858804 65.4146 239.398447 63.790327 241.054777 62.892703 C 242.748508 62.064538 245.735245 62.422519 249.587549 62.604181 C 253.295591 62.56678 260.925395 62.390461 263.15877 63.181225 C 265.285284 63.971989 265.141023 65.446658 262.581725 67.610573 C 254.91452 67.680032 247.247314 67.786892 239.580109 67.893752 Z M 239.580109 67.893752 " stroke="#000000" stroke-width="0.036" stroke-opacity="1" stroke-miterlimit="10"/><path fill="#396ff9" d="M 141.597656 204.09375 C 141.757812 202.753906 141.492188 201.648438 140.808594 200.804688 C 140.152344 199.964844 139.125 199.460938 137.78125 199.304688 C 136.386719 199.144531 135.28125 199.410156 134.464844 200.066406 C 133.625 200.726562 133.125 201.699219 132.964844 203.066406 C 132.859375 204.015625 132.941406 204.832031 133.203125 205.488281 C 133.4375 206.175781 133.859375 206.699219 134.4375 207.121094 C 135.019531 207.542969 135.78125 207.804688 136.703125 207.910156 C 137.652344 208.015625 138.441406 207.9375 139.070312 207.699219 C 139.730469 207.488281 140.28125 207.070312 140.753906 206.464844 C 141.203125 205.859375 141.492188 205.066406 141.597656 204.09375 Z M 139.019531 203.804688 C 138.914062 204.648438 138.703125 205.25 138.363281 205.566406 C 137.992188 205.910156 137.546875 206.042969 137.019531 205.964844 C 136.441406 205.910156 136.046875 205.699219 135.78125 205.304688 C 135.519531 204.910156 135.441406 204.226562 135.546875 203.304688 C 135.625 202.515625 135.863281 201.960938 136.230469 201.648438 C 136.574219 201.332031 137.019531 201.199219 137.574219 201.25 C 138.074219 201.304688 138.46875 201.542969 138.757812 201.9375 C 139.019531 202.355469 139.125 202.960938 139.019531 203.804688 Z M 125.992188 203.09375 C 125.226562 203.226562 124.4375 203.355469 123.648438 203.515625 C 123.726562 204.144531 123.910156 204.699219 124.175781 205.171875 C 124.464844 205.621094 124.832031 206.015625 125.28125 206.277344 C 125.726562 206.542969 126.332031 206.726562 127.097656 206.804688 C 127.992188 206.910156 128.753906 206.882812 129.359375 206.648438 C 129.964844 206.464844 130.492188 206.070312 130.992188 205.4375 C 131.492188 204.832031 131.808594 204.015625 131.914062 202.960938 C 132.070312 201.59375 131.808594 200.488281 131.175781 199.671875 C 130.519531 198.859375 129.515625 198.355469 128.203125 198.226562 C 127.148438 198.09375 126.308594 198.199219 125.648438 198.566406 C 124.992188 198.910156 124.492188 199.515625 124.097656 200.382812 C 124.835938 200.621094 125.570312 200.855469 126.308594 201.121094 C 126.414062 200.882812 126.519531 200.699219 126.625 200.59375 C 126.78125 200.4375 126.964844 200.304688 127.203125 200.226562 C 127.414062 200.148438 127.648438 200.121094 127.914062 200.148438 C 128.492188 200.199219 128.914062 200.488281 129.175781 200.988281 C 129.359375 201.359375 129.414062 201.910156 129.335938 202.675781 C 129.230469 203.59375 129.019531 204.199219 128.703125 204.515625 C 128.386719 204.804688 127.96875 204.9375 127.464844 204.882812 C 126.964844 204.832031 126.625 204.648438 126.386719 204.332031 C 126.175781 204.042969 126.042969 203.621094 125.992188 203.09375 Z M 117.148438 204.148438 L 120.070312 204.464844 C 120.148438 204.9375 120.226562 205.410156 120.332031 205.882812 L 122.964844 206.199219 C 122.253906 203.304688 121.519531 200.410156 120.78125 197.515625 L 117.964844 197.199219 C 116.621094 199.832031 115.253906 202.488281 113.882812 205.148438 L 116.59375 205.464844 C 116.78125 205.042969 116.964844 204.59375 117.148438 204.148438 Z M 117.910156 202.410156 C 118.304688 201.460938 118.726562 200.488281 119.148438 199.515625 C 119.332031 200.542969 119.515625 201.570312 119.726562 202.621094 C 119.121094 202.566406 118.515625 202.488281 117.910156 202.410156 Z M 114.042969 196.75 C 113.199219 196.671875 112.359375 196.566406 111.488281 196.460938 C 111.253906 198.539062 111.015625 200.621094 110.753906 202.726562 C 109.4375 202.59375 108.09375 202.4375 106.75 202.277344 C 106.671875 202.9375 106.59375 203.621094 106.515625 204.304688 C 108.699219 204.542969 110.882812 204.804688 113.09375 205.066406 C 113.410156 202.304688 113.726562 199.542969 114.042969 196.75 Z M 105.519531 195.355469 L 104.964844 204.042969 L 94.832031 203.121094 L 94.832031 194.433594 Z M 105.519531 195.355469 " fill-opacity="1" fill-rule="evenodd"/><path stroke-linecap="butt" transform="matrix(-0.731097, 0, 0, 0.731097, 374.99998, 124.820133)" fill-opacity="1" fill="#396ff9" fill-rule="evenodd" stroke-linejoin="miter" d="M 314.932443 102.42022 L 294.372578 101.410393 L 294.880163 112.785641 L 316.15599 114.29771 Z M 314.932443 102.42022 " stroke="#000000" stroke-width="0.036" stroke-opacity="1" stroke-miterlimit="10"/><path fill="#396ff9" d="M 158.363281 210.015625 L 143.542969 211.09375 L 94.695312 205.671875 L 94.324219 208.199219 L 142.28125 214.359375 L 158.019531 213.621094 Z M 158.363281 210.015625 " fill-opacity="1" fill-rule="evenodd"/><path fill="#212121" d="M 204.816406 174.300781 L 174.550781 174.300781 C 170.601562 175.167969 167.390625 176.933594 164.8125 179.695312 C 162.285156 182.433594 160.550781 185.960938 159.207031 190.59375 C 157.96875 195.148438 157.128906 200.855469 156.996094 207.015625 C 156.835938 213.199219 157.128906 221.019531 158.46875 227.019531 C 159.96875 232.863281 163.078125 238.335938 165.761719 242.023438 C 168.523438 245.519531 170.945312 247.234375 174.867188 248.574219 C 178.972656 249.839844 183.84375 250.101562 189.476562 250.179688 C 195.054688 250.285156 201.265625 249.890625 208.214844 249.101562 C 212.925781 244.257812 216.453125 239.414062 218.898438 234.175781 C 221.375 228.914062 222.347656 223.175781 222.925781 217.992188 C 223.585938 212.675781 223.136719 207.359375 222.609375 203.066406 C 222.109375 198.777344 221.164062 195.832031 219.875 192.488281 C 218.6875 189.066406 217.742188 185.75 215.214844 182.75 C 212.660156 179.644531 209.292969 176.933594 204.816406 174.300781 Z M 204.816406 174.300781 " fill-opacity="1" fill-rule="evenodd"/><path fill="#ffffff" d="M 181.027344 241.179688 C 181.105469 241.414062 185.105469 238.097656 186.632812 235.992188 C 188.15625 233.886719 189.210938 231.863281 190.105469 228.886719 C 191.105469 225.753906 192.054688 221.542969 192.34375 217.886719 C 192.710938 214.28125 192.710938 210.753906 192.238281 207.199219 C 191.765625 203.515625 190.816406 198.960938 189.683594 196.066406 C 188.578125 193.066406 186.605469 190.382812 186 189.828125 C 185.578125 189.328125 186.972656 192.617188 186.84375 192.90625 C 186.710938 193.09375 184.921875 189.75 185.132812 190.988281 C 185.5 192.144531 187.578125 196.699219 188.421875 200.09375 C 189.34375 203.515625 189.867188 207.09375 190.105469 211.226562 C 190.34375 215.28125 190.132812 220.253906 189.578125 224.125 C 189.054688 227.859375 188.210938 230.835938 186.738281 233.757812 C 185.289062 236.601562 181.15625 240.730469 181.027344 241.179688 Z M 169.785156 183.171875 C 169.390625 184.039062 166.3125 187.039062 164.917969 189.828125 C 163.65625 192.515625 162.707031 195.121094 162.179688 199.460938 C 161.734375 203.832031 161.257812 209.9375 161.972656 215.542969 C 162.734375 221.070312 166.183594 229.359375 166.734375 232.28125 C 167.394531 235.070312 165.578125 231.386719 165.550781 232.28125 C 165.578125 233.070312 167.023438 237.574219 166.628906 237.152344 C 166.3125 236.574219 164.339844 232.675781 163.234375 229.414062 C 162.15625 226.070312 160.761719 222.230469 160.15625 217.78125 C 159.628906 213.253906 159.734375 207.226562 160.050781 202.855469 C 160.523438 198.355469 161.339844 194.726562 162.496094 191.644531 C 163.65625 188.539062 165.683594 186.171875 166.839844 184.75 C 168.101562 183.222656 170.128906 182.328125 169.785156 183.171875 Z M 169.785156 183.171875 " fill-opacity="1" fill-rule="evenodd"/><path fill="#000000" d="M 185.367188 202.832031 C 185.421875 202.042969 185.132812 200.199219 184.5 198.726562 C 183.894531 197.25 183 195.488281 181.921875 194.25 C 180.945312 192.960938 179.816406 191.617188 178.632812 191.039062 C 177.523438 190.355469 176.289062 190.25 175.023438 190.304688 C 173.839844 190.222656 172.707031 190.304688 171.417969 190.960938 C 170.15625 191.539062 168.601562 192.617188 167.472656 194.199219 C 166.417969 195.726562 165.417969 197.410156 164.96875 200.277344 C 164.65625 203.09375 164.996094 209.882812 165.179688 210.988281 C 165.3125 211.9375 165.523438 208.488281 165.917969 206.433594 C 166.445312 204.304688 166.574219 200.511719 168.050781 198.511719 C 169.601562 196.539062 172.496094 194.671875 174.8125 194.617188 C 177.210938 194.460938 180.261719 196.488281 181.839844 197.855469 C 183.445312 199.199219 183.710938 201.882812 184.261719 202.777344 C 184.894531 203.488281 185.367188 203.542969 185.367188 202.832031 Z M 169.972656 230.78125 C 170.761719 231.757812 171.734375 232.835938 172.894531 233.519531 C 174.078125 234.175781 175.578125 234.492188 177 234.46875 C 178.605469 234.308594 180.261719 233.863281 181.761719 232.703125 C 183.261719 231.519531 184.789062 229.859375 185.738281 227.335938 C 186.765625 224.570312 187.683594 220.4375 187.789062 217.070312 C 188 213.726562 186.789062 208.09375 186.683594 207.675781 C 186.632812 207.277344 187.554688 211.542969 187.210938 214.570312 C 186.921875 217.4375 186.132812 222.386719 184.84375 225.359375 C 183.527344 228.363281 181.628906 231.28125 179.65625 232.492188 C 177.816406 233.546875 175.15625 232.625 173.707031 232.257812 C 172.394531 231.914062 172.289062 231.28125 171.367188 230.363281 C 170.445312 229.308594 168.8125 226.464844 168.207031 226.097656 C 167.734375 225.625 167.996094 226.964844 168.285156 227.78125 C 168.65625 228.597656 169.183594 229.730469 169.972656 230.78125 Z M 169.972656 230.78125 " fill-opacity="1" fill-rule="evenodd"/><path fill="#808080" d="M 166.523438 222.9375 C 167.3125 225.203125 168.3125 227.019531 169.3125 228.675781 C 170.367188 230.257812 171.339844 231.597656 172.523438 232.492188 C 173.734375 233.335938 175.023438 233.785156 176.5 233.730469 C 178.027344 233.679688 179.816406 233.152344 181.261719 232.046875 C 182.738281 230.808594 184.238281 228.863281 185.160156 226.625 C 186.160156 224.253906 186.816406 221.386719 187.132812 218.621094 C 187.527344 215.78125 187.554688 212.964844 187.210938 210.175781 C 186.867188 207.253906 186.160156 204.460938 185.078125 201.804688 C 183.972656 199.121094 182.15625 196.226562 180.738281 194.539062 C 179.445312 192.804688 178.289062 192.355469 177.15625 191.777344 C 176.132812 191.066406 175.261719 190.828125 174.128906 190.960938 C 173.023438 191.121094 171.683594 191.59375 170.394531 192.804688 C 169.183594 193.9375 167.65625 195.460938 166.734375 197.777344 C 165.867188 200.066406 165.472656 203.464844 165.128906 206.4375 C 164.894531 209.410156 164.867188 212.464844 165.050781 215.308594 C 165.3125 218.121094 165.839844 220.570312 166.523438 222.9375 Z M 166.523438 222.9375 " fill-opacity="1" fill-rule="evenodd"/><path fill="#616161" d="M 178.683594 230.652344 C 177.445312 230.992188 176.261719 230.730469 175.023438 230.070312 C 173.867188 229.308594 172.523438 228.152344 171.5 226.386719 C 170.523438 224.570312 169.65625 222.230469 169 219.359375 C 168.445312 216.386719 167.972656 212.410156 167.972656 209.070312 C 168.050781 205.699219 168.734375 201.542969 169.3125 199.332031 C 169.945312 197.09375 170.734375 196.4375 171.789062 195.648438 C 173 194.75 174.894531 194.171875 176.050781 194.332031 C 177.234375 194.4375 178.105469 195.121094 178.761719 196.382812 C 177.5 197.277344 176.628906 198.253906 175.761719 199.699219 C 174.972656 201.015625 174.445312 202.59375 174.078125 204.542969 C 173.707031 206.386719 173.707031 208.570312 173.789062 211.203125 C 173.972656 213.78125 174.417969 218.097656 175.023438 220.308594 C 175.683594 222.464844 176.289062 222.964844 177.445312 224.335938 C 178.734375 225.703125 181.605469 228.019531 182 228.230469 C 182.34375 228.175781 180.261719 225.992188 179.421875 224.914062 C 178.632812 223.835938 177.839844 223.570312 177.15625 222.203125 C 176.5 220.808594 175.65625 218.730469 175.234375 216.78125 C 174.867188 214.726562 174.894531 212.4375 174.8125 210.410156 C 174.789062 208.359375 174.628906 206.410156 174.945312 204.675781 C 175.339844 202.882812 175.921875 201.199219 176.789062 199.910156 C 177.710938 198.515625 178.789062 197.515625 180.238281 196.621094 C 179.261719 195.199219 178.367188 194.25 177.15625 193.671875 C 176.105469 192.988281 174.710938 192.933594 173.472656 193.304688 C 172.183594 193.671875 170.8125 194.75 169.65625 196.25 C 168.578125 197.777344 167.65625 199.832031 167.101562 202.410156 C 166.683594 204.9375 166.628906 208.175781 166.734375 211.121094 C 166.867188 213.992188 167.3125 217.042969 167.761719 219.570312 C 168.261719 221.9375 168.945312 224.019531 169.8125 225.808594 C 170.8125 227.570312 172.472656 229.203125 173.472656 230.203125 C 174.523438 231.125 175.34375 231.519531 176.132812 231.597656 C 177.023438 231.652344 177.839844 231.335938 178.683594 230.652344 Z M 178.683594 230.652344 " fill-opacity="1" fill-rule="evenodd"/><path fill="#212121" d="M 180.972656 205.566406 L 180.445312 198.59375 C 179.945312 198.539062 179.578125 198.75 179.050781 199.332031 C 178.550781 199.882812 178.183594 200.699219 177.65625 201.882812 L 180.605469 205.859375 Z M 179.945312 206.277344 L 177.15625 202.988281 C 176.8125 203.332031 176.605469 203.804688 176.417969 204.304688 C 176.289062 204.804688 176.261719 205.332031 176.339844 205.988281 L 179 208.777344 C 178.972656 208.148438 179.078125 207.675781 179.210938 207.253906 C 179.394531 206.804688 179.605469 206.515625 179.945312 206.277344 Z M 178.839844 209.964844 L 176.207031 207.253906 C 175.945312 208.359375 175.890625 209.515625 175.839844 210.621094 C 175.890625 211.699219 175.945312 212.832031 176.207031 213.910156 L 179 211.9375 C 178.945312 211.28125 178.894531 210.621094 178.839844 209.964844 Z M 179.128906 212.675781 C 179.210938 213.148438 179.339844 213.675781 179.417969 214.148438 C 179.550781 214.570312 179.734375 215.042969 179.867188 215.464844 L 176.867188 218.542969 C 176.761719 217.9375 176.601562 217.386719 176.496094 216.78125 C 176.390625 216.175781 176.3125 215.542969 176.261719 214.886719 C 177.210938 214.148438 178.15625 213.410156 179.128906 212.675781 Z M 180.234375 216.570312 L 177.65625 219.28125 C 177.945312 220.175781 178.289062 220.859375 178.683594 221.625 C 179.15625 222.332031 179.550781 222.9375 180.15625 223.542969 L 181.34375 217.515625 Z M 182.128906 218.019531 C 182.050781 219.226562 181.894531 220.203125 181.761719 221.253906 C 181.628906 222.230469 181.527344 223.070312 181.339844 223.886719 C 181.683594 224.308594 182.128906 224.597656 182.578125 224.859375 C 183.023438 225.046875 183.578125 225.203125 184.128906 225.230469 L 185.367188 221.097656 L 184.628906 218.175781 C 183.867188 218.464844 183.316406 218.648438 182.867188 218.625 C 182.445312 218.597656 182.234375 218.359375 182.128906 218.019531 Z M 181.761719 205.566406 L 181.628906 199.25 C 182.023438 199.226562 182.445312 199.355469 182.789062 199.542969 C 183.15625 199.726562 183.445312 200.042969 183.761719 200.488281 L 184.839844 203.148438 C 184.605469 203.675781 184.421875 204.253906 184.183594 204.882812 C 183.972656 205.515625 183.816406 206.121094 183.605469 206.804688 C 183.234375 206.542969 182.894531 206.226562 182.578125 206.070312 C 182.316406 205.882812 181.972656 205.648438 181.761719 205.566406 Z M 183.972656 206.886719 L 185.207031 204.832031 L 185.8125 208.042969 Z M 183.527344 209.515625 C 184.054688 210.175781 184.761719 211.148438 184.84375 212.226562 C 184.972656 213.226562 184.554688 215.042969 183.972656 215.542969 C 183.367188 215.910156 182.105469 215.386719 181.394531 214.570312 C 180.789062 213.542969 180.132812 211.359375 180.238281 210.253906 C 180.445312 209.097656 181.683594 208.492188 182.210938 208.332031 C 182.789062 208.199219 183.132812 208.832031 183.527344 209.515625 Z M 183.527344 209.515625 " fill-opacity="1" fill-rule="evenodd"/><path fill="#808080" d="M 182.945312 210.78125 C 183.339844 211.070312 183.632812 212.28125 183.605469 212.886719 C 183.578125 213.332031 183.027344 214.070312 182.65625 213.78125 C 182.339844 213.386719 181.628906 211.648438 181.628906 211.121094 C 181.761719 210.570312 182.605469 210.488281 182.945312 210.78125 Z M 182.945312 210.78125 " fill-opacity="1" fill-rule="evenodd"/><path fill="#000000" d="M 217.476562 233.835938 C 217.058594 235.097656 216.109375 236.863281 214.53125 239.335938 C 212.976562 241.730469 210.820312 244.730469 208.054688 248.335938 L 185.527344 248.757812 C 188.421875 246.785156 190.710938 244.285156 192.394531 241.257812 C 194.132812 238.152344 195.027344 235.125 195.789062 230.441406 C 196.605469 225.597656 196.789062 214.464844 197.371094 212.882812 C 198 211.359375 198.84375 220.542969 199.792969 221.253906 C 200.871094 221.78125 202.816406 215.015625 203.710938 216.59375 C 204.6875 218.199219 204.476562 228.992188 205.421875 230.78125 C 206.449219 232.414062 208.609375 226.703125 209.660156 226.859375 C 210.738281 227.042969 210.53125 230.492188 211.765625 231.730469 C 213.082031 232.863281 214.953125 233.597656 217.476562 233.835938 Z M 191.660156 188.460938 C 190.472656 186.171875 188.816406 184.328125 186.789062 182.328125 C 184.683594 180.222656 181.761719 177.222656 179.15625 176.167969 C 176.578125 175.144531 174.207031 175.25 171.761719 176.0625 C 169.445312 176.773438 165.15625 180.25 165.390625 180.511719 C 165.679688 180.617188 170.734375 177.328125 173.445312 177.355469 C 176.234375 177.355469 179.027344 178.273438 182.027344 180.722656 C 185.210938 183.144531 189.710938 188.171875 191.867188 191.855469 C 194.105469 195.488281 194.527344 201.277344 194.949219 202.121094 C 195.394531 202.699219 195.105469 198.277344 194.5 195.960938 C 193.972656 193.59375 193.027344 190.75 191.660156 188.460938 Z M 191.660156 188.460938 " fill-opacity="1" fill-rule="evenodd"/><path fill="#212121" d="M 271.25 217.070312 C 263.035156 217.515625 254.429688 217.9375 245.007812 218.226562 C 235.585938 218.492188 225.875 218.703125 215.265625 218.859375 L 216.953125 224.148438 L 237.902344 229.648438 C 243.875 229.359375 251.507812 228.9375 261.089844 228.492188 C 270.722656 227.992188 281.882812 227.359375 295.171875 226.703125 C 292.671875 226.203125 289.988281 225.492188 287.015625 224.570312 C 284.09375 223.597656 280.171875 222.203125 277.484375 220.992188 C 274.878906 219.753906 272.800781 218.414062 271.25 217.070312 Z M 271.25 217.070312 " fill-opacity="1" fill-rule="evenodd"/><path fill="#404040" d="M 295.066406 226.492188 C 287.644531 226.9375 280.539062 227.253906 273.355469 227.648438 C 266.195312 227.992188 258.40625 228.308594 252.402344 228.597656 C 246.507812 228.835938 240.324219 229.046875 238.113281 229.335938 C 236.058594 229.570312 237.535156 230.308594 239.585938 230.414062 C 241.664062 230.441406 245.875 230.152344 250.296875 229.96875 C 254.773438 229.730469 259.957031 229.652344 266.167969 229.335938 C 272.589844 228.96875 283.039062 228.308594 287.855469 228.070312 C 292.621094 227.835938 294.882812 227.730469 294.648438 227.863281 C 294.777344 227.414062 294.910156 226.964844 295.066406 226.492188 Z M 295.066406 226.492188 " fill-opacity="1" fill-rule="evenodd"/><path fill="#396ff9" d="M 213.976562 206.070312 C 214.554688 205.988281 214.953125 206.304688 215.160156 206.910156 C 215.453125 207.515625 215.320312 207.988281 215.476562 209.753906 C 215.6875 211.515625 215.765625 215.175781 216.425781 217.070312 C 217.214844 218.859375 218.136719 219.308594 219.792969 220.335938 C 221.609375 221.332031 224.214844 221.914062 226.585938 222.78125 C 229.003906 223.519531 231.875 224.257812 233.769531 224.886719 C 235.636719 225.414062 236.980469 225.886719 237.902344 226.597656 C 238.929688 227.335938 239.535156 228.28125 239.71875 229.441406 L 214.925781 220.78125 C 214.609375 215.886719 214.292969 210.988281 213.976562 206.070312 Z M 213.976562 206.070312 " fill-opacity="1" fill-rule="evenodd"/><path fill="#1a5bff" d="M 214.082031 231.152344 C 217.109375 232.019531 220.214844 232.863281 223.714844 233.675781 C 227.296875 234.519531 232.191406 235.808594 234.847656 236.019531 C 237.480469 236.125 238.824219 235.625 239.585938 234.519531 C 240.507812 233.359375 240.796875 230.542969 240.035156 229.230469 C 239.296875 227.808594 238.585938 227.675781 235.058594 226.28125 C 231.558594 224.859375 222.503906 222.519531 219.164062 220.886719 C 215.976562 219.148438 216.242188 218.542969 215.476562 216.226562 C 214.820312 213.726562 215.003906 208.726562 214.609375 206.910156 C 214.242188 205.121094 213.476562 204.253906 213.136719 205.726562 C 212.898438 207.226562 212.660156 212.042969 212.714844 215.703125 C 212.792969 219.253906 212.871094 222.886719 213.242188 226.914062 C 213.503906 228.308594 213.792969 229.730469 214.082031 231.152344 Z M 214.082031 231.152344 " fill-opacity="1" fill-rule="evenodd"/></svg>