<svg xmlns="http://www.w3.org/2000/svg" xmlns:xlink="http://www.w3.org/1999/xlink" width="250" zoomAndPan="magnify" viewBox="0 0 187.5 42" height="56" preserveAspectRatio="xMidYMid meet" version="1.0"><defs><g/><clipPath id="id1"><path d="M 178 22 L 185.074219 22 L 185.074219 31 L 178 31 Z M 178 22 " clip-rule="nonzero"/></clipPath><clipPath id="id2"><path d="M 93.808594 10 L 110 10 L 110 30 L 93.808594 30 Z M 93.808594 10 " clip-rule="nonzero"/></clipPath></defs><path stroke-linecap="butt" transform="matrix(-0.179, 0, 0, 0.179, 185.563669, 5.248527)" fill-opacity="1" fill="rgb(12.939453%, 12.939453%, 12.939453%)" fill-rule="evenodd" stroke-linejoin="miter" d="M 46.117824 55.219572 L 89.850444 55.219572 C 93.822169 57.707355 97.204682 60.304253 99.867047 63.424894 C 102.485767 66.414599 103.926063 68.684156 105.846458 73.441497 C 107.745029 78.155192 110.625621 83.261696 111.018429 91.685245 C 111.236656 100.108793 110.691089 112.744116 107.308576 123.328109 C 103.860595 133.73752 98.208525 143.863237 90.352366 153.967131 C 86.009655 154.86186 79.921132 155.298313 71.955859 155.27649 C 63.85965 155.167377 54.388614 154.730924 42.735311 153.683436 C 38.63265 151.893977 35.03191 149.078854 32.08585 145.259887 C 29.0525 141.331808 26.630184 136.879984 24.840725 130.747815 C 22.942153 124.593824 20.78171 117.501457 21.130872 108.794214 C 21.305454 99.868744 22.83304 87.298889 26.935701 78.307951 C 31.147475 69.29519 37.432403 61.700903 46.117824 55.219572 Z M 46.117824 55.219572 " stroke="rgb(0%, 0%, 0%)" stroke-width="0.036" stroke-opacity="1" stroke-miterlimit="10"/><path stroke-linecap="butt" transform="matrix(-0.179, 0, 0, 0.179, 185.563669, 5.248527)" fill-opacity="1" fill="rgb(100%, 100%, 100%)" fill-rule="evenodd" stroke-linejoin="miter" d="M 61.306398 111.063771 C 60.804477 107.5285 60.848122 104.102341 61.131817 100.261552 C 61.459157 96.377118 62.201128 91.838003 63.248616 88.302732 C 64.252458 84.789283 64.950783 82.214208 66.958469 79.268148 C 68.878863 76.16933 74.42182 69.273368 74.705515 70.058984 C 74.814628 70.779132 69.686302 79.748247 68.246006 83.632681 C 66.783887 87.364357 66.674774 88.804653 66.129207 92.798201 C 65.583641 96.72628 65.081719 103.251257 65.016251 107.353918 C 64.754379 111.456579 64.950783 114.57722 65.16901 117.174117 C 64.339749 114.620866 63.794182 113.18057 63.401374 113.005988 C 62.921276 112.722294 63.030389 115.995694 62.746694 115.733822 C 62.353886 115.341014 61.917433 113.83525 61.306398 111.063771 Z M 99.212367 73.943418 C 100.718131 74.925438 101.962023 77.936966 103.096802 80.250168 C 104.253403 82.519725 105.45365 84.571056 106.173798 87.47347 C 106.893946 90.441353 107.635916 96.595344 107.461335 97.664655 C 107.286754 98.668498 106.021039 95.831551 105.039019 93.627462 C 104.078822 91.40155 102.965866 87.342534 101.656506 84.418297 C 100.325323 81.537706 97.750249 78.984454 97.117392 76.365734 C 96.506357 73.725191 97.750249 72.961398 99.212367 73.943418 Z M 99.212367 73.943418 " stroke="rgb(0%, 0%, 0%)" stroke-width="0.036" stroke-opacity="1" stroke-miterlimit="10"/><path stroke-linecap="butt" transform="matrix(-0.179, 0, 0, 0.179, 185.563669, 5.248527)" fill-opacity="1" fill="rgb(0%, 0%, 0%)" fill-rule="evenodd" stroke-linejoin="miter" d="M 77.760688 78.111547 C 75.054677 80.75209 72.435958 85.313027 70.995662 89.743028 C 69.489898 94.129383 68.835218 99.039483 68.900686 104.298745 C 68.835218 109.470717 69.489898 115.952048 70.995662 120.425695 C 72.45778 124.81205 74.880096 128.914711 78.088028 130.114958 C 81.252314 131.1188 86.577044 130.900574 90.046848 126.536041 C 93.451184 121.975104 97.117392 110.780077 98.426752 103.644065 C 99.583353 96.486231 98.994141 89.241106 97.117392 84.265539 C 95.109706 79.246326 90.003203 74.947261 86.795271 73.943418 C 83.369113 72.939576 80.488521 75.340069 77.760688 78.111547 Z M 28.375997 137.054565 C 28.834273 139.280477 30.230923 141.659148 32.587771 144.321513 C 34.966442 146.91841 38.087083 149.755356 42.407971 152.854175 C 48.016395 152.635948 53.253835 152.745061 58.076644 153.028756 C 62.812162 153.334273 66.194675 154.403584 71.126598 154.621811 C 75.949407 154.730924 81.29596 154.512697 87.122611 153.836195 C 92.338228 149.406194 95.371578 145.914567 96.331776 143.361315 C 97.161037 140.655305 95.982613 138.211166 92.774681 138.342102 C 89.413991 138.560329 81.645122 144.212399 76.778668 144.605207 C 71.824923 144.823434 67.285809 143.143089 63.728714 139.935157 C 60.149797 136.574467 57.771127 125.859538 55.326988 125.095745 C 52.664623 124.353774 52.009943 137.447373 48.387381 135.243284 C 44.721173 132.842791 37.08324 115.188255 33.547969 111.194707 C 29.925406 107.28845 26.782942 108.205002 27.066637 111.522047 C 27.328509 114.773624 35.03191 125.815893 35.315604 130.245894 C 35.468363 134.501313 33.198806 136.770871 28.375997 137.054565 Z M 75.338372 66.676471 C 77.106008 65.192529 79.157338 63.861347 81.645122 62.966618 C 84.067438 61.91913 87.057143 59.976913 90.046848 60.871642 C 93.058376 61.700903 96.768229 66.501889 99.212367 68.444107 C 101.438279 70.342678 103.184093 72.939576 103.424142 72.459477 C 103.48961 71.848442 101.52557 67.24386 99.867047 65.061593 C 98.033944 62.704746 94.89148 60.304253 92.949263 59.082183 C 90.9634 57.881937 89.348523 57.270902 88.082808 57.641887 C 86.402463 57.161789 84.569359 57.707355 82.430738 59.256765 C 80.31394 60.806174 77.913446 63.141199 75.338372 66.676471 Z M 75.338372 66.676471 " stroke="rgb(0%, 0%, 0%)" stroke-width="0.036" stroke-opacity="1" stroke-miterlimit="10"/><path fill="rgb(50.19989%, 50.19989%, 50.19989%)" d="M 167.480469 24.347656 C 168.0625 24.195312 168.726562 23.988281 169.5 23.753906 C 170.277344 23.503906 171.148438 23.226562 172.109375 22.898438 C 172.207031 22.777344 172.210938 22.691406 172.152344 22.597656 C 172.109375 22.492188 171.910156 22.371094 171.78125 22.351562 C 171.664062 22.324219 171.554688 22.371094 171.453125 22.484375 L 167.070312 23.800781 C 167.203125 23.980469 167.339844 24.160156 167.480469 24.347656 Z M 167.113281 22.964844 C 167.617188 22.925781 168.121094 22.90625 168.648438 22.855469 C 169.183594 22.800781 169.730469 22.742188 170.292969 22.679688 C 170.296875 22.511719 170.277344 22.394531 170.183594 22.332031 C 170.109375 22.265625 169.960938 22.230469 169.789062 22.265625 L 166.476562 22.570312 C 166.6875 22.699219 166.902344 22.828125 167.113281 22.964844 Z M 169.105469 24.824219 C 169.472656 24.96875 169.851562 25.121094 170.21875 25.289062 C 170.613281 25.449219 170.96875 25.625 171.359375 25.8125 C 171.496094 25.90625 171.546875 26.003906 171.515625 26.074219 C 171.503906 26.148438 171.398438 26.203125 171.230469 26.25 L 169.0625 25.289062 C 169.074219 25.132812 169.085938 24.980469 169.105469 24.824219 Z M 169.105469 24.824219 " fill-opacity="1" fill-rule="evenodd"/><g clip-path="url(#id1)"><path fill="rgb(22.349548%, 43.528748%, 97.648621%)" d="M 184.789062 30.285156 C 185.035156 30.191406 185.203125 30.078125 185.320312 29.933594 C 185.441406 29.78125 185.46875 29.574219 185.492188 29.386719 C 185.550781 29.167969 185.609375 28.988281 185.5625 28.75 C 185.523438 28.503906 185.390625 28.214844 185.210938 28.027344 C 185.046875 27.835938 184.824219 27.746094 184.507812 27.609375 C 184.199219 27.449219 183.804688 27.28125 183.300781 27.105469 C 182.8125 26.90625 182.039062 26.699219 181.53125 26.511719 C 181.035156 26.332031 180.699219 26.160156 180.324219 25.992188 C 179.96875 25.792969 179.628906 25.585938 179.402344 25.371094 C 179.195312 25.140625 179.210938 25.121094 179.09375 24.695312 C 178.992188 24.25 178.882812 23.632812 178.765625 22.789062 L 178.902344 25.703125 L 182.714844 28.09375 C 183.40625 28.820312 184.09375 29.546875 184.789062 30.285156 Z M 184.789062 30.285156 " fill-opacity="1" fill-rule="evenodd"/><path fill="rgb(10.198975%, 35.688782%, 100%)" d="M 178.617188 28.222656 C 178.617188 28.222656 178.558594 27.429688 178.527344 26.539062 C 178.496094 25.632812 178.371094 23.535156 178.417969 22.878906 C 178.46875 22.226562 178.707031 22.285156 178.808594 22.632812 C 178.914062 22.988281 178.886719 24.40625 179.03125 24.960938 C 179.175781 25.503906 179.25 25.585938 179.667969 25.882812 C 180.09375 26.171875 180.890625 26.457031 181.550781 26.714844 C 182.210938 26.964844 182.992188 27.140625 183.585938 27.390625 C 184.183594 27.648438 184.808594 27.839844 185.101562 28.222656 C 185.390625 28.609375 185.394531 29.308594 185.300781 29.671875 C 185.195312 30.019531 185.125 30.335938 184.507812 30.328125 C 183.886719 30.316406 182.605469 29.953125 181.613281 29.605469 C 180.628906 29.246094 178.617188 28.222656 178.617188 28.222656 Z M 178.617188 28.222656 " fill-opacity="1" fill-rule="evenodd"/></g><path fill="rgb(12.939453%, 12.939453%, 12.939453%)" d="M 184.25 28.730469 C 183.777344 28.621094 183.28125 28.445312 182.734375 28.183594 C 182.1875 27.910156 181.484375 27.402344 181 27.152344 C 180.558594 26.875 180.304688 26.738281 179.96875 26.625 C 179.640625 26.515625 179.5625 26.457031 178.964844 26.449219 C 178.378906 26.417969 177.375 26.417969 176.445312 26.449219 C 175.515625 26.460938 174.570312 26.539062 173.507812 26.578125 C 172.476562 26.609375 171.414062 26.617188 170.292969 26.625 L 172.765625 29.425781 C 173.976562 29.445312 175.222656 29.4375 176.601562 29.40625 C 177.984375 29.363281 179.894531 29.277344 180.957031 29.234375 C 182.027344 29.175781 182.417969 29.128906 182.910156 29.125 C 183.398438 29.117188 183.695312 29.179688 183.894531 29.144531 C 184.113281 29.070312 184.25 28.941406 184.25 28.730469 Z M 184.25 28.730469 " fill-opacity="1" fill-rule="evenodd"/><path fill="rgb(25.099182%, 25.099182%, 25.099182%)" d="M 172.609375 29.34375 C 173.527344 29.34375 174.519531 29.308594 175.613281 29.296875 C 176.742188 29.265625 178.050781 29.21875 179.164062 29.1875 C 180.292969 29.148438 181.40625 29.070312 182.1875 29.058594 C 182.980469 29.019531 183.425781 29.015625 183.765625 29.015625 C 184.121094 29.007812 184.132812 29.015625 184.179688 29.058594 C 184.242188 29.078125 184.308594 29.199219 184.050781 29.253906 C 183.796875 29.292969 183.347656 29.273438 182.644531 29.316406 C 181.9375 29.355469 181.015625 29.40625 179.90625 29.472656 C 178.824219 29.503906 177.425781 29.546875 176.207031 29.582031 C 175.015625 29.605469 173.898438 29.621094 172.785156 29.644531 C 172.726562 29.546875 172.667969 29.445312 172.609375 29.34375 Z M 172.609375 29.34375 " fill-opacity="1" fill-rule="evenodd"/><path fill="rgb(10.198975%, 35.688782%, 100%)" d="M 144.445312 17.960938 L 145.867188 30.742188 C 149.355469 31.003906 152.269531 31.238281 154.78125 31.460938 C 157.289062 31.695312 158.949219 31.90625 160.785156 32.050781 C 162.640625 32.132812 163.910156 32.171875 165.761719 32.140625 C 167.636719 32.09375 170.53125 31.996094 171.832031 31.921875 C 173.132812 31.84375 173.695312 31.785156 173.511719 31.71875 C 171.375 29.496094 168.925781 27.507812 166.089844 25.675781 C 163.25 23.839844 159.820312 22.003906 156.625 20.792969 C 153.441406 19.566406 149.257812 18.84375 147.183594 18.382812 C 145.140625 17.910156 144.25 17.761719 144.445312 17.960938 Z M 144.445312 17.960938 " fill-opacity="1" fill-rule="evenodd"/><path fill="rgb(22.349548%, 43.528748%, 97.648621%)" d="M 141.035156 17.34375 C 142.433594 17.660156 143.773438 17.957031 145.132812 18.308594 C 146.519531 18.644531 147.648438 18.929688 149.160156 19.359375 C 150.683594 19.761719 152.558594 20.332031 154.117188 20.8125 C 155.695312 21.273438 156.964844 21.558594 158.5 22.210938 C 160.039062 22.867188 161.882812 23.832031 163.261719 24.710938 C 164.632812 25.554688 165.503906 26.3125 166.765625 27.339844 C 168.0625 28.355469 170.027344 30.109375 170.921875 30.832031 C 171.839844 31.535156 171.683594 31.410156 172.148438 31.578125 C 172.617188 31.726562 173.417969 31.84375 173.699219 31.753906 C 174.003906 31.636719 174.003906 31.371094 173.875 30.960938 C 173.738281 30.523438 173.476562 29.992188 172.933594 29.253906 C 172.425781 28.492188 171.476562 27.339844 170.789062 26.515625 C 170.125 25.6875 169.710938 25.117188 168.90625 24.367188 C 168.105469 23.59375 167.132812 22.789062 166.011719 21.976562 C 164.898438 21.152344 163.667969 20.320312 162.242188 19.457031 C 162.726562 19.246094 162.957031 19.027344 162.964844 18.828125 C 162.957031 18.613281 162.699219 18.441406 162.261719 18.234375 C 161.84375 17.996094 161.167969 17.710938 160.507812 17.53125 C 159.882812 17.316406 159.296875 17.195312 158.472656 17.136719 C 157.640625 17.078125 156.734375 17.117188 155.625 17.226562 C 155.507812 17.035156 155.171875 16.917969 154.621094 16.855469 C 154.085938 16.789062 153.589844 16.796875 152.332031 16.875 C 151.0625 16.9375 149.03125 17.136719 147.113281 17.226562 C 145.21875 17.296875 143.226562 17.335938 141.035156 17.34375 Z M 141.035156 17.34375 " fill-opacity="1" fill-rule="evenodd"/><path fill="rgb(50.19989%, 50.19989%, 50.19989%)" d="M 152.046875 20.734375 C 151.417969 21.328125 150.777344 21.914062 150.109375 22.519531 C 149.453125 23.125 148.769531 23.699219 148.058594 24.308594 C 150.128906 24.417969 151.90625 24.523438 153.421875 24.621094 C 154.949219 24.703125 156.167969 24.78125 157.125 24.851562 C 157.332031 24.953125 157.429688 25.050781 157.441406 25.167969 C 157.453125 25.277344 157.378906 25.40625 157.210938 25.527344 C 154.503906 25.367188 152.382812 25.210938 150.703125 25.117188 C 149.03125 25.011719 147.925781 24.914062 147.28125 24.878906 L 147.097656 24.078125 C 147.996094 23.394531 148.773438 22.789062 149.507812 22.210938 C 150.25 21.625 150.875 21.113281 151.457031 20.628906 C 151.675781 20.507812 151.828125 20.457031 151.917969 20.476562 C 152.015625 20.480469 152.066406 20.585938 152.046875 20.734375 Z M 152.046875 20.734375 " fill-opacity="1" fill-rule="evenodd"/><path fill="rgb(38.038635%, 38.038635%, 38.038635%)" d="M 130.855469 9.746094 L 121.402344 6.207031 L 121.347656 7.898438 L 100.914062 9.167969 L 95.636719 7.632812 L 95.742188 15.714844 C 95.894531 14.683594 96.183594 13.839844 96.636719 13.179688 C 97.113281 12.511719 97.480469 12.054688 98.433594 11.757812 C 99.382812 11.453125 100.65625 11.363281 102.289062 11.433594 L 107.566406 13.128906 L 112.320312 12.917969 L 110.632812 20.308594 L 115.117188 20.203125 L 115.015625 13.128906 C 117.890625 12.890625 120.335938 12.722656 122.457031 12.601562 C 124.589844 12.480469 126.292969 12.40625 127.683594 12.386719 C 128.742188 11.511719 129.796875 10.628906 130.855469 9.746094 Z M 130.855469 9.746094 " fill-opacity="1" fill-rule="evenodd"/><path fill="rgb(12.939453%, 12.939453%, 12.939453%)" d="M 121.246094 6.105469 L 121.136719 7.742188 L 100.652344 9.003906 L 102.390625 10.273438 L 121.878906 9.328125 L 126.523438 11.648438 L 129.585938 9.167969 Z M 113.640625 20.148438 L 113.796875 13.335938 L 114.699219 13.179688 L 114.960938 20.410156 Z M 113.640625 20.148438 " fill-opacity="1" fill-rule="evenodd"/><path fill="rgb(22.349548%, 43.528748%, 97.648621%)" d="M 101.863281 11.382812 L 102.128906 9.644531 C 102.074219 9.515625 101.664062 9.320312 100.914062 9.0625 C 100.15625 8.792969 98.582031 8.308594 97.640625 8.058594 C 96.738281 7.792969 96.019531 7.601562 95.476562 7.476562 L 95.578125 15.875 C 95.765625 15.332031 95.953125 14.804688 96.21875 14.289062 C 96.46875 13.75 96.699219 13.1875 97.113281 12.753906 C 97.550781 12.324219 98.023438 11.984375 98.800781 11.757812 C 99.601562 11.523438 100.613281 11.410156 101.863281 11.382812 Z M 101.863281 11.382812 " fill-opacity="1" fill-rule="evenodd"/><g clip-path="url(#id2)"><path fill="rgb(12.939453%, 12.939453%, 12.939453%)" d="M 105.457031 10.765625 L 98.046875 10.765625 C 97.082031 10.976562 96.296875 11.410156 95.664062 12.085938 C 95.046875 12.753906 94.621094 13.621094 94.292969 14.753906 C 93.988281 15.867188 93.78125 17.265625 93.75 18.773438 C 93.710938 20.289062 93.78125 22.203125 94.109375 23.671875 C 94.476562 25.101562 95.230469 26.441406 95.902344 27.34375 C 96.59375 28.203125 97.160156 28.621094 98.125 28.949219 C 99.128906 29.265625 100.324219 29.3125 101.703125 29.335938 C 103.066406 29.363281 104.589844 29.257812 106.289062 29.078125 C 107.445312 27.894531 108.308594 26.707031 108.90625 25.425781 C 109.511719 24.136719 109.75 22.730469 109.890625 21.460938 C 110.054688 20.160156 109.945312 18.859375 109.816406 17.808594 C 109.699219 16.757812 109.449219 16.035156 109.136719 15.21875 C 108.839844 14.378906 108.628906 13.566406 108.003906 12.832031 C 107.378906 12.074219 106.554688 11.410156 105.457031 10.765625 Z M 105.457031 10.765625 " fill-opacity="1" fill-rule="evenodd"/></g><path fill="rgb(100%, 100%, 100%)" d="M 99.632812 27.132812 C 99.652344 27.191406 100.632812 26.378906 101.003906 25.863281 C 101.378906 25.359375 101.636719 24.859375 101.855469 24.128906 C 102.101562 23.363281 102.332031 22.332031 102.402344 21.4375 C 102.496094 20.554688 102.496094 19.691406 102.378906 18.820312 C 102.261719 17.917969 102.03125 16.800781 101.753906 16.09375 C 101.484375 15.359375 101 14.703125 100.851562 14.566406 C 100.746094 14.445312 101.089844 15.25 101.058594 15.320312 C 101.03125 15.367188 100.582031 14.546875 100.644531 14.851562 C 100.742188 15.132812 101.230469 16.25 101.445312 17.078125 C 101.667969 17.898438 101.796875 18.8125 101.855469 19.800781 C 101.914062 20.785156 101.863281 22.023438 101.726562 22.960938 C 101.597656 23.878906 101.390625 24.605469 101.03125 25.320312 C 100.675781 26.011719 99.664062 27.027344 99.632812 27.132812 Z M 96.882812 12.9375 C 96.785156 13.148438 96.03125 13.882812 95.6875 14.566406 C 95.378906 15.222656 95.148438 15.863281 95.019531 16.925781 C 94.910156 17.996094 94.792969 19.488281 94.96875 20.863281 C 95.15625 22.214844 96 24.246094 96.132812 24.960938 C 96.296875 25.644531 95.851562 24.742188 95.84375 24.960938 C 95.851562 25.152344 96.203125 26.257812 96.109375 26.152344 C 96.03125 26.011719 95.546875 25.058594 95.277344 24.257812 C 95.011719 23.441406 94.671875 22.5 94.523438 21.410156 C 94.394531 20.300781 94.421875 18.828125 94.496094 17.757812 C 94.613281 16.660156 94.8125 15.753906 95.097656 15.003906 C 95.378906 14.238281 95.875 13.675781 96.160156 13.324219 C 96.46875 12.96875 96.964844 12.722656 96.882812 12.9375 Z M 96.882812 12.9375 " fill-opacity="1" fill-rule="evenodd"/><path fill="rgb(0%, 0%, 0%)" d="M 100.695312 17.75 C 100.710938 17.574219 100.636719 17.09375 100.484375 16.746094 C 100.335938 16.378906 100.117188 15.972656 99.851562 15.648438 C 99.613281 15.3125 99.335938 15.019531 99.046875 14.855469 C 98.777344 14.675781 98.472656 14.675781 98.164062 14.683594 C 97.875 14.683594 97.597656 14.667969 97.28125 14.84375 C 96.972656 15 96.589844 15.238281 96.3125 15.628906 C 96.058594 15.996094 95.8125 16.429688 95.703125 17.125 C 95.625 17.8125 95.707031 19.476562 95.753906 19.746094 C 95.785156 19.980469 95.835938 19.136719 95.933594 18.632812 C 96.0625 18.109375 96.09375 17.183594 96.457031 16.691406 C 96.835938 16.210938 97.546875 15.753906 98.113281 15.738281 C 98.699219 15.699219 99.445312 16.195312 99.832031 16.53125 C 100.226562 16.867188 100.289062 17.5 100.425781 17.730469 C 100.582031 17.925781 100.695312 17.90625 100.695312 17.75 Z M 96.925781 24.59375 C 97.121094 24.839844 97.359375 25.082031 97.640625 25.257812 C 97.933594 25.410156 98.300781 25.507812 98.648438 25.496094 C 99.039062 25.457031 99.445312 25.347656 99.8125 25.0625 C 100.179688 24.773438 100.554688 24.367188 100.785156 23.75 C 101.039062 23.074219 101.261719 22.0625 101.289062 21.234375 C 101.339844 20.417969 101.042969 19.039062 101.019531 18.933594 C 101.003906 18.839844 101.230469 19.882812 101.148438 20.625 C 101.078125 21.34375 100.882812 22.523438 100.566406 23.265625 C 100.246094 24.007812 99.78125 24.703125 99.296875 25.003906 C 98.847656 25.257812 98.195312 25.058594 97.839844 24.953125 C 97.519531 24.871094 97.492188 24.714844 97.269531 24.488281 C 97.042969 24.230469 96.644531 23.535156 96.496094 23.445312 C 96.378906 23.332031 96.445312 23.660156 96.515625 23.859375 C 96.605469 24.058594 96.734375 24.335938 96.925781 24.59375 Z M 96.925781 24.59375 " fill-opacity="1" fill-rule="evenodd"/><path fill="rgb(50.19989%, 50.19989%, 50.19989%)" d="M 96.082031 22.671875 C 96.277344 23.203125 96.519531 23.691406 96.765625 24.070312 C 97.023438 24.457031 97.261719 24.785156 97.550781 25.007812 C 97.847656 25.210938 98.164062 25.316406 98.523438 25.316406 C 98.898438 25.300781 99.335938 25.171875 99.691406 24.902344 C 100.050781 24.605469 100.417969 24.105469 100.644531 23.570312 C 100.890625 23 101.050781 22.292969 101.128906 21.617188 C 101.226562 20.921875 101.230469 20.230469 101.148438 19.546875 C 101.0625 18.832031 100.890625 18.148438 100.625 17.5 C 100.355469 16.839844 99.910156 16.132812 99.5625 15.71875 C 99.246094 15.308594 98.964844 15.171875 98.6875 15.039062 C 98.429688 14.871094 98.242188 14.804688 97.953125 14.84375 C 97.667969 14.882812 97.351562 15 97.03125 15.289062 C 96.734375 15.566406 96.359375 15.941406 96.132812 16.511719 C 95.921875 17.074219 95.824219 17.90625 95.742188 18.632812 C 95.683594 19.359375 95.675781 20.109375 95.722656 20.804688 C 95.785156 21.492188 95.914062 22.09375 96.082031 22.671875 Z M 96.082031 22.671875 " fill-opacity="1" fill-rule="evenodd"/><path fill="rgb(38.038635%, 38.038635%, 38.038635%)" d="M 99.058594 24.5625 C 98.757812 24.625 98.464844 24.59375 98.164062 24.414062 C 97.878906 24.21875 97.550781 23.957031 97.300781 23.515625 C 97.0625 23.074219 96.847656 22.5 96.6875 21.796875 C 96.554688 21.070312 96.4375 20.09375 96.4375 19.277344 C 96.457031 18.425781 96.625 17.445312 96.765625 16.886719 C 96.921875 16.332031 97.113281 16.191406 97.371094 15.992188 C 97.667969 15.773438 98.132812 15.628906 98.414062 15.667969 C 98.707031 15.695312 98.917969 15.863281 99.078125 16.171875 C 98.769531 16.371094 98.558594 16.648438 98.34375 16.976562 C 98.152344 17.300781 98.023438 17.6875 97.933594 18.164062 C 97.839844 18.640625 97.839844 19.136719 97.859375 19.800781 C 97.90625 20.429688 98.015625 21.488281 98.164062 22.027344 C 98.324219 22.558594 98.472656 22.679688 98.757812 23.015625 C 99.074219 23.351562 99.773438 23.917969 99.871094 23.96875 C 99.957031 23.957031 99.445312 23.421875 99.238281 23.15625 C 99.046875 22.890625 98.855469 22.828125 98.6875 22.492188 C 98.523438 22.152344 98.320312 21.640625 98.214844 21.164062 C 98.125 20.667969 98.132812 20.089844 98.113281 19.597656 C 98.105469 19.101562 98.066406 18.613281 98.144531 18.199219 C 98.242188 17.761719 98.382812 17.351562 98.597656 17.035156 C 98.820312 16.699219 99.085938 16.429688 99.441406 16.222656 C 99.203125 15.875 98.980469 15.636719 98.6875 15.507812 C 98.429688 15.359375 98.085938 15.320312 97.785156 15.417969 C 97.46875 15.515625 97.132812 15.753906 96.847656 16.132812 C 96.585938 16.519531 96.359375 17.015625 96.222656 17.648438 C 96.121094 18.265625 96.109375 19.058594 96.132812 19.78125 C 96.167969 20.480469 96.277344 21.230469 96.386719 21.847656 C 96.507812 22.429688 96.675781 22.9375 96.886719 23.375 C 97.132812 23.808594 97.539062 24.207031 97.785156 24.453125 C 98.042969 24.675781 98.242188 24.773438 98.433594 24.792969 C 98.652344 24.804688 98.851562 24.730469 99.058594 24.5625 Z M 99.058594 24.5625 " fill-opacity="1" fill-rule="evenodd"/><path fill="rgb(12.939453%, 12.939453%, 12.939453%)" d="M 99.621094 18.414062 L 99.492188 16.710938 C 99.367188 16.6875 99.277344 16.746094 99.148438 16.886719 C 99.027344 17.027344 98.9375 17.214844 98.808594 17.519531 L 99.53125 18.492188 C 99.554688 18.464844 99.589844 18.4375 99.621094 18.414062 Z M 99.367188 18.59375 L 98.6875 17.789062 C 98.601562 17.871094 98.550781 17.988281 98.503906 18.109375 C 98.472656 18.234375 98.464844 18.363281 98.484375 18.523438 L 99.136719 19.207031 C 99.128906 19.050781 99.15625 18.9375 99.1875 18.832031 C 99.234375 18.722656 99.285156 18.652344 99.367188 18.59375 Z M 99.097656 19.496094 L 98.453125 18.832031 C 98.390625 19.101562 98.375 19.386719 98.363281 19.65625 C 98.375 19.921875 98.390625 20.199219 98.453125 20.460938 L 99.136719 19.980469 C 99.125 19.820312 99.109375 19.65625 99.097656 19.496094 Z M 99.167969 20.160156 C 99.1875 20.28125 99.21875 20.390625 99.238281 20.515625 C 99.273438 20.617188 99.316406 20.726562 99.347656 20.84375 L 98.613281 21.597656 C 98.589844 21.449219 98.550781 21.3125 98.523438 21.164062 C 98.5 21.003906 98.480469 20.855469 98.464844 20.695312 C 98.699219 20.519531 98.929688 20.339844 99.167969 20.160156 Z M 99.441406 21.105469 L 98.808594 21.777344 C 98.878906 21.996094 98.964844 22.164062 99.058594 22.351562 C 99.175781 22.519531 99.273438 22.671875 99.421875 22.816406 L 99.710938 21.34375 C 99.621094 21.269531 99.53125 21.191406 99.441406 21.105469 Z M 99.902344 21.46875 C 99.882812 21.765625 99.847656 22.003906 99.8125 22.261719 C 99.78125 22.5 99.753906 22.707031 99.710938 22.90625 C 99.792969 22.996094 99.902344 23.074219 100.011719 23.136719 C 100.121094 23.183594 100.257812 23.222656 100.394531 23.226562 L 100.695312 22.222656 L 100.515625 21.507812 C 100.328125 21.578125 100.195312 21.621094 100.085938 21.617188 C 99.980469 21.609375 99.929688 21.550781 99.902344 21.46875 Z M 99.8125 18.414062 L 99.78125 16.875 C 99.878906 16.867188 99.980469 16.898438 100.066406 16.945312 C 100.15625 16.988281 100.226562 17.066406 100.304688 17.175781 L 100.566406 17.820312 C 100.507812 17.960938 100.464844 18.097656 100.40625 18.253906 C 100.355469 18.40625 100.316406 18.554688 100.265625 18.722656 C 100.175781 18.660156 100.089844 18.582031 100.011719 18.542969 C 99.949219 18.476562 99.863281 18.453125 99.8125 18.414062 Z M 100.355469 18.742188 L 100.664062 18.238281 L 100.804688 19.027344 Z M 100.246094 19.386719 C 100.375 19.546875 100.546875 19.785156 100.566406 20.050781 C 100.601562 20.296875 100.496094 20.738281 100.355469 20.863281 C 100.21875 20.953125 99.902344 20.824219 99.730469 20.625 C 99.582031 20.371094 99.425781 19.835938 99.441406 19.566406 C 99.492188 19.285156 99.792969 19.136719 99.921875 19.097656 C 100.066406 19.0625 100.148438 19.21875 100.246094 19.386719 Z M 100.246094 19.386719 " fill-opacity="1" fill-rule="evenodd"/><path fill="rgb(50.19989%, 50.19989%, 50.19989%)" d="M 100.101562 19.691406 C 100.199219 19.753906 100.269531 20.070312 100.265625 20.210938 C 100.257812 20.339844 100.121094 20.488281 100.03125 20.429688 C 99.957031 20.332031 99.78125 19.910156 99.78125 19.78125 C 99.8125 19.652344 100.019531 19.613281 100.101562 19.691406 Z M 100.101562 19.691406 " fill-opacity="1" fill-rule="evenodd"/><path fill="rgb(0%, 0%, 0%)" d="M 108.558594 25.339844 C 108.453125 25.648438 108.222656 26.082031 107.835938 26.6875 C 107.457031 27.273438 106.929688 28.007812 106.25 28.890625 L 100.734375 28.996094 C 101.445312 28.503906 102.003906 27.898438 102.417969 27.152344 C 102.84375 26.402344 103.0625 25.65625 103.25 24.507812 C 103.449219 23.324219 103.492188 20.597656 103.636719 20.210938 C 103.808594 19.835938 103.984375 22.09375 104.234375 22.253906 C 104.503906 22.382812 104.960938 20.726562 105.1875 21.113281 C 105.425781 21.511719 105.375 24.128906 105.605469 24.585938 C 105.859375 25 106.386719 23.589844 106.644531 23.632812 C 106.910156 23.679688 106.855469 24.523438 107.160156 24.824219 C 107.480469 25.101562 107.9375 25.28125 108.558594 25.339844 Z M 102.238281 14.230469 C 101.945312 13.675781 101.539062 13.199219 101.042969 12.722656 C 100.527344 12.207031 99.8125 11.46875 99.175781 11.222656 C 98.558594 10.972656 97.945312 10.996094 97.363281 11.195312 C 96.8125 11.371094 95.753906 12.222656 95.8125 12.285156 C 95.890625 12.3125 97.105469 11.511719 97.777344 11.503906 C 98.460938 11.503906 99.144531 11.726562 99.878906 12.335938 C 100.65625 12.929688 101.757812 14.167969 102.289062 15.054688 C 102.835938 15.9375 102.9375 17.382812 103.042969 17.574219 C 103.144531 17.71875 103.09375 16.636719 102.9375 16.066406 C 102.816406 15.488281 102.558594 14.792969 102.238281 14.230469 Z M 102.238281 14.230469 " fill-opacity="1" fill-rule="evenodd"/><path fill="rgb(22.349548%, 43.528748%, 97.648621%)" d="M 150.707031 17.453125 C 149.992188 17.023438 148.882812 16.390625 147.382812 15.558594 C 145.867188 14.703125 144.027344 13.695312 141.730469 12.441406 C 141.71875 11.820312 141.527344 11.363281 141.101562 11.066406 C 140.679688 10.765625 140.082031 10.621094 139.25 10.640625 L 138.988281 10.011719 C 139.464844 10.101562 139.851562 10.101562 140.144531 10.011719 C 140.46875 9.921875 140.746094 9.84375 140.777344 9.429688 C 140.816406 8.980469 140.46875 7.988281 140.308594 7.425781 C 140.179688 6.859375 140.070312 6.371094 139.882812 6.054688 C 139.695312 5.710938 139.777344 5.527344 139.140625 5.417969 C 138.484375 5.28125 137.324219 5.140625 136.078125 5.3125 C 134.867188 5.460938 133.496094 5.789062 131.910156 6.371094 C 130.320312 6.9375 128.246094 7.789062 126.625 8.746094 C 125.042969 9.6875 123.644531 11.035156 122.40625 12.019531 C 121.175781 12.976562 120.203125 13.734375 119.285156 14.554688 C 118.410156 15.371094 118.011719 16.171875 117.019531 16.875 C 116.027344 17.539062 115.167969 18.167969 113.328125 18.621094 C 111.488281 19.058594 109.113281 19.347656 106.089844 19.515625 L 106.140625 27.382812 L 128.058594 31.132812 C 129.082031 30.863281 130.332031 30.652344 131.910156 30.445312 C 133.488281 30.238281 135.320312 30.070312 137.453125 29.917969 L 137.828125 17.71875 C 141.304688 17.652344 144.046875 17.601562 146.21875 17.5625 C 148.375 17.523438 149.863281 17.480469 150.707031 17.453125 Z M 112.058594 26.539062 L 111.894531 24.160156 L 111.367188 22.789062 L 116.277344 23.265625 L 116.386719 26.0625 Z M 112.058594 26.539062 " fill-opacity="1" fill-rule="evenodd"/><path fill="rgb(12.939453%, 12.939453%, 12.939453%)" d="M 147.910156 17.195312 C 147.472656 17.015625 146.765625 16.640625 145.6875 15.976562 C 144.617188 15.320312 143.277344 14.429688 141.570312 13.285156 C 141.519531 12.722656 141.421875 12.292969 141.253906 11.964844 C 141.105469 11.632812 140.945312 11.5 140.625 11.332031 C 140.328125 11.136719 139.777344 10.828125 139.40625 10.855469 C 139.039062 10.859375 138.664062 11.195312 138.40625 11.433594 C 138.15625 11.652344 138.011719 11.917969 137.929688 12.226562 L 136.503906 13.234375 L 136.558594 15.609375 C 136.910156 15.777344 137.265625 15.996094 137.71875 16.292969 C 138.15625 16.578125 138.65625 16.9375 139.199219 17.351562 Z M 140.144531 7.953125 C 140.015625 7.511719 139.871094 7.019531 139.726562 6.683594 C 139.613281 6.335938 139.585938 5.984375 139.40625 5.945312 C 139.230469 5.867188 138.953125 5.925781 138.722656 6.371094 C 138.511719 6.820312 138.257812 8.089844 138.195312 8.636719 C 138.167969 9.152344 138.289062 9.328125 138.511719 9.535156 C 138.761719 9.726562 139.238281 9.824219 139.566406 9.796875 C 139.914062 9.746094 140.351562 9.578125 140.460938 9.269531 C 140.570312 8.941406 140.273438 8.386719 140.144531 7.953125 Z M 140.144531 7.953125 " fill-opacity="1" fill-rule="evenodd"/><path fill="rgb(10.198975%, 35.688782%, 100%)" d="M 137.878906 10.273438 C 137.183594 10.160156 136.628906 10.105469 136.191406 10.121094 C 135.765625 10.121094 135.457031 10.199219 135.289062 10.328125 L 132.015625 12.335938 L 137.035156 12.175781 C 137.066406 11.71875 137.164062 11.332031 137.296875 11.015625 C 137.460938 10.6875 137.621094 10.449219 137.878906 10.273438 Z M 135.398438 13.285156 L 127.632812 12.867188 C 129.378906 12.898438 130.886719 13.089844 132.277344 13.496094 C 133.664062 13.890625 134.835938 14.46875 135.867188 15.238281 C 135.714844 14.585938 135.558594 13.933594 135.398438 13.285156 Z M 131.960938 18.089844 C 130.066406 17.671875 128.289062 17.3125 126.523438 16.984375 C 124.777344 16.660156 123.113281 16.371094 121.511719 16.140625 C 121.820312 15.785156 122.109375 15.449219 122.40625 15.082031 C 122.710938 14.707031 122.972656 14.347656 123.25 13.972656 L 120.609375 13.863281 C 120.171875 14.109375 119.808594 14.417969 119.449219 14.816406 C 119.113281 15.191406 119.054688 15.738281 118.550781 16.191406 C 118.050781 16.636719 117.386719 17.066406 116.492188 17.511719 C 117.191406 17.519531 118.03125 17.59375 119.03125 17.71875 C 120.046875 17.832031 122.285156 18.464844 122.457031 18.246094 C 122.597656 18.015625 121.8125 17.410156 119.976562 16.402344 C 121.941406 16.691406 123.886719 16.949219 125.890625 17.246094 C 127.910156 17.539062 129.90625 17.796875 131.960938 18.089844 Z M 131.960938 18.089844 " fill-opacity="1" fill-rule="evenodd"/><path fill="rgb(38.038635%, 38.038635%, 38.038635%)" d="M 116.175781 26.164062 L 115.910156 23.421875 L 111.527344 23.265625 L 109.945312 19.097656 C 111.039062 18.988281 111.921875 18.871094 112.6875 18.722656 C 113.46875 18.574219 113.953125 18.375 114.488281 18.195312 C 115.027344 18.007812 115.5 17.769531 115.898438 17.550781 C 115.886719 18.117188 115.96875 18.585938 116.175781 19.039062 C 116.402344 19.46875 116.683594 19.832031 117.121094 20.148438 L 117.179688 25.960938 C 116.84375 26.023438 116.511719 26.09375 116.175781 26.164062 Z M 116.175781 26.164062 " fill-opacity="1" fill-rule="evenodd"/><path fill="rgb(50.19989%, 50.19989%, 50.19989%)" d="M 115.859375 20.675781 C 114.105469 20.425781 112.835938 20.207031 111.949219 20.042969 C 111.078125 19.871094 110.640625 19.746094 110.632812 19.675781 L 110.734375 19.199219 C 111.21875 19.167969 111.84375 19.167969 112.636719 19.199219 C 113.4375 19.21875 114.375 19.269531 115.484375 19.355469 C 115.621094 19.488281 115.664062 19.574219 115.644531 19.675781 C 115.640625 19.773438 115.542969 19.820312 115.382812 19.882812 L 113.582031 19.726562 L 115.75 20.148438 C 115.78125 20.320312 115.820312 20.496094 115.859375 20.675781 Z M 115.75 21.996094 C 115.144531 22.046875 114.46875 22.066406 113.746094 22.105469 C 113.015625 22.136719 112.269531 22.136719 111.425781 22.15625 L 111.527344 22.738281 C 112.148438 22.835938 112.824219 22.90625 113.585938 22.949219 C 114.339844 22.980469 115.175781 23.007812 116.070312 23 C 116.375 22.632812 116.496094 22.371094 116.4375 22.207031 C 116.394531 22.035156 116.15625 21.964844 115.75 21.996094 Z M 115.75 21.996094 " fill-opacity="1" fill-rule="evenodd"/><path fill="rgb(12.939453%, 12.939453%, 12.939453%)" d="M 135.816406 21.203125 L 128.425781 21.417969 L 116.96875 20.308594 L 117.019531 25.90625 L 113.640625 26.328125 L 112.109375 26.4375 L 112.058594 24.375 L 110.207031 19.097656 C 109.871094 19.109375 109.390625 19.160156 108.730469 19.199219 C 108.085938 19.238281 107.269531 19.289062 106.304688 19.355469 L 109.78125 24.375 L 109.679688 27.648438 C 111.285156 27.820312 113.566406 28.15625 116.601562 28.652344 C 119.65625 29.15625 123.355469 29.773438 127.84375 30.605469 C 128.097656 30.527344 128.890625 30.414062 130.273438 30.230469 C 131.671875 30.050781 133.59375 29.832031 136.132812 29.546875 C 136.027344 26.769531 135.925781 23.988281 135.816406 21.203125 Z M 135.816406 21.203125 " fill-opacity="1" fill-rule="evenodd"/><path fill="rgb(0%, 0%, 0%)" d="M 155.140625 17.296875 L 155.140625 16.609375 C 154.613281 16.660156 154.253906 16.609375 154.035156 16.453125 C 153.828125 16.28125 153.78125 15.84375 153.871094 15.660156 C 153.96875 15.457031 154 15.417969 154.613281 15.347656 C 155.269531 15.269531 157.0625 15.109375 157.675781 15.238281 C 158.265625 15.359375 158.320312 15.855469 158.203125 16.082031 C 158.117188 16.273438 157.527344 16.414062 157.09375 16.507812 C 156.683594 16.597656 156.199219 16.621094 155.671875 16.609375 L 155.617188 17.296875 Z M 155.140625 17.296875 " fill-opacity="1" fill-rule="evenodd"/><path stroke-linecap="butt" transform="matrix(-0.179, 0, 0, 0.179, 185.563669, 5.248527)" fill-opacity="1" fill="rgb(0%, 0%, 0%)" fill-rule="evenodd" stroke-linejoin="miter" d="M 239.575749 67.89854 C 238.855601 65.410756 239.401167 63.795879 241.05969 62.90115 C 242.740035 62.071888 245.72974 62.421051 249.592352 62.595632 C 253.302205 62.57381 260.918315 62.377406 263.166049 63.184844 C 265.282848 63.97046 265.130089 65.454401 262.576838 67.614845 C 254.917082 67.680313 247.257327 67.789427 239.575749 67.89854 Z M 239.575749 67.89854 " stroke="rgb(0%, 0%, 0%)" stroke-width="0.036" stroke-opacity="1" stroke-miterlimit="10"/><path fill="rgb(22.349548%, 43.528748%, 97.648621%)" d="M 128.417969 24.65625 C 128.457031 24.328125 128.394531 24.058594 128.226562 23.851562 C 128.0625 23.644531 127.8125 23.523438 127.484375 23.484375 C 127.140625 23.445312 126.871094 23.511719 126.671875 23.671875 C 126.464844 23.832031 126.34375 24.070312 126.304688 24.40625 C 126.277344 24.636719 126.296875 24.839844 126.363281 25 C 126.421875 25.167969 126.523438 25.296875 126.664062 25.398438 C 126.808594 25.503906 126.992188 25.566406 127.21875 25.59375 C 127.453125 25.617188 127.644531 25.597656 127.800781 25.539062 C 127.960938 25.488281 128.097656 25.386719 128.210938 25.238281 C 128.320312 25.089844 128.394531 24.894531 128.417969 24.65625 Z M 127.785156 24.585938 C 127.761719 24.792969 127.710938 24.941406 127.625 25.019531 C 127.535156 25.101562 127.425781 25.132812 127.296875 25.117188 C 127.15625 25.101562 127.058594 25.050781 126.996094 24.953125 C 126.929688 24.859375 126.910156 24.691406 126.9375 24.464844 C 126.957031 24.269531 127.015625 24.136719 127.105469 24.058594 C 127.1875 23.980469 127.296875 23.949219 127.433594 23.960938 C 127.554688 23.976562 127.652344 24.03125 127.722656 24.128906 C 127.785156 24.234375 127.8125 24.378906 127.785156 24.585938 Z M 124.597656 24.414062 C 124.410156 24.445312 124.21875 24.476562 124.023438 24.515625 C 124.042969 24.671875 124.085938 24.804688 124.152344 24.921875 C 124.222656 25.03125 124.3125 25.128906 124.421875 25.191406 C 124.53125 25.257812 124.679688 25.300781 124.867188 25.320312 C 125.085938 25.347656 125.273438 25.339844 125.421875 25.28125 C 125.570312 25.238281 125.699219 25.140625 125.820312 24.988281 C 125.945312 24.839844 126.019531 24.636719 126.046875 24.378906 C 126.085938 24.046875 126.019531 23.773438 125.867188 23.574219 C 125.707031 23.375 125.460938 23.253906 125.136719 23.222656 C 124.878906 23.1875 124.675781 23.214844 124.511719 23.304688 C 124.351562 23.386719 124.230469 23.535156 124.132812 23.75 C 124.3125 23.808594 124.496094 23.863281 124.675781 23.929688 C 124.699219 23.871094 124.726562 23.828125 124.75 23.800781 C 124.789062 23.761719 124.835938 23.730469 124.894531 23.710938 C 124.945312 23.691406 125.003906 23.683594 125.066406 23.691406 C 125.210938 23.703125 125.3125 23.773438 125.378906 23.898438 C 125.421875 23.988281 125.433594 24.125 125.414062 24.308594 C 125.390625 24.535156 125.339844 24.683594 125.261719 24.761719 C 125.183594 24.832031 125.082031 24.863281 124.957031 24.851562 C 124.835938 24.839844 124.753906 24.792969 124.695312 24.714844 C 124.640625 24.644531 124.609375 24.542969 124.597656 24.414062 Z M 122.433594 24.671875 L 123.148438 24.75 C 123.167969 24.863281 123.1875 24.980469 123.210938 25.097656 L 123.855469 25.171875 C 123.683594 24.464844 123.5 23.753906 123.320312 23.046875 L 122.632812 22.96875 C 122.304688 23.613281 121.96875 24.265625 121.632812 24.914062 L 122.296875 24.992188 C 122.339844 24.890625 122.386719 24.78125 122.433594 24.671875 Z M 122.617188 24.246094 C 122.714844 24.011719 122.820312 23.773438 122.921875 23.535156 C 122.964844 23.789062 123.011719 24.039062 123.0625 24.296875 C 122.914062 24.285156 122.765625 24.265625 122.617188 24.246094 Z M 121.671875 22.859375 C 121.464844 22.839844 121.257812 22.816406 121.046875 22.789062 C 120.988281 23.296875 120.929688 23.808594 120.867188 24.324219 C 120.542969 24.289062 120.214844 24.25 119.886719 24.214844 C 119.867188 24.375 119.847656 24.542969 119.828125 24.710938 C 120.363281 24.765625 120.898438 24.832031 121.441406 24.894531 C 121.515625 24.21875 121.59375 23.542969 121.671875 22.859375 Z M 119.585938 22.519531 L 119.449219 24.644531 L 116.96875 24.417969 L 116.96875 22.292969 Z M 119.585938 22.519531 " fill-opacity="1" fill-rule="evenodd"/><path stroke-linecap="butt" transform="matrix(-0.179, 0, 0, 0.179, 185.563669, 5.248527)" fill-opacity="1" fill="rgb(22.349548%, 43.528748%, 97.648621%)" fill-rule="evenodd" stroke-linejoin="miter" d="M 314.929411 102.421996 L 294.37246 101.418153 L 294.874382 112.787762 L 316.15148 114.293526 Z M 314.929411 102.421996 " stroke="rgb(0%, 0%, 0%)" stroke-width="0.036" stroke-opacity="1" stroke-miterlimit="10"/><path fill="rgb(22.349548%, 43.528748%, 97.648621%)" d="M 132.523438 26.105469 L 128.894531 26.371094 L 116.933594 25.042969 L 116.84375 25.664062 L 128.585938 27.171875 L 132.4375 26.988281 Z M 132.523438 26.105469 " fill-opacity="1" fill-rule="evenodd"/><path fill="rgb(12.939453%, 12.939453%, 12.939453%)" d="M 143.898438 17.363281 L 136.484375 17.363281 C 135.519531 17.574219 134.734375 18.007812 134.101562 18.683594 C 133.484375 19.355469 133.058594 20.21875 132.730469 21.351562 C 132.425781 22.46875 132.21875 23.863281 132.1875 25.375 C 132.148438 26.886719 132.21875 28.800781 132.550781 30.269531 C 132.917969 31.699219 133.675781 33.042969 134.335938 33.945312 C 135.011719 34.800781 135.605469 35.21875 136.5625 35.546875 C 137.570312 35.859375 138.761719 35.921875 140.140625 35.941406 C 141.507812 35.96875 143.027344 35.871094 144.726562 35.675781 C 145.882812 34.492188 146.746094 33.304688 147.34375 32.023438 C 147.949219 30.734375 148.1875 29.328125 148.332031 28.058594 C 148.492188 26.757812 148.382812 25.457031 148.253906 24.40625 C 148.128906 23.355469 147.898438 22.632812 147.582031 21.816406 C 147.292969 20.976562 147.0625 20.167969 146.441406 19.433594 C 145.816406 18.671875 144.992188 18.007812 143.898438 17.363281 Z M 143.898438 17.363281 " fill-opacity="1" fill-rule="evenodd"/><path fill="rgb(100%, 100%, 100%)" d="M 138.070312 33.738281 C 138.089844 33.796875 139.070312 32.984375 139.445312 32.46875 C 139.816406 31.953125 140.074219 31.457031 140.292969 30.726562 C 140.539062 29.960938 140.773438 28.929688 140.84375 28.035156 C 140.933594 27.152344 140.933594 26.289062 140.816406 25.417969 C 140.699219 24.515625 140.46875 23.402344 140.191406 22.691406 C 139.921875 21.957031 139.4375 21.300781 139.289062 21.164062 C 139.1875 21.042969 139.527344 21.847656 139.496094 21.917969 C 139.464844 21.964844 139.023438 21.144531 139.078125 21.449219 C 139.167969 21.730469 139.675781 22.847656 139.882812 23.679688 C 140.109375 24.515625 140.238281 25.390625 140.292969 26.402344 C 140.351562 27.398438 140.300781 28.613281 140.164062 29.5625 C 140.035156 30.476562 139.832031 31.203125 139.46875 31.921875 C 139.117188 32.617188 138.105469 33.628906 138.070312 33.738281 Z M 135.320312 19.535156 C 135.222656 19.746094 134.46875 20.480469 134.128906 21.164062 C 133.820312 21.824219 133.585938 22.460938 133.457031 23.523438 C 133.347656 24.59375 133.230469 26.089844 133.40625 27.460938 C 133.59375 28.8125 134.4375 30.84375 134.574219 31.558594 C 134.734375 32.242188 134.289062 31.339844 134.28125 31.558594 C 134.289062 31.753906 134.644531 32.855469 134.546875 32.75 C 134.46875 32.609375 133.988281 31.65625 133.714844 30.855469 C 133.453125 30.039062 133.109375 29.097656 132.960938 28.007812 C 132.832031 26.898438 132.859375 25.425781 132.9375 24.355469 C 133.050781 23.253906 133.25 22.363281 133.535156 21.609375 C 133.820312 20.847656 134.316406 20.269531 134.597656 19.921875 C 134.90625 19.546875 135.402344 19.328125 135.320312 19.535156 Z M 135.320312 19.535156 " fill-opacity="1" fill-rule="evenodd"/><path fill="rgb(0%, 0%, 0%)" d="M 139.132812 24.347656 C 139.148438 24.15625 139.078125 23.703125 138.921875 23.34375 C 138.773438 22.980469 138.554688 22.550781 138.289062 22.246094 C 138.050781 21.933594 137.773438 21.601562 137.484375 21.460938 C 137.214844 21.292969 136.910156 21.269531 136.601562 21.28125 C 136.3125 21.261719 136.035156 21.28125 135.71875 21.441406 C 135.410156 21.582031 135.03125 21.847656 134.753906 22.234375 C 134.496094 22.609375 134.25 23.019531 134.140625 23.722656 C 134.0625 24.414062 134.148438 26.074219 134.191406 26.347656 C 134.222656 26.578125 134.277344 25.734375 134.371094 25.230469 C 134.5 24.710938 134.535156 23.78125 134.894531 23.292969 C 135.273438 22.808594 135.984375 22.351562 136.550781 22.335938 C 137.136719 22.300781 137.882812 22.796875 138.269531 23.128906 C 138.664062 23.460938 138.730469 24.117188 138.863281 24.335938 C 139.019531 24.507812 139.132812 24.523438 139.132812 24.347656 Z M 135.363281 31.191406 C 135.558594 31.429688 135.796875 31.695312 136.082031 31.863281 C 136.371094 32.023438 136.738281 32.101562 137.085938 32.09375 C 137.480469 32.054688 137.882812 31.945312 138.253906 31.664062 C 138.621094 31.371094 138.992188 30.964844 139.226562 30.347656 C 139.476562 29.671875 139.703125 28.660156 139.726562 27.835938 C 139.78125 27.015625 139.484375 25.636719 139.457031 25.535156 C 139.445312 25.4375 139.667969 26.480469 139.585938 27.222656 C 139.515625 27.925781 139.320312 29.136719 139.007812 29.863281 C 138.683594 30.597656 138.21875 31.316406 137.738281 31.609375 C 137.285156 31.867188 136.632812 31.644531 136.28125 31.554688 C 135.957031 31.46875 135.933594 31.316406 135.707031 31.089844 C 135.480469 30.832031 135.082031 30.136719 134.933594 30.046875 C 134.816406 29.929688 134.882812 30.257812 134.953125 30.457031 C 135.042969 30.65625 135.171875 30.933594 135.363281 31.191406 Z M 135.363281 31.191406 " fill-opacity="1" fill-rule="evenodd"/><path fill="rgb(50.19989%, 50.19989%, 50.19989%)" d="M 134.519531 29.273438 C 134.714844 29.824219 134.960938 30.269531 135.203125 30.675781 C 135.460938 31.0625 135.699219 31.390625 135.988281 31.609375 C 136.285156 31.816406 136.601562 31.925781 136.964844 31.914062 C 137.335938 31.902344 137.773438 31.773438 138.128906 31.5 C 138.492188 31.199219 138.859375 30.722656 139.082031 30.175781 C 139.328125 29.59375 139.488281 28.890625 139.566406 28.214844 C 139.664062 27.519531 139.667969 26.828125 139.585938 26.144531 C 139.503906 25.429688 139.328125 24.746094 139.0625 24.097656 C 138.792969 23.441406 138.347656 22.730469 138 22.320312 C 137.683594 21.894531 137.402344 21.785156 137.125 21.640625 C 136.875 21.46875 136.660156 21.410156 136.382812 21.441406 C 136.113281 21.480469 135.785156 21.597656 135.46875 21.894531 C 135.171875 22.171875 134.796875 22.542969 134.574219 23.113281 C 134.359375 23.671875 134.261719 24.503906 134.179688 25.230469 C 134.121094 25.960938 134.113281 26.707031 134.160156 27.402344 C 134.222656 28.09375 134.351562 28.691406 134.519531 29.273438 Z M 134.519531 29.273438 " fill-opacity="1" fill-rule="evenodd"/><path fill="rgb(38.038635%, 38.038635%, 38.038635%)" d="M 137.496094 31.160156 C 137.195312 31.242188 136.90625 31.179688 136.601562 31.019531 C 136.320312 30.832031 135.988281 30.546875 135.738281 30.117188 C 135.5 29.671875 135.289062 29.097656 135.125 28.394531 C 134.992188 27.667969 134.875 26.695312 134.875 25.875 C 134.894531 25.050781 135.0625 24.03125 135.203125 23.492188 C 135.359375 22.945312 135.550781 22.78125 135.808594 22.589844 C 136.105469 22.371094 136.570312 22.230469 136.855469 22.265625 C 137.144531 22.292969 137.355469 22.460938 137.515625 22.769531 C 137.207031 22.988281 136.996094 23.226562 136.78125 23.582031 C 136.589844 23.902344 136.460938 24.289062 136.371094 24.765625 C 136.28125 25.21875 136.28125 25.753906 136.300781 26.398438 C 136.34375 27.027344 136.453125 28.085938 136.601562 28.628906 C 136.761719 29.15625 136.910156 29.277344 137.195312 29.613281 C 137.511719 29.949219 138.214844 30.515625 138.308594 30.566406 C 138.394531 30.554688 137.882812 30.019531 137.679688 29.753906 C 137.484375 29.492188 137.292969 29.425781 137.125 29.089844 C 136.964844 28.75 136.757812 28.242188 136.652344 27.765625 C 136.5625 27.261719 136.570312 26.699219 136.550781 26.203125 C 136.542969 25.703125 136.503906 25.226562 136.582031 24.800781 C 136.679688 24.363281 136.820312 23.949219 137.035156 23.632812 C 137.257812 23.292969 137.523438 23.046875 137.878906 22.828125 C 137.640625 22.480469 137.421875 22.246094 137.125 22.105469 C 136.867188 21.9375 136.523438 21.925781 136.222656 22.015625 C 135.90625 22.105469 135.570312 22.371094 135.289062 22.738281 C 135.023438 23.109375 134.796875 23.613281 134.664062 24.246094 C 134.558594 24.863281 134.546875 25.65625 134.574219 26.378906 C 134.605469 27.082031 134.714844 27.828125 134.824219 28.445312 C 134.945312 29.027344 135.113281 29.535156 135.328125 29.972656 C 135.570312 30.40625 135.976562 30.804688 136.222656 31.050781 C 136.480469 31.277344 136.679688 31.371094 136.875 31.390625 C 137.09375 31.40625 137.292969 31.328125 137.496094 31.160156 Z M 137.496094 31.160156 " fill-opacity="1" fill-rule="evenodd"/><path fill="rgb(12.939453%, 12.939453%, 12.939453%)" d="M 138.058594 25.019531 L 137.929688 23.3125 C 137.808594 23.296875 137.71875 23.351562 137.589844 23.492188 C 137.464844 23.625 137.375 23.828125 137.246094 24.117188 L 137.96875 25.089844 Z M 137.808594 25.191406 L 137.125 24.386719 C 137.039062 24.472656 136.988281 24.585938 136.945312 24.710938 C 136.910156 24.832031 136.90625 24.960938 136.925781 25.121094 L 137.574219 25.804688 C 137.570312 25.648438 137.59375 25.535156 137.628906 25.429688 C 137.671875 25.320312 137.722656 25.25 137.808594 25.191406 Z M 137.535156 26.09375 L 136.890625 25.429688 C 136.828125 25.703125 136.816406 25.984375 136.800781 26.257812 C 136.816406 26.519531 136.828125 26.796875 136.890625 27.0625 L 137.574219 26.578125 C 137.5625 26.417969 137.550781 26.257812 137.535156 26.09375 Z M 137.609375 26.757812 C 137.625 26.875 137.660156 27.003906 137.679688 27.121094 C 137.710938 27.222656 137.753906 27.339844 137.789062 27.441406 L 137.054688 28.195312 C 137.027344 28.046875 136.988281 27.914062 136.964844 27.765625 C 136.9375 27.617188 136.917969 27.460938 136.90625 27.300781 C 137.136719 27.121094 137.367188 26.9375 137.609375 26.757812 Z M 137.878906 27.710938 L 137.246094 28.375 C 137.316406 28.59375 137.402344 28.761719 137.496094 28.949219 C 137.613281 29.125 137.710938 29.273438 137.859375 29.421875 L 138.148438 27.945312 Z M 138.34375 28.066406 C 138.324219 28.363281 138.285156 28.601562 138.25 28.859375 C 138.21875 29.097656 138.195312 29.304688 138.148438 29.503906 C 138.234375 29.605469 138.34375 29.679688 138.453125 29.742188 C 138.5625 29.789062 138.695312 29.824219 138.832031 29.832031 L 139.132812 28.820312 L 138.953125 28.105469 C 138.765625 28.175781 138.632812 28.222656 138.523438 28.214844 C 138.417969 28.207031 138.367188 28.152344 138.34375 28.066406 Z M 138.25 25.019531 L 138.21875 23.472656 C 138.316406 23.464844 138.417969 23.496094 138.503906 23.542969 C 138.59375 23.589844 138.664062 23.664062 138.742188 23.773438 L 139.003906 24.425781 C 138.949219 24.554688 138.902344 24.695312 138.84375 24.851562 C 138.792969 25.003906 138.753906 25.152344 138.703125 25.320312 C 138.613281 25.257812 138.527344 25.179688 138.453125 25.140625 C 138.386719 25.097656 138.304688 25.039062 138.25 25.019531 Z M 138.792969 25.339844 L 139.097656 24.839844 L 139.242188 25.625 Z M 138.683594 25.984375 C 138.8125 26.144531 138.988281 26.386719 139.007812 26.648438 C 139.039062 26.894531 138.933594 27.339844 138.792969 27.460938 C 138.644531 27.550781 138.335938 27.421875 138.160156 27.222656 C 138.015625 26.972656 137.851562 26.4375 137.878906 26.164062 C 137.929688 25.882812 138.234375 25.734375 138.363281 25.695312 C 138.503906 25.664062 138.585938 25.816406 138.683594 25.984375 Z M 138.683594 25.984375 " fill-opacity="1" fill-rule="evenodd"/><path fill="rgb(50.19989%, 50.19989%, 50.19989%)" d="M 138.542969 26.292969 C 138.636719 26.367188 138.710938 26.660156 138.703125 26.808594 C 138.695312 26.917969 138.5625 27.101562 138.472656 27.027344 C 138.394531 26.933594 138.21875 26.507812 138.21875 26.378906 C 138.25 26.242188 138.457031 26.222656 138.542969 26.292969 Z M 138.542969 26.292969 " fill-opacity="1" fill-rule="evenodd"/><path fill="rgb(0%, 0%, 0%)" d="M 146.996094 31.941406 C 146.894531 32.25 146.660156 32.679688 146.273438 33.285156 C 145.894531 33.871094 145.367188 34.605469 144.6875 35.488281 L 139.171875 35.59375 C 139.882812 35.109375 140.441406 34.496094 140.855469 33.757812 C 141.28125 32.996094 141.5 32.253906 141.6875 31.109375 C 141.886719 29.921875 141.929688 27.195312 142.074219 26.808594 C 142.226562 26.4375 142.433594 28.683594 142.667969 28.859375 C 142.929688 28.988281 143.40625 27.332031 143.625 27.71875 C 143.863281 28.113281 143.8125 30.753906 144.046875 31.191406 C 144.296875 31.589844 144.824219 30.191406 145.082031 30.230469 C 145.347656 30.277344 145.296875 31.121094 145.597656 31.425781 C 145.921875 31.699219 146.378906 31.882812 146.996094 31.941406 Z M 140.675781 20.832031 C 140.386719 20.269531 139.980469 19.820312 139.484375 19.328125 C 138.96875 18.8125 138.25 18.078125 137.613281 17.820312 C 136.984375 17.570312 136.402344 17.59375 135.804688 17.796875 C 135.234375 17.96875 134.1875 18.820312 134.242188 18.882812 C 134.316406 18.910156 135.550781 18.105469 136.214844 18.109375 C 136.898438 18.109375 137.582031 18.335938 138.316406 18.9375 C 139.097656 19.527344 140.199219 20.757812 140.726562 21.660156 C 141.273438 22.550781 141.378906 23.96875 141.480469 24.175781 C 141.589844 24.316406 141.519531 23.234375 141.371094 22.667969 C 141.242188 22.085938 141.011719 21.390625 140.675781 20.832031 Z M 140.675781 20.832031 " fill-opacity="1" fill-rule="evenodd"/><path fill="rgb(12.939453%, 12.939453%, 12.939453%)" d="M 160.160156 27.835938 C 158.152344 27.945312 156.042969 28.046875 153.738281 28.117188 C 151.429688 28.183594 149.050781 28.234375 146.457031 28.273438 L 146.867188 29.566406 L 151.996094 30.914062 C 153.460938 30.84375 155.328125 30.742188 157.675781 30.632812 C 160.03125 30.507812 162.765625 30.355469 166.019531 30.191406 C 165.40625 30.070312 164.75 29.898438 164.019531 29.671875 C 163.304688 29.433594 162.347656 29.089844 161.6875 28.792969 C 161.050781 28.492188 160.542969 28.164062 160.160156 27.835938 Z M 160.160156 27.835938 " fill-opacity="1" fill-rule="evenodd"/><path fill="rgb(25.099182%, 25.099182%, 25.099182%)" d="M 165.992188 30.140625 C 164.175781 30.25 162.4375 30.328125 160.675781 30.425781 C 158.925781 30.507812 157.015625 30.585938 155.546875 30.65625 C 154.105469 30.714844 152.589844 30.765625 152.046875 30.835938 C 151.546875 30.894531 151.90625 31.074219 152.410156 31.101562 C 152.917969 31.109375 153.949219 31.039062 155.03125 30.992188 C 156.128906 30.933594 157.398438 30.914062 158.917969 30.835938 C 160.488281 30.746094 163.046875 30.585938 164.226562 30.527344 C 165.394531 30.46875 165.949219 30.445312 165.890625 30.476562 C 165.921875 30.367188 165.953125 30.257812 165.992188 30.140625 Z M 165.992188 30.140625 " fill-opacity="1" fill-rule="evenodd"/><path fill="rgb(22.349548%, 43.528748%, 97.648621%)" d="M 146.140625 25.140625 C 146.28125 25.121094 146.378906 25.199219 146.429688 25.347656 C 146.5 25.496094 146.46875 25.613281 146.507812 26.042969 C 146.558594 26.476562 146.578125 27.371094 146.738281 27.835938 C 146.933594 28.273438 147.15625 28.382812 147.5625 28.632812 C 148.007812 28.878906 148.644531 29.019531 149.226562 29.234375 C 149.820312 29.414062 150.519531 29.59375 150.984375 29.75 C 151.441406 29.878906 151.769531 29.992188 151.996094 30.167969 C 152.25 30.347656 152.394531 30.578125 152.441406 30.863281 L 146.371094 28.742188 C 146.292969 27.542969 146.214844 26.347656 146.140625 25.140625 Z M 146.140625 25.140625 " fill-opacity="1" fill-rule="evenodd"/><path fill="rgb(10.198975%, 35.688782%, 100%)" d="M 146.164062 31.28125 C 146.90625 31.496094 147.667969 31.699219 148.523438 31.902344 C 149.398438 32.105469 150.597656 32.421875 151.25 32.472656 C 151.894531 32.5 152.222656 32.378906 152.410156 32.105469 C 152.636719 31.824219 152.707031 31.132812 152.519531 30.8125 C 152.339844 30.464844 152.164062 30.429688 151.300781 30.089844 C 150.445312 29.742188 148.226562 29.167969 147.410156 28.769531 C 146.628906 28.34375 146.695312 28.195312 146.507812 27.628906 C 146.34375 27.015625 146.390625 25.792969 146.292969 25.347656 C 146.203125 24.910156 146.015625 24.695312 145.933594 25.058594 C 145.875 25.425781 145.816406 26.605469 145.828125 27.5 C 145.847656 28.371094 145.867188 29.257812 145.957031 30.246094 C 146.023438 30.585938 146.09375 30.933594 146.164062 31.28125 Z M 146.164062 31.28125 " fill-opacity="1" fill-rule="evenodd"/><g fill="rgb(100%, 100%, 100%)" fill-opacity="1"><g transform="translate(3.875615, 27.566239)"><g><path d="M 6.296875 -6.71875 L 4.90625 -4.96875 L 4.90625 0 L 1.40625 0 L 1.40625 -17.40625 L 4.90625 -17.40625 L 4.90625 -9.8125 L 6.03125 -11.6875 L 9.265625 -17.40625 L 13.5625 -17.40625 L 8.578125 -9.75 L 13.65625 0 L 9.484375 0 Z M 6.296875 -6.71875 "/></g></g></g><g fill="rgb(100%, 100%, 100%)" fill-opacity="1"><g transform="translate(17.418452, 27.566239)"><g><path d="M 6.453125 0.234375 C 4.710938 0.234375 3.359375 -0.28125 2.390625 -1.3125 C 1.421875 -2.351562 0.9375 -3.835938 0.9375 -5.765625 L 0.9375 -6.796875 C 0.9375 -8.828125 1.378906 -10.394531 2.265625 -11.5 C 3.160156 -12.613281 4.441406 -13.171875 6.109375 -13.171875 C 7.734375 -13.171875 8.957031 -12.648438 9.78125 -11.609375 C 10.601562 -10.566406 11.019531 -9.03125 11.03125 -7 L 11.03125 -5.328125 L 4.296875 -5.328125 C 4.347656 -4.367188 4.5625 -3.671875 4.9375 -3.234375 C 5.3125 -2.796875 5.890625 -2.578125 6.671875 -2.578125 C 7.804688 -2.578125 8.75 -2.960938 9.5 -3.734375 L 10.828125 -1.6875 C 10.410156 -1.113281 9.804688 -0.648438 9.015625 -0.296875 C 8.234375 0.0546875 7.378906 0.234375 6.453125 0.234375 Z M 4.328125 -7.703125 L 7.71875 -7.703125 L 7.71875 -8.015625 C 7.695312 -8.785156 7.566406 -9.367188 7.328125 -9.765625 C 7.085938 -10.160156 6.671875 -10.359375 6.078125 -10.359375 C 5.492188 -10.359375 5.066406 -10.144531 4.796875 -9.71875 C 4.535156 -9.300781 4.378906 -8.628906 4.328125 -7.703125 Z M 4.328125 -7.703125 "/></g></g></g><g fill="rgb(100%, 100%, 100%)" fill-opacity="1"><g transform="translate(29.132464, 27.566239)"><g><path d="M 4.40625 -12.9375 L 4.5 -11.734375 C 5.257812 -12.691406 6.265625 -13.171875 7.515625 -13.171875 C 8.796875 -13.171875 9.707031 -12.585938 10.25 -11.421875 C 10.988281 -12.585938 12.039062 -13.171875 13.40625 -13.171875 C 15.675781 -13.171875 16.835938 -11.601562 16.890625 -8.46875 L 16.890625 0 L 13.515625 0 L 13.515625 -8.265625 C 13.515625 -9.015625 13.410156 -9.546875 13.203125 -9.859375 C 12.992188 -10.179688 12.640625 -10.34375 12.140625 -10.34375 C 11.515625 -10.34375 11.046875 -9.957031 10.734375 -9.1875 L 10.765625 -8.78125 L 10.765625 0 L 7.375 0 L 7.375 -8.234375 C 7.375 -8.972656 7.273438 -9.507812 7.078125 -9.84375 C 6.878906 -10.175781 6.523438 -10.34375 6.015625 -10.34375 C 5.429688 -10.34375 4.96875 -10.023438 4.625 -9.390625 L 4.625 0 L 1.25 0 L 1.25 -12.9375 Z M 4.40625 -12.9375 "/></g></g></g><g fill="rgb(100%, 100%, 100%)" fill-opacity="1"><g transform="translate(47.289187, 27.566239)"><g><path d="M 4.40625 -12.9375 L 4.5 -11.734375 C 5.257812 -12.691406 6.265625 -13.171875 7.515625 -13.171875 C 8.796875 -13.171875 9.707031 -12.585938 10.25 -11.421875 C 10.988281 -12.585938 12.039062 -13.171875 13.40625 -13.171875 C 15.675781 -13.171875 16.835938 -11.601562 16.890625 -8.46875 L 16.890625 0 L 13.515625 0 L 13.515625 -8.265625 C 13.515625 -9.015625 13.410156 -9.546875 13.203125 -9.859375 C 12.992188 -10.179688 12.640625 -10.34375 12.140625 -10.34375 C 11.515625 -10.34375 11.046875 -9.957031 10.734375 -9.1875 L 10.765625 -8.78125 L 10.765625 0 L 7.375 0 L 7.375 -8.234375 C 7.375 -8.972656 7.273438 -9.507812 7.078125 -9.84375 C 6.878906 -10.175781 6.523438 -10.34375 6.015625 -10.34375 C 5.429688 -10.34375 4.96875 -10.023438 4.625 -9.390625 L 4.625 0 L 1.25 0 L 1.25 -12.9375 Z M 4.40625 -12.9375 "/></g></g></g><g fill="rgb(100%, 100%, 100%)" fill-opacity="1"><g transform="translate(65.445911, 27.566239)"><g><path d="M 6.453125 0.234375 C 4.710938 0.234375 3.359375 -0.28125 2.390625 -1.3125 C 1.421875 -2.351562 0.9375 -3.835938 0.9375 -5.765625 L 0.9375 -6.796875 C 0.9375 -8.828125 1.378906 -10.394531 2.265625 -11.5 C 3.160156 -12.613281 4.441406 -13.171875 6.109375 -13.171875 C 7.734375 -13.171875 8.957031 -12.648438 9.78125 -11.609375 C 10.601562 -10.566406 11.019531 -9.03125 11.03125 -7 L 11.03125 -5.328125 L 4.296875 -5.328125 C 4.347656 -4.367188 4.5625 -3.671875 4.9375 -3.234375 C 5.3125 -2.796875 5.890625 -2.578125 6.671875 -2.578125 C 7.804688 -2.578125 8.75 -2.960938 9.5 -3.734375 L 10.828125 -1.6875 C 10.410156 -1.113281 9.804688 -0.648438 9.015625 -0.296875 C 8.234375 0.0546875 7.378906 0.234375 6.453125 0.234375 Z M 4.328125 -7.703125 L 7.71875 -7.703125 L 7.71875 -8.015625 C 7.695312 -8.785156 7.566406 -9.367188 7.328125 -9.765625 C 7.085938 -10.160156 6.671875 -10.359375 6.078125 -10.359375 C 5.492188 -10.359375 5.066406 -10.144531 4.796875 -9.71875 C 4.535156 -9.300781 4.378906 -8.628906 4.328125 -7.703125 Z M 4.328125 -7.703125 "/></g></g></g><g fill="rgb(100%, 100%, 100%)" fill-opacity="1"><g transform="translate(77.159923, 27.566239)"><g><path d="M 4.78125 0 L 1.390625 0 L 1.390625 -18.359375 L 4.78125 -18.359375 Z M 4.78125 0 "/></g></g></g><g fill="rgb(100%, 100%, 100%)" fill-opacity="1"><g transform="translate(83.327708, 27.566239)"><g><path d="M 12.671875 -14.484375 L 8.375 -14.484375 L 8.375 0 L 4.84375 0 L 4.84375 -14.484375 L 0.609375 -14.484375 L 0.609375 -17.40625 L 12.671875 -17.40625 Z M 12.671875 -14.484375 "/></g></g></g><g fill="rgb(100%, 100%, 100%)" fill-opacity="1"><g transform="translate(96.619525, 27.566239)"><g><path d="M 7.59375 -1.1875 C 6.894531 -0.238281 5.953125 0.234375 4.765625 0.234375 C 3.578125 0.234375 2.675781 -0.171875 2.0625 -0.984375 C 1.445312 -1.804688 1.140625 -3 1.140625 -4.5625 L 1.140625 -12.9375 L 4.53125 -12.9375 L 4.53125 -4.46875 C 4.550781 -3.207031 4.96875 -2.578125 5.78125 -2.578125 C 6.5625 -2.578125 7.117188 -2.914062 7.453125 -3.59375 L 7.453125 -12.9375 L 10.875 -12.9375 L 10.875 0 L 7.6875 0 Z M 7.59375 -1.1875 "/></g></g></g><g fill="rgb(100%, 100%, 100%)" fill-opacity="1"><g transform="translate(108.668223, 27.566239)"><g><path d="M 11.328125 -6.046875 C 11.328125 -3.953125 10.988281 -2.378906 10.3125 -1.328125 C 9.644531 -0.285156 8.59375 0.234375 7.15625 0.234375 C 6.03125 0.234375 5.128906 -0.269531 4.453125 -1.28125 L 4.359375 0 L 1.234375 0 L 1.234375 -18.359375 L 4.609375 -18.359375 L 4.609375 -11.890625 C 5.253906 -12.742188 6.097656 -13.171875 7.140625 -13.171875 C 8.578125 -13.171875 9.628906 -12.648438 10.296875 -11.609375 C 10.960938 -10.566406 11.304688 -9.046875 11.328125 -7.046875 Z M 7.9375 -6.890625 C 7.9375 -8.253906 7.804688 -9.171875 7.546875 -9.640625 C 7.285156 -10.109375 6.828125 -10.34375 6.171875 -10.34375 C 5.460938 -10.34375 4.941406 -10.019531 4.609375 -9.375 L 4.609375 -3.484375 C 4.910156 -2.878906 5.4375 -2.578125 6.1875 -2.578125 C 6.832031 -2.578125 7.28125 -2.785156 7.53125 -3.203125 C 7.789062 -3.628906 7.925781 -4.453125 7.9375 -5.671875 Z M 7.9375 -6.890625 "/></g></g></g><g fill="rgb(100%, 100%, 100%)" fill-opacity="1"><g transform="translate(120.788639, 27.566239)"><g><path d="M 6.453125 0.234375 C 4.710938 0.234375 3.359375 -0.28125 2.390625 -1.3125 C 1.421875 -2.351562 0.9375 -3.835938 0.9375 -5.765625 L 0.9375 -6.796875 C 0.9375 -8.828125 1.378906 -10.394531 2.265625 -11.5 C 3.160156 -12.613281 4.441406 -13.171875 6.109375 -13.171875 C 7.734375 -13.171875 8.957031 -12.648438 9.78125 -11.609375 C 10.601562 -10.566406 11.019531 -9.03125 11.03125 -7 L 11.03125 -5.328125 L 4.296875 -5.328125 C 4.347656 -4.367188 4.5625 -3.671875 4.9375 -3.234375 C 5.3125 -2.796875 5.890625 -2.578125 6.671875 -2.578125 C 7.804688 -2.578125 8.75 -2.960938 9.5 -3.734375 L 10.828125 -1.6875 C 10.410156 -1.113281 9.804688 -0.648438 9.015625 -0.296875 C 8.234375 0.0546875 7.378906 0.234375 6.453125 0.234375 Z M 4.328125 -7.703125 L 7.71875 -7.703125 L 7.71875 -8.015625 C 7.695312 -8.785156 7.566406 -9.367188 7.328125 -9.765625 C 7.085938 -10.160156 6.671875 -10.359375 6.078125 -10.359375 C 5.492188 -10.359375 5.066406 -10.144531 4.796875 -9.71875 C 4.535156 -9.300781 4.378906 -8.628906 4.328125 -7.703125 Z M 4.328125 -7.703125 "/></g></g></g></svg>