<svg xmlns="http://www.w3.org/2000/svg" xmlns:xlink="http://www.w3.org/1999/xlink" width="250" zoomAndPan="magnify" viewBox="0 0 187.5 83.999999" height="112" preserveAspectRatio="xMidYMid meet" version="1.0"><defs><g/><clipPath id="id1"><path d="M 171 44 L 177.800781 44 L 177.800781 51 L 171 51 Z M 171 44 " clip-rule="nonzero"/></clipPath><clipPath id="id2"><path d="M 171 43 L 177.800781 43 L 177.800781 52 L 171 52 Z M 171 43 " clip-rule="nonzero"/></clipPath><clipPath id="id3"><path d="M 93.800781 33 L 109 33 L 109 51 L 93.800781 51 Z M 93.800781 33 " clip-rule="nonzero"/></clipPath></defs><path stroke-linecap="butt" transform="matrix(-0.163766, 0, 0, 0.163766, 177.802274, 28.071415)" fill-opacity="1" fill="rgb(12.939453%, 12.939453%, 12.939453%)" fill-rule="evenodd" stroke-linejoin="miter" d="M 46.116347 55.212225 L 89.862164 55.212225 C 93.821709 57.716757 97.208789 60.292846 99.856437 63.4414 C 102.480232 66.422985 103.935245 68.68899 105.84346 73.435673 C 107.751674 78.158504 110.637849 83.262978 111.019492 91.682974 C 111.234166 100.126823 110.709407 112.744891 107.322326 123.335482 C 103.863687 133.735251 98.210602 143.848787 90.36307 153.962324 C 85.998029 154.868726 79.915596 155.298074 71.972653 155.274221 C 63.862742 155.154958 54.393227 154.72561 42.729266 153.676092 C 38.626605 151.887141 35.02485 149.072524 32.067118 145.256095 C 29.06168 141.344256 26.628707 136.883804 24.839756 130.753666 C 22.931541 124.599674 20.760947 117.515428 21.14259 108.785346 C 21.309559 99.864444 22.812278 87.294081 26.938792 78.30162 C 31.136864 69.30916 37.433971 61.700154 46.116347 55.212225 Z M 46.116347 55.212225 " stroke="rgb(0%, 0%, 0%)" stroke-width="0.036" stroke-opacity="1" stroke-miterlimit="10"/><path stroke-linecap="butt" transform="matrix(-0.163766, 0, 0, 0.163766, 177.802274, 28.071415)" fill-opacity="1" fill="rgb(100%, 100%, 100%)" fill-rule="evenodd" stroke-linejoin="miter" d="M 61.310505 111.051351 C 60.809598 107.521154 60.833451 104.110221 61.119683 100.269939 C 61.453621 96.381952 62.216907 91.82609 63.242572 88.319746 C 64.268237 84.78955 64.936112 82.21346 66.96359 79.27958 C 68.871805 76.178732 74.405627 69.261454 74.691859 70.048593 C 74.811122 70.764173 69.706648 79.732781 68.251635 83.620768 C 66.772769 87.365639 66.677358 88.820653 66.128746 92.80405 C 65.580135 96.739743 65.079228 103.251524 65.00767 107.354186 C 64.769143 111.456847 64.936112 114.581548 65.150786 117.18149 C 64.339795 114.629253 63.791184 113.17424 63.385688 113.007271 C 62.932487 112.721039 63.027898 115.988856 62.741666 115.750329 C 62.360023 115.344834 61.930674 113.842115 61.310505 111.051351 Z M 99.212415 73.93658 C 100.738986 74.91454 101.955473 77.94383 103.100402 80.233687 C 104.24533 82.523545 105.437964 84.574875 106.153545 87.484902 C 106.892978 90.442635 107.632411 96.596627 107.465442 97.669997 C 107.274621 98.67181 106.010429 95.833341 105.056321 93.638894 C 104.078362 91.396742 102.957286 87.341786 101.669241 84.431759 C 100.333491 81.545585 97.733548 78.993348 97.137231 76.345701 C 96.517062 73.721906 97.733548 72.982473 99.212415 73.93658 Z M 99.212415 73.93658 " stroke="rgb(0%, 0%, 0%)" stroke-width="0.036" stroke-opacity="1" stroke-miterlimit="10"/><path stroke-linecap="butt" transform="matrix(-0.163766, 0, 0, 0.163766, 177.802274, 28.071415)" fill-opacity="1" fill="rgb(0%, 0%, 0%)" fill-rule="evenodd" stroke-linejoin="miter" d="M 77.768855 78.110799 C 75.049649 80.758446 72.425854 85.314308 70.994693 89.750907 C 69.468122 94.1398 68.824099 99.0296 68.895657 104.301042 C 68.824099 109.477074 69.468122 115.965003 70.994693 120.425455 C 72.473559 124.814348 74.88268 128.917009 78.078939 130.109643 C 81.251346 131.111456 86.570494 130.896782 90.029132 126.531741 C 93.463919 121.975879 97.137231 110.765119 98.425276 103.633167 C 99.570205 96.477363 98.99774 89.250001 97.137231 84.264791 C 95.109754 79.231875 90.00528 74.962245 86.785168 73.93658 C 83.374235 72.934767 80.48806 75.343888 77.768855 78.110799 Z M 28.369953 137.050773 C 28.847006 139.292925 30.230462 141.654341 32.591877 144.325841 C 34.953292 146.925783 38.077994 149.764252 42.419182 152.865101 C 48.024562 152.650427 53.248299 152.745837 58.06654 153.032069 C 62.813224 153.318302 66.200304 154.415525 71.137809 154.630199 C 75.956051 154.72561 81.299051 154.510936 87.119105 153.819208 C 92.342843 149.406462 95.372133 145.900118 96.32624 143.347881 C 97.161084 140.652528 95.96845 138.195702 92.772191 138.338818 C 89.432815 138.553492 81.656842 144.206577 76.790895 144.612073 C 71.829537 144.826747 67.273675 143.133207 63.719626 139.936948 C 60.165576 136.57372 57.780308 125.863866 55.323482 125.10058 C 52.675834 124.337294 52.031812 137.456269 48.382352 135.261822 C 44.709039 132.828849 37.076181 115.201718 33.545984 111.194467 C 29.920377 107.282628 26.795676 108.212882 27.081908 111.528405 C 27.320435 114.772369 35.02485 125.816161 35.311083 130.252759 C 35.454199 134.498536 33.188194 136.764541 28.369953 137.050773 Z M 75.359734 66.661512 C 77.100979 65.206499 79.15231 63.870748 81.656842 62.964347 C 84.065962 61.914829 87.047547 59.982761 90.029132 60.865311 C 93.058423 61.700154 96.779441 66.494543 99.212415 68.42661 C 101.454567 70.334825 103.17196 72.934767 103.434339 72.457714 C 103.505897 71.861397 101.526125 67.257829 99.856437 65.063382 C 98.019781 62.701967 94.895079 60.292846 92.963012 59.07636 C 90.98324 57.883726 89.361257 57.287409 88.097065 57.645199 C 86.403525 57.168145 84.566869 57.716757 82.44398 59.267181 C 80.321091 60.793753 77.911971 63.155168 75.359734 66.661512 Z M 75.359734 66.661512 " stroke="rgb(0%, 0%, 0%)" stroke-width="0.036" stroke-opacity="1" stroke-miterlimit="10"/><path fill="rgb(50.19989%, 50.19989%, 50.19989%)" d="M 161.257812 45.546875 C 161.789062 45.40625 162.398438 45.214844 163.105469 45.003906 C 163.816406 44.773438 164.613281 44.519531 165.492188 44.21875 C 165.582031 44.105469 165.585938 44.03125 165.535156 43.941406 C 165.492188 43.847656 165.308594 43.734375 165.191406 43.71875 C 165.085938 43.695312 164.984375 43.734375 164.890625 43.84375 L 160.882812 45.042969 C 161.003906 45.210938 161.128906 45.375 161.257812 45.546875 Z M 160.921875 44.277344 C 161.382812 44.242188 161.84375 44.226562 162.328125 44.179688 C 162.816406 44.132812 163.316406 44.078125 163.828125 44.019531 C 163.835938 43.867188 163.816406 43.757812 163.730469 43.699219 C 163.664062 43.640625 163.527344 43.605469 163.371094 43.640625 L 160.339844 43.917969 C 160.535156 44.035156 160.730469 44.15625 160.921875 44.277344 Z M 162.746094 45.980469 C 163.082031 46.113281 163.429688 46.253906 163.765625 46.40625 C 164.125 46.554688 164.449219 46.714844 164.808594 46.882812 C 164.933594 46.972656 164.980469 47.0625 164.949219 47.125 C 164.9375 47.191406 164.84375 47.242188 164.691406 47.285156 L 162.703125 46.40625 C 162.714844 46.265625 162.726562 46.125 162.746094 45.980469 Z M 162.746094 45.980469 " fill-opacity="1" fill-rule="evenodd"/><g clip-path="url(#id1)"><path fill="rgb(22.349548%, 43.528748%, 97.648621%)" d="M 177.09375 50.976562 C 177.320312 50.894531 177.472656 50.785156 177.578125 50.65625 C 177.691406 50.515625 177.714844 50.328125 177.738281 50.15625 C 177.789062 49.957031 177.84375 49.789062 177.800781 49.574219 C 177.765625 49.347656 177.644531 49.082031 177.476562 48.914062 C 177.332031 48.734375 177.125 48.652344 176.835938 48.527344 C 176.550781 48.382812 176.191406 48.226562 175.734375 48.070312 C 175.285156 47.886719 174.578125 47.699219 174.113281 47.527344 C 173.65625 47.363281 173.351562 47.203125 173.007812 47.050781 C 172.683594 46.867188 172.371094 46.675781 172.167969 46.484375 C 171.976562 46.269531 171.988281 46.253906 171.882812 45.863281 C 171.789062 45.457031 171.6875 44.890625 171.582031 44.121094 L 171.707031 46.785156 L 175.195312 48.972656 C 175.828125 49.636719 176.457031 50.304688 177.09375 50.976562 Z M 177.09375 50.976562 " fill-opacity="1" fill-rule="evenodd"/></g><g clip-path="url(#id2)"><path fill="rgb(10.198975%, 35.688782%, 100%)" d="M 171.445312 49.089844 C 171.445312 49.089844 171.394531 48.363281 171.363281 47.550781 C 171.335938 46.71875 171.222656 44.804688 171.265625 44.203125 C 171.3125 43.605469 171.53125 43.660156 171.625 43.976562 C 171.71875 44.300781 171.695312 45.597656 171.824219 46.105469 C 171.960938 46.601562 172.023438 46.679688 172.40625 46.949219 C 172.796875 47.214844 173.527344 47.472656 174.128906 47.710938 C 174.738281 47.941406 175.449219 48.097656 175.992188 48.328125 C 176.539062 48.5625 177.113281 48.742188 177.378906 49.089844 C 177.644531 49.441406 177.648438 50.085938 177.5625 50.414062 C 177.464844 50.734375 177.402344 51.023438 176.835938 51.015625 C 176.269531 51.003906 175.097656 50.675781 174.1875 50.355469 C 173.285156 50.027344 171.445312 49.089844 171.445312 49.089844 Z M 171.445312 49.089844 " fill-opacity="1" fill-rule="evenodd"/></g><path fill="rgb(12.939453%, 12.939453%, 12.939453%)" d="M 176.597656 49.554688 C 176.167969 49.453125 175.714844 49.296875 175.214844 49.054688 C 174.714844 48.804688 174.070312 48.339844 173.628906 48.109375 C 173.222656 47.855469 172.992188 47.734375 172.683594 47.628906 C 172.382812 47.527344 172.3125 47.472656 171.765625 47.46875 C 171.230469 47.4375 170.308594 47.4375 169.460938 47.46875 C 168.609375 47.480469 167.746094 47.550781 166.773438 47.585938 C 165.828125 47.613281 164.855469 47.621094 163.828125 47.628906 L 166.09375 50.191406 C 167.203125 50.210938 168.339844 50.203125 169.601562 50.175781 C 170.867188 50.132812 172.613281 50.054688 173.585938 50.015625 C 174.566406 49.960938 174.925781 49.921875 175.375 49.914062 C 175.820312 49.910156 176.09375 49.96875 176.273438 49.933594 C 176.476562 49.867188 176.597656 49.75 176.597656 49.554688 Z M 176.597656 49.554688 " fill-opacity="1" fill-rule="evenodd"/><path fill="rgb(25.099182%, 25.099182%, 25.099182%)" d="M 165.953125 50.113281 C 166.789062 50.113281 167.699219 50.085938 168.699219 50.074219 C 169.730469 50.042969 170.929688 50.003906 171.949219 49.972656 C 172.980469 49.9375 174 49.867188 174.714844 49.855469 C 175.4375 49.820312 175.84375 49.8125 176.15625 49.8125 C 176.480469 49.808594 176.492188 49.8125 176.535156 49.855469 C 176.59375 49.871094 176.652344 49.984375 176.417969 50.03125 C 176.1875 50.066406 175.773438 50.050781 175.132812 50.089844 C 174.484375 50.125 173.640625 50.171875 172.625 50.234375 C 171.636719 50.261719 170.355469 50.304688 169.242188 50.332031 C 168.152344 50.355469 167.132812 50.367188 166.113281 50.390625 C 166.058594 50.304688 166.003906 50.210938 165.953125 50.113281 Z M 165.953125 50.113281 " fill-opacity="1" fill-rule="evenodd"/><path fill="rgb(10.198975%, 35.688782%, 100%)" d="M 140.183594 39.703125 L 141.484375 51.394531 C 144.675781 51.636719 147.339844 51.847656 149.640625 52.054688 C 151.933594 52.265625 153.453125 52.460938 155.132812 52.589844 C 156.832031 52.667969 157.992188 52.703125 159.683594 52.671875 C 161.402344 52.632812 164.046875 52.542969 165.238281 52.472656 C 166.429688 52.402344 166.941406 52.347656 166.777344 52.289062 C 164.820312 50.257812 162.578125 48.433594 159.984375 46.761719 C 157.386719 45.078125 154.25 43.398438 151.324219 42.292969 C 148.414062 41.171875 144.585938 40.511719 142.6875 40.085938 C 140.820312 39.65625 140.003906 39.519531 140.183594 39.703125 Z M 140.183594 39.703125 " fill-opacity="1" fill-rule="evenodd"/><path fill="rgb(22.349548%, 43.528748%, 97.648621%)" d="M 137.0625 39.136719 C 138.34375 39.425781 139.570312 39.699219 140.8125 40.023438 C 142.082031 40.328125 143.113281 40.585938 144.5 40.984375 C 145.890625 41.347656 147.605469 41.871094 149.03125 42.308594 C 150.476562 42.734375 151.636719 42.992188 153.039062 43.589844 C 154.449219 44.191406 156.136719 45.074219 157.398438 45.875 C 158.652344 46.648438 159.449219 47.34375 160.605469 48.28125 C 161.789062 49.214844 163.589844 50.816406 164.40625 51.476562 C 165.246094 52.121094 165.101562 52.007812 165.527344 52.160156 C 165.957031 52.296875 166.6875 52.402344 166.949219 52.320312 C 167.226562 52.214844 167.226562 51.972656 167.109375 51.59375 C 166.984375 51.195312 166.742188 50.710938 166.246094 50.03125 C 165.78125 49.335938 164.914062 48.28125 164.285156 47.527344 C 163.675781 46.773438 163.300781 46.246094 162.5625 45.5625 C 161.832031 44.855469 160.941406 44.121094 159.914062 43.375 C 158.894531 42.621094 157.769531 41.859375 156.464844 41.070312 C 156.910156 40.875 157.121094 40.675781 157.125 40.492188 C 157.121094 40.300781 156.886719 40.140625 156.484375 39.949219 C 156.101562 39.734375 155.480469 39.472656 154.878906 39.308594 C 154.308594 39.113281 153.773438 39 153.015625 38.949219 C 152.257812 38.894531 151.425781 38.929688 150.410156 39.03125 C 150.304688 38.855469 150 38.75 149.492188 38.691406 C 149.003906 38.628906 148.546875 38.636719 147.398438 38.707031 C 146.238281 38.765625 144.378906 38.949219 142.625 39.03125 C 140.890625 39.097656 139.070312 39.132812 137.0625 39.136719 Z M 137.0625 39.136719 " fill-opacity="1" fill-rule="evenodd"/><path fill="rgb(50.19989%, 50.19989%, 50.19989%)" d="M 147.140625 42.238281 C 146.5625 42.78125 145.976562 43.316406 145.363281 43.871094 C 144.761719 44.425781 144.136719 44.949219 143.488281 45.511719 C 145.382812 45.609375 147.007812 45.707031 148.394531 45.792969 C 149.792969 45.871094 150.90625 45.941406 151.785156 46.007812 C 151.972656 46.101562 152.0625 46.1875 152.074219 46.296875 C 152.085938 46.394531 152.015625 46.511719 151.863281 46.625 C 149.386719 46.476562 147.445312 46.335938 145.90625 46.246094 C 144.378906 46.152344 143.367188 46.066406 142.777344 46.03125 L 142.613281 45.296875 C 143.429688 44.671875 144.144531 44.121094 144.816406 43.589844 C 145.496094 43.050781 146.066406 42.585938 146.597656 42.144531 C 146.796875 42.03125 146.9375 41.984375 147.023438 42.003906 C 147.109375 42.007812 147.15625 42.101562 147.140625 42.238281 Z M 147.140625 42.238281 " fill-opacity="1" fill-rule="evenodd"/><path fill="rgb(38.038635%, 38.038635%, 38.038635%)" d="M 127.75 32.1875 L 119.101562 28.949219 L 119.054688 30.496094 L 100.359375 31.65625 L 95.53125 30.253906 L 95.625 37.644531 C 95.765625 36.703125 96.03125 35.929688 96.445312 35.328125 C 96.878906 34.714844 97.214844 34.296875 98.089844 34.027344 C 98.953125 33.75 100.121094 33.667969 101.613281 33.730469 L 106.441406 35.28125 L 110.792969 35.085938 L 109.25 41.847656 L 113.351562 41.753906 L 113.257812 35.28125 C 115.886719 35.0625 118.128906 34.910156 120.066406 34.796875 C 122.019531 34.6875 123.574219 34.621094 124.847656 34.605469 C 125.816406 33.800781 126.78125 32.996094 127.75 32.1875 Z M 127.75 32.1875 " fill-opacity="1" fill-rule="evenodd"/><path fill="rgb(12.939453%, 12.939453%, 12.939453%)" d="M 118.957031 28.855469 L 118.859375 30.351562 L 100.117188 31.507812 L 101.707031 32.671875 L 119.535156 31.804688 L 123.785156 33.925781 L 126.585938 31.65625 Z M 112 41.703125 L 112.144531 35.46875 L 112.96875 35.328125 L 113.210938 41.945312 Z M 112 41.703125 " fill-opacity="1" fill-rule="evenodd"/><path fill="rgb(22.349548%, 43.528748%, 97.648621%)" d="M 101.226562 33.683594 L 101.464844 32.09375 C 101.417969 31.972656 101.042969 31.796875 100.359375 31.5625 C 99.664062 31.3125 98.222656 30.871094 97.363281 30.640625 C 96.539062 30.398438 95.878906 30.222656 95.382812 30.109375 L 95.476562 37.792969 C 95.648438 37.296875 95.820312 36.816406 96.058594 36.34375 C 96.289062 35.847656 96.503906 35.335938 96.878906 34.941406 C 97.28125 34.542969 97.710938 34.230469 98.425781 34.027344 C 99.15625 33.8125 100.082031 33.707031 101.226562 33.683594 Z M 101.226562 33.683594 " fill-opacity="1" fill-rule="evenodd"/><g clip-path="url(#id3)"><path fill="rgb(12.939453%, 12.939453%, 12.939453%)" d="M 104.515625 33.117188 L 97.734375 33.117188 C 96.851562 33.3125 96.132812 33.707031 95.554688 34.328125 C 94.988281 34.941406 94.597656 35.730469 94.296875 36.765625 C 94.019531 37.789062 93.832031 39.066406 93.800781 40.445312 C 93.765625 41.832031 93.832031 43.582031 94.132812 44.925781 C 94.46875 46.234375 95.160156 47.460938 95.773438 48.289062 C 96.402344 49.070312 96.921875 49.453125 97.804688 49.753906 C 98.726562 50.042969 99.816406 50.085938 101.078125 50.109375 C 102.328125 50.132812 103.71875 50.039062 105.273438 49.875 C 106.332031 48.789062 107.121094 47.703125 107.667969 46.53125 C 108.222656 45.351562 108.441406 44.066406 108.570312 42.90625 C 108.71875 41.714844 108.617188 40.523438 108.5 39.5625 C 108.394531 38.601562 108.164062 37.941406 107.882812 37.191406 C 107.609375 36.425781 107.414062 35.683594 106.84375 35.011719 C 106.269531 34.316406 105.515625 33.707031 104.515625 33.117188 Z M 104.515625 33.117188 " fill-opacity="1" fill-rule="evenodd"/></g><path fill="rgb(100%, 100%, 100%)" d="M 99.183594 48.09375 C 99.203125 48.144531 100.097656 47.402344 100.441406 46.929688 C 100.78125 46.472656 101.019531 46.011719 101.21875 45.34375 C 101.441406 44.644531 101.65625 43.699219 101.71875 42.882812 C 101.800781 42.074219 101.800781 41.285156 101.695312 40.488281 C 101.589844 39.660156 101.378906 38.640625 101.125 37.992188 C 100.878906 37.320312 100.433594 36.71875 100.300781 36.597656 C 100.203125 36.484375 100.515625 37.222656 100.488281 37.285156 C 100.464844 37.328125 100.050781 36.578125 100.109375 36.855469 C 100.199219 37.113281 100.648438 38.136719 100.839844 38.894531 C 101.046875 39.644531 101.164062 40.480469 101.21875 41.382812 C 101.273438 42.285156 101.226562 43.417969 101.101562 44.277344 C 100.984375 45.117188 100.792969 45.78125 100.464844 46.4375 C 100.140625 47.066406 99.214844 48 99.183594 48.09375 Z M 96.667969 35.105469 C 96.578125 35.300781 95.890625 35.972656 95.578125 36.597656 C 95.292969 37.199219 95.082031 37.78125 94.964844 38.753906 C 94.863281 39.734375 94.757812 41.101562 94.917969 42.355469 C 95.085938 43.59375 95.859375 45.453125 95.984375 46.105469 C 96.132812 46.730469 95.722656 45.90625 95.71875 46.105469 C 95.722656 46.28125 96.046875 47.292969 95.960938 47.195312 C 95.890625 47.066406 95.449219 46.195312 95.199219 45.464844 C 94.957031 44.714844 94.644531 43.855469 94.507812 42.859375 C 94.390625 41.84375 94.414062 40.492188 94.484375 39.515625 C 94.59375 38.511719 94.773438 37.679688 95.035156 36.996094 C 95.292969 36.296875 95.746094 35.78125 96.007812 35.457031 C 96.289062 35.132812 96.746094 34.910156 96.667969 35.105469 Z M 96.667969 35.105469 " fill-opacity="1" fill-rule="evenodd"/><path fill="rgb(0%, 0%, 0%)" d="M 100.15625 39.507812 C 100.167969 39.351562 100.105469 38.90625 99.964844 38.589844 C 99.828125 38.253906 99.625 37.882812 99.386719 37.585938 C 99.167969 37.28125 98.914062 37.007812 98.648438 36.863281 C 98.402344 36.695312 98.125 36.695312 97.839844 36.703125 C 97.574219 36.703125 97.320312 36.691406 97.03125 36.851562 C 96.75 36.992188 96.402344 37.210938 96.148438 37.570312 C 95.914062 37.90625 95.6875 38.300781 95.589844 38.9375 C 95.519531 39.566406 95.59375 41.089844 95.636719 41.335938 C 95.664062 41.546875 95.710938 40.777344 95.800781 40.316406 C 95.917969 39.839844 95.949219 38.988281 96.277344 38.542969 C 96.625 38.101562 97.273438 37.679688 97.792969 37.667969 C 98.328125 37.632812 99.015625 38.089844 99.367188 38.394531 C 99.726562 38.699219 99.785156 39.277344 99.910156 39.492188 C 100.050781 39.667969 100.15625 39.648438 100.15625 39.507812 Z M 96.707031 45.769531 C 96.886719 45.992188 97.105469 46.21875 97.363281 46.378906 C 97.628906 46.519531 97.964844 46.605469 98.28125 46.59375 C 98.640625 46.558594 99.015625 46.460938 99.351562 46.199219 C 99.6875 45.933594 100.027344 45.5625 100.242188 44.996094 C 100.46875 44.378906 100.675781 43.453125 100.699219 42.699219 C 100.746094 41.949219 100.476562 40.6875 100.453125 40.59375 C 100.441406 40.503906 100.648438 41.460938 100.570312 42.136719 C 100.503906 42.796875 100.328125 43.878906 100.039062 44.554688 C 99.746094 45.234375 99.320312 45.871094 98.878906 46.148438 C 98.464844 46.378906 97.871094 46.195312 97.546875 46.101562 C 97.25 46.023438 97.226562 45.882812 97.019531 45.675781 C 96.816406 45.441406 96.449219 44.804688 96.3125 44.71875 C 96.207031 44.613281 96.265625 44.914062 96.332031 45.097656 C 96.414062 45.28125 96.53125 45.535156 96.707031 45.769531 Z M 96.707031 45.769531 " fill-opacity="1" fill-rule="evenodd"/><path fill="rgb(50.19989%, 50.19989%, 50.19989%)" d="M 95.9375 44.011719 C 96.113281 44.496094 96.335938 44.945312 96.5625 45.292969 C 96.796875 45.644531 97.015625 45.945312 97.28125 46.148438 C 97.550781 46.335938 97.839844 46.429688 98.171875 46.429688 C 98.511719 46.417969 98.914062 46.300781 99.238281 46.054688 C 99.566406 45.78125 99.902344 45.320312 100.109375 44.832031 C 100.335938 44.3125 100.480469 43.664062 100.550781 43.046875 C 100.640625 42.410156 100.648438 41.777344 100.570312 41.152344 C 100.492188 40.5 100.335938 39.875 100.09375 39.277344 C 99.84375 38.679688 99.4375 38.03125 99.121094 37.652344 C 98.832031 37.273438 98.570312 37.152344 98.316406 37.027344 C 98.082031 36.875 97.910156 36.816406 97.644531 36.851562 C 97.386719 36.886719 97.097656 36.992188 96.804688 37.257812 C 96.53125 37.511719 96.191406 37.851562 95.984375 38.378906 C 95.789062 38.890625 95.699219 39.652344 95.625 40.316406 C 95.570312 40.984375 95.566406 41.667969 95.605469 42.304688 C 95.664062 42.933594 95.78125 43.480469 95.9375 44.011719 Z M 95.9375 44.011719 " fill-opacity="1" fill-rule="evenodd"/><path fill="rgb(38.038635%, 38.038635%, 38.038635%)" d="M 98.660156 45.742188 C 98.382812 45.800781 98.117188 45.769531 97.839844 45.605469 C 97.582031 45.429688 97.28125 45.1875 97.050781 44.785156 C 96.832031 44.378906 96.636719 43.855469 96.492188 43.210938 C 96.367188 42.546875 96.261719 41.65625 96.261719 40.90625 C 96.277344 40.128906 96.433594 39.230469 96.5625 38.71875 C 96.703125 38.210938 96.878906 38.082031 97.117188 37.898438 C 97.386719 37.699219 97.8125 37.570312 98.070312 37.605469 C 98.335938 37.628906 98.53125 37.78125 98.679688 38.066406 C 98.394531 38.246094 98.199219 38.5 98.003906 38.800781 C 97.828125 39.097656 97.710938 39.449219 97.628906 39.886719 C 97.546875 40.324219 97.546875 40.777344 97.5625 41.382812 C 97.605469 41.960938 97.707031 42.929688 97.839844 43.421875 C 97.988281 43.90625 98.125 44.019531 98.382812 44.324219 C 98.671875 44.632812 99.316406 45.152344 99.402344 45.199219 C 99.480469 45.1875 99.015625 44.695312 98.824219 44.457031 C 98.648438 44.214844 98.472656 44.15625 98.320312 43.847656 C 98.171875 43.535156 97.980469 43.070312 97.886719 42.632812 C 97.804688 42.179688 97.8125 41.648438 97.792969 41.199219 C 97.789062 40.746094 97.753906 40.300781 97.824219 39.921875 C 97.910156 39.519531 98.042969 39.144531 98.234375 38.855469 C 98.441406 38.546875 98.683594 38.300781 99.007812 38.113281 C 98.789062 37.792969 98.589844 37.574219 98.320312 37.457031 C 98.082031 37.320312 97.769531 37.285156 97.492188 37.375 C 97.203125 37.464844 96.898438 37.679688 96.636719 38.027344 C 96.398438 38.382812 96.191406 38.835938 96.066406 39.414062 C 95.972656 39.980469 95.960938 40.707031 95.984375 41.367188 C 96.011719 42.007812 96.113281 42.691406 96.214844 43.257812 C 96.324219 43.789062 96.480469 44.253906 96.671875 44.65625 C 96.898438 45.050781 97.269531 45.417969 97.492188 45.640625 C 97.730469 45.847656 97.910156 45.933594 98.089844 45.953125 C 98.289062 45.964844 98.472656 45.894531 98.660156 45.742188 Z M 98.660156 45.742188 " fill-opacity="1" fill-rule="evenodd"/><path fill="rgb(12.939453%, 12.939453%, 12.939453%)" d="M 99.171875 40.117188 L 99.054688 38.558594 C 98.941406 38.535156 98.859375 38.589844 98.742188 38.71875 C 98.628906 38.847656 98.546875 39.019531 98.429688 39.296875 L 99.089844 40.1875 C 99.113281 40.164062 99.144531 40.140625 99.171875 40.117188 Z M 98.941406 40.28125 L 98.320312 39.542969 C 98.242188 39.621094 98.195312 39.726562 98.152344 39.839844 C 98.125 39.949219 98.117188 40.070312 98.136719 40.214844 L 98.730469 40.839844 C 98.726562 40.699219 98.75 40.59375 98.777344 40.5 C 98.820312 40.398438 98.867188 40.335938 98.941406 40.28125 Z M 98.695312 41.105469 L 98.105469 40.5 C 98.046875 40.746094 98.035156 41.007812 98.023438 41.253906 C 98.035156 41.496094 98.046875 41.75 98.105469 41.992188 L 98.730469 41.546875 C 98.71875 41.402344 98.707031 41.253906 98.695312 41.105469 Z M 98.761719 41.714844 C 98.777344 41.824219 98.808594 41.925781 98.824219 42.039062 C 98.855469 42.132812 98.894531 42.234375 98.925781 42.339844 L 98.253906 43.027344 C 98.230469 42.894531 98.195312 42.769531 98.171875 42.632812 C 98.148438 42.484375 98.128906 42.351562 98.117188 42.203125 C 98.328125 42.042969 98.542969 41.878906 98.761719 41.714844 Z M 99.007812 42.582031 L 98.429688 43.195312 C 98.496094 43.394531 98.570312 43.546875 98.660156 43.71875 C 98.765625 43.871094 98.855469 44.011719 98.992188 44.144531 L 99.253906 42.796875 C 99.171875 42.726562 99.089844 42.65625 99.007812 42.582031 Z M 99.433594 42.910156 C 99.414062 43.183594 99.378906 43.398438 99.351562 43.636719 C 99.320312 43.855469 99.296875 44.042969 99.253906 44.226562 C 99.332031 44.308594 99.433594 44.378906 99.53125 44.4375 C 99.632812 44.480469 99.757812 44.515625 99.878906 44.519531 L 100.15625 43.601562 L 99.992188 42.945312 C 99.820312 43.011719 99.699219 43.050781 99.597656 43.046875 C 99.503906 43.039062 99.457031 42.988281 99.433594 42.910156 Z M 99.351562 40.117188 L 99.320312 38.707031 C 99.410156 38.699219 99.503906 38.730469 99.578125 38.773438 C 99.664062 38.8125 99.726562 38.882812 99.796875 38.984375 L 100.039062 39.574219 C 99.988281 39.703125 99.945312 39.828125 99.890625 39.96875 C 99.84375 40.109375 99.808594 40.246094 99.761719 40.398438 C 99.679688 40.339844 99.605469 40.269531 99.53125 40.234375 C 99.472656 40.175781 99.398438 40.152344 99.351562 40.117188 Z M 99.84375 40.417969 L 100.128906 39.957031 L 100.257812 40.675781 Z M 99.746094 41.007812 C 99.863281 41.152344 100.023438 41.371094 100.039062 41.613281 C 100.070312 41.835938 99.976562 42.246094 99.84375 42.355469 C 99.722656 42.4375 99.433594 42.320312 99.273438 42.136719 C 99.136719 41.910156 98.996094 41.417969 99.007812 41.171875 C 99.054688 40.910156 99.332031 40.777344 99.449219 40.742188 C 99.582031 40.710938 99.65625 40.851562 99.746094 41.007812 Z M 99.746094 41.007812 " fill-opacity="1" fill-rule="evenodd"/><path fill="rgb(50.19989%, 50.19989%, 50.19989%)" d="M 99.617188 41.285156 C 99.703125 41.34375 99.769531 41.632812 99.761719 41.761719 C 99.757812 41.878906 99.632812 42.015625 99.550781 41.960938 C 99.480469 41.871094 99.320312 41.484375 99.320312 41.367188 C 99.351562 41.246094 99.539062 41.210938 99.617188 41.285156 Z M 99.617188 41.285156 " fill-opacity="1" fill-rule="evenodd"/><path fill="rgb(0%, 0%, 0%)" d="M 107.351562 46.453125 C 107.257812 46.738281 107.042969 47.132812 106.691406 47.6875 C 106.34375 48.222656 105.859375 48.894531 105.238281 49.703125 L 100.191406 49.796875 C 100.839844 49.347656 101.355469 48.792969 101.730469 48.109375 C 102.121094 47.425781 102.320312 46.742188 102.492188 45.691406 C 102.675781 44.609375 102.714844 42.113281 102.847656 41.761719 C 103.003906 41.417969 103.164062 43.480469 103.394531 43.628906 C 103.640625 43.746094 104.0625 42.234375 104.265625 42.585938 C 104.484375 42.953125 104.4375 45.34375 104.652344 45.765625 C 104.878906 46.140625 105.363281 44.851562 105.601562 44.890625 C 105.839844 44.933594 105.792969 45.703125 106.070312 45.980469 C 106.367188 46.234375 106.785156 46.402344 107.351562 46.453125 Z M 101.566406 36.289062 C 101.300781 35.78125 100.929688 35.347656 100.476562 34.910156 C 100.003906 34.4375 99.351562 33.761719 98.765625 33.535156 C 98.199219 33.308594 97.640625 33.332031 97.109375 33.511719 C 96.601562 33.671875 95.636719 34.449219 95.6875 34.507812 C 95.761719 34.53125 96.875 33.800781 97.488281 33.796875 C 98.113281 33.796875 98.738281 33.996094 99.410156 34.554688 C 100.121094 35.097656 101.128906 36.230469 101.613281 37.042969 C 102.113281 37.851562 102.210938 39.171875 102.304688 39.351562 C 102.398438 39.480469 102.351562 38.488281 102.210938 37.96875 C 102.097656 37.441406 101.863281 36.804688 101.566406 36.289062 Z M 101.566406 36.289062 " fill-opacity="1" fill-rule="evenodd"/><path fill="rgb(22.349548%, 43.528748%, 97.648621%)" d="M 145.914062 39.238281 C 145.257812 38.84375 144.246094 38.265625 142.871094 37.503906 C 141.484375 36.71875 139.800781 35.800781 137.699219 34.652344 C 137.6875 34.085938 137.511719 33.667969 137.121094 33.394531 C 136.738281 33.117188 136.191406 32.988281 135.429688 33.007812 L 135.1875 32.429688 C 135.625 32.511719 135.980469 32.511719 136.25 32.429688 C 136.546875 32.34375 136.796875 32.273438 136.828125 31.898438 C 136.863281 31.484375 136.546875 30.578125 136.398438 30.0625 C 136.28125 29.546875 136.179688 29.097656 136.007812 28.808594 C 135.835938 28.496094 135.914062 28.324219 135.332031 28.226562 C 134.730469 28.101562 133.667969 27.972656 132.53125 28.128906 C 131.421875 28.265625 130.164062 28.566406 128.714844 29.097656 C 127.257812 29.617188 125.359375 30.394531 123.882812 31.273438 C 122.429688 32.132812 121.152344 33.367188 120.019531 34.269531 C 118.894531 35.140625 118.003906 35.835938 117.167969 36.585938 C 116.363281 37.332031 116 38.0625 115.089844 38.707031 C 114.183594 39.3125 113.398438 39.890625 111.710938 40.304688 C 110.03125 40.707031 107.855469 40.972656 105.089844 41.125 L 105.140625 48.324219 L 125.191406 51.753906 C 126.128906 51.507812 127.273438 51.3125 128.714844 51.121094 C 130.160156 50.933594 131.835938 50.78125 133.785156 50.640625 L 134.128906 39.480469 C 137.3125 39.421875 139.816406 39.375 141.804688 39.335938 C 143.777344 39.300781 145.140625 39.261719 145.914062 39.238281 Z M 110.550781 47.550781 L 110.40625 45.375 L 109.921875 44.117188 L 114.414062 44.554688 L 114.511719 47.113281 Z M 110.550781 47.550781 " fill-opacity="1" fill-rule="evenodd"/><path fill="rgb(12.939453%, 12.939453%, 12.939453%)" d="M 143.355469 39 C 142.953125 38.835938 142.304688 38.496094 141.320312 37.886719 C 140.34375 37.285156 139.117188 36.472656 137.554688 35.421875 C 137.507812 34.910156 137.417969 34.515625 137.265625 34.214844 C 137.128906 33.914062 136.980469 33.789062 136.6875 33.636719 C 136.414062 33.460938 135.914062 33.175781 135.574219 33.199219 C 135.234375 33.207031 134.894531 33.511719 134.660156 33.730469 C 134.429688 33.929688 134.300781 34.171875 134.222656 34.457031 L 132.917969 35.375 L 132.964844 37.550781 C 133.289062 37.703125 133.613281 37.90625 134.027344 38.175781 C 134.429688 38.4375 134.886719 38.765625 135.382812 39.144531 Z M 136.25 30.546875 C 136.132812 30.140625 135.996094 29.691406 135.867188 29.386719 C 135.761719 29.066406 135.738281 28.742188 135.574219 28.707031 C 135.414062 28.636719 135.160156 28.691406 134.949219 29.097656 C 134.753906 29.511719 134.523438 30.671875 134.464844 31.171875 C 134.441406 31.644531 134.550781 31.804688 134.753906 31.992188 C 134.984375 32.167969 135.417969 32.257812 135.71875 32.234375 C 136.039062 32.1875 136.4375 32.035156 136.539062 31.75 C 136.640625 31.449219 136.367188 30.941406 136.25 30.546875 Z M 136.25 30.546875 " fill-opacity="1" fill-rule="evenodd"/><path fill="rgb(10.198975%, 35.688782%, 100%)" d="M 134.175781 32.671875 C 133.539062 32.5625 133.03125 32.515625 132.628906 32.527344 C 132.242188 32.527344 131.957031 32.597656 131.804688 32.71875 L 128.808594 34.554688 L 133.402344 34.410156 C 133.433594 33.992188 133.519531 33.636719 133.644531 33.347656 C 133.792969 33.046875 133.9375 32.828125 134.175781 32.671875 Z M 131.90625 35.421875 L 124.800781 35.039062 C 126.398438 35.070312 127.777344 35.246094 129.050781 35.617188 C 130.320312 35.976562 131.390625 36.507812 132.335938 37.210938 C 132.195312 36.613281 132.050781 36.019531 131.90625 35.421875 Z M 128.761719 39.820312 C 127.03125 39.4375 125.402344 39.109375 123.789062 38.808594 C 122.1875 38.511719 120.667969 38.246094 119.199219 38.035156 C 119.484375 37.710938 119.75 37.402344 120.019531 37.066406 C 120.296875 36.726562 120.539062 36.394531 120.792969 36.054688 L 118.375 35.953125 C 117.972656 36.179688 117.644531 36.460938 117.3125 36.828125 C 117.007812 37.167969 116.953125 37.667969 116.496094 38.082031 C 116.035156 38.488281 115.425781 38.882812 114.609375 39.289062 C 115.25 39.296875 116.015625 39.367188 116.929688 39.480469 C 117.863281 39.585938 119.90625 40.164062 120.066406 39.960938 C 120.195312 39.75 119.476562 39.195312 117.796875 38.277344 C 119.59375 38.542969 121.375 38.777344 123.210938 39.050781 C 125.054688 39.3125 126.882812 39.550781 128.761719 39.820312 Z M 128.761719 39.820312 " fill-opacity="1" fill-rule="evenodd"/><path fill="rgb(38.038635%, 38.038635%, 38.038635%)" d="M 114.320312 47.207031 L 114.078125 44.695312 L 110.066406 44.554688 L 108.617188 40.742188 C 109.621094 40.640625 110.429688 40.535156 111.128906 40.398438 C 111.84375 40.261719 112.285156 40.082031 112.773438 39.914062 C 113.269531 39.746094 113.699219 39.527344 114.066406 39.324219 C 114.054688 39.84375 114.128906 40.273438 114.320312 40.6875 C 114.527344 41.082031 114.785156 41.414062 115.1875 41.703125 L 115.238281 47.019531 C 114.933594 47.078125 114.625 47.144531 114.320312 47.207031 Z M 114.320312 47.207031 " fill-opacity="1" fill-rule="evenodd"/><path fill="rgb(50.19989%, 50.19989%, 50.19989%)" d="M 114.03125 42.183594 C 112.425781 41.957031 111.265625 41.753906 110.453125 41.609375 C 109.65625 41.449219 109.253906 41.335938 109.25 41.273438 L 109.34375 40.835938 C 109.785156 40.804688 110.355469 40.804688 111.082031 40.835938 C 111.8125 40.851562 112.671875 40.898438 113.6875 40.976562 C 113.8125 41.101562 113.851562 41.175781 113.835938 41.273438 C 113.828125 41.359375 113.742188 41.402344 113.59375 41.460938 L 111.949219 41.320312 L 113.929688 41.703125 C 113.960938 41.859375 113.996094 42.019531 114.03125 42.183594 Z M 113.929688 43.394531 C 113.375 43.441406 112.757812 43.457031 112.097656 43.492188 C 111.429688 43.523438 110.746094 43.523438 109.972656 43.542969 L 110.066406 44.070312 C 110.632812 44.160156 111.253906 44.226562 111.949219 44.265625 C 112.636719 44.296875 113.40625 44.320312 114.222656 44.3125 C 114.5 43.976562 114.613281 43.734375 114.5625 43.589844 C 114.519531 43.429688 114.300781 43.363281 113.929688 43.394531 Z M 113.929688 43.394531 " fill-opacity="1" fill-rule="evenodd"/><path fill="rgb(12.939453%, 12.939453%, 12.939453%)" d="M 132.289062 42.667969 L 125.527344 42.863281 L 115.042969 41.847656 L 115.089844 46.972656 L 112 47.355469 L 110.597656 47.457031 L 110.550781 45.570312 L 108.859375 40.742188 C 108.554688 40.753906 108.109375 40.800781 107.507812 40.835938 C 106.917969 40.871094 106.171875 40.917969 105.285156 40.976562 L 108.46875 45.570312 L 108.375 48.5625 C 109.84375 48.722656 111.929688 49.03125 114.707031 49.484375 C 117.503906 49.945312 120.886719 50.507812 124.996094 51.269531 C 125.226562 51.199219 125.949219 51.09375 127.21875 50.929688 C 128.496094 50.761719 130.253906 50.5625 132.578125 50.304688 C 132.484375 47.761719 132.390625 45.214844 132.289062 42.667969 Z M 132.289062 42.667969 " fill-opacity="1" fill-rule="evenodd"/><path fill="rgb(0%, 0%, 0%)" d="M 149.96875 39.097656 L 149.96875 38.464844 C 149.484375 38.511719 149.15625 38.464844 148.957031 38.324219 C 148.765625 38.164062 148.726562 37.765625 148.808594 37.597656 C 148.894531 37.410156 148.925781 37.375 149.484375 37.308594 C 150.085938 37.238281 151.726562 37.089844 152.285156 37.210938 C 152.828125 37.320312 152.875 37.777344 152.769531 37.980469 C 152.691406 38.160156 152.152344 38.289062 151.753906 38.371094 C 151.378906 38.453125 150.9375 38.476562 150.453125 38.464844 L 150.40625 39.097656 Z M 149.96875 39.097656 " fill-opacity="1" fill-rule="evenodd"/><path stroke-linecap="butt" transform="matrix(-0.163766, 0, 0, 0.163766, 177.802274, 28.071415)" fill-opacity="1" fill="rgb(0%, 0%, 0%)" fill-rule="evenodd" stroke-linejoin="miter" d="M 239.585441 67.901851 C 238.869861 65.421173 239.39462 63.79919 241.064308 62.892789 C 242.757848 62.057945 245.739433 62.415735 249.579715 62.606556 C 253.300733 62.558851 260.933591 62.391882 263.15189 63.179021 C 265.274779 63.966159 265.131663 65.445025 262.579426 67.615619 C 254.922715 67.687177 247.242152 67.782588 239.585441 67.901851 Z M 239.585441 67.901851 " stroke="rgb(0%, 0%, 0%)" stroke-width="0.036" stroke-opacity="1" stroke-miterlimit="10"/><path fill="rgb(22.349548%, 43.528748%, 97.648621%)" d="M 125.519531 45.828125 C 125.554688 45.527344 125.496094 45.28125 125.34375 45.09375 C 125.195312 44.902344 124.964844 44.792969 124.664062 44.757812 C 124.351562 44.71875 124.105469 44.78125 123.921875 44.925781 C 123.734375 45.074219 123.621094 45.292969 123.585938 45.597656 C 123.5625 45.8125 123.582031 45.992188 123.640625 46.140625 C 123.691406 46.292969 123.785156 46.414062 123.917969 46.507812 C 124.046875 46.601562 124.21875 46.660156 124.421875 46.683594 C 124.636719 46.707031 124.8125 46.691406 124.953125 46.636719 C 125.101562 46.589844 125.226562 46.496094 125.332031 46.359375 C 125.433594 46.222656 125.496094 46.046875 125.519531 45.828125 Z M 124.941406 45.765625 C 124.917969 45.953125 124.871094 46.089844 124.796875 46.160156 C 124.710938 46.234375 124.613281 46.265625 124.496094 46.246094 C 124.363281 46.234375 124.277344 46.1875 124.21875 46.101562 C 124.160156 46.011719 124.140625 45.859375 124.164062 45.652344 C 124.183594 45.476562 124.234375 45.351562 124.316406 45.28125 C 124.394531 45.210938 124.496094 45.179688 124.617188 45.191406 C 124.730469 45.203125 124.820312 45.257812 124.882812 45.34375 C 124.941406 45.441406 124.964844 45.574219 124.941406 45.765625 Z M 122.023438 45.605469 C 121.851562 45.632812 121.675781 45.664062 121.5 45.699219 C 121.515625 45.839844 121.558594 45.964844 121.617188 46.070312 C 121.683594 46.171875 121.765625 46.257812 121.863281 46.316406 C 121.964844 46.378906 122.101562 46.417969 122.273438 46.4375 C 122.472656 46.460938 122.644531 46.453125 122.777344 46.402344 C 122.914062 46.359375 123.03125 46.269531 123.144531 46.128906 C 123.257812 45.992188 123.328125 45.8125 123.351562 45.574219 C 123.386719 45.269531 123.328125 45.019531 123.1875 44.839844 C 123.039062 44.65625 122.8125 44.542969 122.519531 44.515625 C 122.285156 44.484375 122.09375 44.507812 121.949219 44.589844 C 121.800781 44.667969 121.6875 44.804688 121.601562 44.996094 C 121.765625 45.050781 121.929688 45.105469 122.09375 45.164062 C 122.117188 45.109375 122.140625 45.070312 122.164062 45.042969 C 122.203125 45.007812 122.242188 44.980469 122.296875 44.960938 C 122.34375 44.945312 122.394531 44.9375 122.453125 44.945312 C 122.585938 44.957031 122.679688 45.019531 122.738281 45.132812 C 122.777344 45.214844 122.789062 45.339844 122.773438 45.511719 C 122.75 45.71875 122.703125 45.851562 122.632812 45.921875 C 122.5625 45.988281 122.46875 46.019531 122.355469 46.007812 C 122.242188 45.992188 122.167969 45.953125 122.113281 45.882812 C 122.066406 45.816406 122.035156 45.722656 122.023438 45.605469 Z M 120.042969 45.839844 L 120.699219 45.910156 C 120.714844 46.015625 120.734375 46.125 120.757812 46.230469 L 121.347656 46.300781 C 121.1875 45.652344 121.023438 45.003906 120.855469 44.355469 L 120.226562 44.285156 C 119.925781 44.875 119.617188 45.46875 119.3125 46.066406 L 119.917969 46.136719 C 119.960938 46.042969 120.003906 45.941406 120.042969 45.839844 Z M 120.214844 45.453125 C 120.304688 45.238281 120.398438 45.019531 120.492188 44.804688 C 120.53125 45.03125 120.574219 45.261719 120.621094 45.5 C 120.484375 45.488281 120.351562 45.46875 120.214844 45.453125 Z M 119.347656 44.183594 C 119.160156 44.167969 118.96875 44.144531 118.777344 44.117188 C 118.722656 44.585938 118.671875 45.050781 118.609375 45.523438 C 118.316406 45.492188 118.015625 45.457031 117.714844 45.421875 C 117.695312 45.570312 117.679688 45.722656 117.660156 45.875 C 118.152344 45.929688 118.640625 45.988281 119.136719 46.046875 C 119.207031 45.429688 119.277344 44.808594 119.347656 44.183594 Z M 117.4375 43.871094 L 117.3125 45.816406 L 115.042969 45.609375 L 115.042969 43.664062 Z M 117.4375 43.871094 " fill-opacity="1" fill-rule="evenodd"/><path stroke-linecap="butt" transform="matrix(-0.163766, 0, 0, 0.163766, 177.802274, 28.071415)" fill-opacity="1" fill="rgb(22.349548%, 43.528748%, 97.648621%)" fill-rule="evenodd" stroke-linejoin="miter" d="M 314.93606 102.416681 L 294.375049 101.414868 L 294.875956 112.792597 L 316.152547 114.295316 Z M 314.93606 102.416681 " stroke="rgb(0%, 0%, 0%)" stroke-width="0.036" stroke-opacity="1" stroke-miterlimit="10"/><path fill="rgb(22.349548%, 43.528748%, 97.648621%)" d="M 129.273438 47.15625 L 125.957031 47.398438 L 115.015625 46.183594 L 114.929688 46.75 L 125.671875 48.128906 L 129.199219 47.960938 Z M 129.273438 47.15625 " fill-opacity="1" fill-rule="evenodd"/><path fill="rgb(12.939453%, 12.939453%, 12.939453%)" d="M 139.679688 39.15625 L 132.902344 39.15625 C 132.015625 39.351562 131.296875 39.746094 130.71875 40.363281 C 130.15625 40.976562 129.765625 41.765625 129.464844 42.804688 C 129.1875 43.824219 129 45.105469 128.96875 46.484375 C 128.933594 47.867188 129 49.621094 129.300781 50.964844 C 129.636719 52.273438 130.332031 53.5 130.933594 54.324219 C 131.550781 55.109375 132.09375 55.492188 132.972656 55.792969 C 133.890625 56.074219 134.984375 56.132812 136.246094 56.152344 C 137.496094 56.175781 138.886719 56.085938 140.441406 55.910156 C 141.496094 54.824219 142.289062 53.742188 142.835938 52.566406 C 143.390625 51.386719 143.609375 50.101562 143.738281 48.941406 C 143.886719 47.75 143.785156 46.558594 143.667969 45.597656 C 143.554688 44.636719 143.34375 43.976562 143.054688 43.230469 C 142.789062 42.460938 142.578125 41.71875 142.011719 41.046875 C 141.4375 40.351562 140.683594 39.746094 139.679688 39.15625 Z M 139.679688 39.15625 " fill-opacity="1" fill-rule="evenodd"/><path fill="rgb(100%, 100%, 100%)" d="M 134.351562 54.136719 C 134.371094 54.1875 135.265625 53.445312 135.609375 52.972656 C 135.949219 52.503906 136.183594 52.046875 136.386719 51.382812 C 136.609375 50.679688 136.820312 49.738281 136.886719 48.917969 C 136.96875 48.109375 136.96875 47.320312 136.863281 46.523438 C 136.757812 45.699219 136.546875 44.679688 136.292969 44.03125 C 136.042969 43.359375 135.601562 42.757812 135.464844 42.632812 C 135.371094 42.519531 135.683594 43.257812 135.65625 43.324219 C 135.625 43.363281 135.222656 42.617188 135.273438 42.894531 C 135.355469 43.152344 135.820312 44.171875 136.007812 44.933594 C 136.214844 45.699219 136.332031 46.5 136.386719 47.425781 C 136.4375 48.335938 136.390625 49.449219 136.269531 50.316406 C 136.148438 51.152344 135.960938 51.820312 135.632812 52.472656 C 135.308594 53.109375 134.382812 54.035156 134.351562 54.136719 Z M 131.835938 41.140625 C 131.746094 41.335938 131.054688 42.007812 130.742188 42.632812 C 130.460938 43.234375 130.25 43.820312 130.132812 44.792969 C 130.03125 45.769531 129.925781 47.136719 130.082031 48.394531 C 130.253906 49.632812 131.027344 51.488281 131.152344 52.144531 C 131.296875 52.769531 130.890625 51.941406 130.886719 52.144531 C 130.890625 52.320312 131.214844 53.328125 131.128906 53.234375 C 131.054688 53.105469 130.613281 52.230469 130.367188 51.5 C 130.125 50.75 129.8125 49.890625 129.675781 48.894531 C 129.558594 47.878906 129.582031 46.53125 129.652344 45.550781 C 129.757812 44.542969 129.941406 43.730469 130.203125 43.039062 C 130.460938 42.34375 130.914062 41.8125 131.175781 41.496094 C 131.457031 41.152344 131.910156 40.953125 131.835938 41.140625 Z M 131.835938 41.140625 " fill-opacity="1" fill-rule="evenodd"/><path fill="rgb(0%, 0%, 0%)" d="M 135.324219 45.546875 C 135.335938 45.367188 135.273438 44.957031 135.128906 44.625 C 134.996094 44.296875 134.792969 43.902344 134.550781 43.625 C 134.335938 43.335938 134.082031 43.035156 133.816406 42.90625 C 133.566406 42.75 133.289062 42.726562 133.007812 42.738281 C 132.742188 42.722656 132.488281 42.738281 132.199219 42.886719 C 131.917969 43.015625 131.570312 43.257812 131.316406 43.613281 C 131.082031 43.953125 130.855469 44.332031 130.753906 44.972656 C 130.683594 45.605469 130.761719 47.125 130.804688 47.375 C 130.832031 47.585938 130.878906 46.8125 130.96875 46.351562 C 131.085938 45.875 131.117188 45.027344 131.445312 44.578125 C 131.792969 44.136719 132.441406 43.71875 132.960938 43.707031 C 133.496094 43.671875 134.179688 44.125 134.535156 44.429688 C 134.894531 44.730469 134.953125 45.332031 135.078125 45.535156 C 135.21875 45.691406 135.324219 45.703125 135.324219 45.546875 Z M 131.875 51.808594 C 132.050781 52.023438 132.269531 52.265625 132.53125 52.421875 C 132.796875 52.566406 133.132812 52.636719 133.449219 52.632812 C 133.808594 52.597656 134.179688 52.496094 134.515625 52.238281 C 134.851562 51.972656 135.195312 51.601562 135.40625 51.035156 C 135.636719 50.414062 135.84375 49.488281 135.867188 48.734375 C 135.914062 47.988281 135.644531 46.726562 135.621094 46.628906 C 135.609375 46.542969 135.8125 47.496094 135.738281 48.175781 C 135.671875 48.816406 135.496094 49.925781 135.207031 50.59375 C 134.910156 51.265625 134.488281 51.917969 134.046875 52.191406 C 133.632812 52.425781 133.039062 52.21875 132.714844 52.136719 C 132.417969 52.0625 132.394531 51.917969 132.1875 51.710938 C 131.980469 51.476562 131.617188 50.839844 131.480469 50.757812 C 131.375 50.652344 131.433594 50.953125 131.5 51.136719 C 131.582031 51.316406 131.699219 51.570312 131.875 51.808594 Z M 131.875 51.808594 " fill-opacity="1" fill-rule="evenodd"/><path fill="rgb(50.19989%, 50.19989%, 50.19989%)" d="M 131.101562 50.050781 C 131.28125 50.558594 131.503906 50.964844 131.726562 51.335938 C 131.964844 51.6875 132.183594 51.988281 132.449219 52.191406 C 132.71875 52.378906 133.007812 52.480469 133.339844 52.46875 C 133.679688 52.457031 134.082031 52.335938 134.40625 52.089844 C 134.734375 51.8125 135.070312 51.375 135.277344 50.875 C 135.5 50.34375 135.648438 49.703125 135.71875 49.082031 C 135.808594 48.445312 135.8125 47.816406 135.738281 47.191406 C 135.660156 46.535156 135.5 45.910156 135.261719 45.316406 C 135.011719 44.714844 134.605469 44.066406 134.289062 43.6875 C 134 43.300781 133.738281 43.199219 133.484375 43.070312 C 133.253906 42.910156 133.0625 42.859375 132.808594 42.886719 C 132.558594 42.921875 132.257812 43.027344 131.96875 43.300781 C 131.699219 43.554688 131.355469 43.894531 131.152344 44.414062 C 130.957031 44.925781 130.867188 45.6875 130.792969 46.355469 C 130.738281 47.019531 130.734375 47.703125 130.773438 48.339844 C 130.832031 48.972656 130.949219 49.519531 131.105469 50.050781 Z M 131.101562 50.050781 " fill-opacity="1" fill-rule="evenodd"/><path fill="rgb(38.038635%, 38.038635%, 38.038635%)" d="M 133.828125 51.777344 C 133.550781 51.855469 133.285156 51.796875 133.007812 51.648438 C 132.75 51.476562 132.449219 51.21875 132.21875 50.824219 C 132 50.414062 131.804688 49.890625 131.65625 49.25 C 131.535156 48.582031 131.429688 47.691406 131.429688 46.941406 C 131.445312 46.1875 131.597656 45.257812 131.730469 44.761719 C 131.871094 44.261719 132.046875 44.113281 132.28125 43.9375 C 132.554688 43.734375 132.976562 43.605469 133.238281 43.640625 C 133.503906 43.664062 133.699219 43.820312 133.84375 44.101562 C 133.5625 44.300781 133.367188 44.519531 133.171875 44.84375 C 132.996094 45.140625 132.878906 45.492188 132.796875 45.929688 C 132.714844 46.34375 132.714844 46.832031 132.730469 47.421875 C 132.773438 48 132.871094 48.964844 133.007812 49.460938 C 133.15625 49.945312 133.289062 50.054688 133.550781 50.363281 C 133.839844 50.667969 134.480469 51.1875 134.570312 51.234375 C 134.648438 51.222656 134.179688 50.734375 133.992188 50.492188 C 133.816406 50.25 133.640625 50.191406 133.484375 49.886719 C 133.339844 49.574219 133.148438 49.105469 133.054688 48.671875 C 132.972656 48.210938 132.976562 47.699219 132.960938 47.242188 C 132.953125 46.785156 132.917969 46.347656 132.992188 45.957031 C 133.078125 45.558594 133.207031 45.179688 133.402344 44.890625 C 133.609375 44.578125 133.851562 44.355469 134.175781 44.15625 C 133.957031 43.835938 133.757812 43.625 133.484375 43.496094 C 133.25 43.339844 132.9375 43.328125 132.660156 43.410156 C 132.371094 43.496094 132.066406 43.734375 131.804688 44.070312 C 131.5625 44.414062 131.355469 44.875 131.234375 45.453125 C 131.140625 46.015625 131.128906 46.742188 131.152344 47.402344 C 131.179688 48.046875 131.28125 48.730469 131.378906 49.296875 C 131.492188 49.824219 131.644531 50.292969 131.839844 50.691406 C 132.066406 51.085938 132.4375 51.453125 132.660156 51.675781 C 132.894531 51.882812 133.078125 51.972656 133.253906 51.988281 C 133.457031 52 133.636719 51.929688 133.828125 51.777344 Z M 133.828125 51.777344 " fill-opacity="1" fill-rule="evenodd"/><path fill="rgb(12.939453%, 12.939453%, 12.939453%)" d="M 134.339844 46.160156 L 134.222656 44.597656 C 134.109375 44.585938 134.027344 44.632812 133.910156 44.761719 C 133.796875 44.886719 133.714844 45.066406 133.597656 45.332031 L 134.257812 46.222656 Z M 134.109375 46.316406 L 133.484375 45.582031 C 133.410156 45.65625 133.363281 45.765625 133.320312 45.875 C 133.289062 45.988281 133.285156 46.105469 133.300781 46.253906 L 133.898438 46.878906 C 133.890625 46.738281 133.914062 46.628906 133.945312 46.535156 C 133.988281 46.4375 134.035156 46.371094 134.109375 46.316406 Z M 133.863281 47.144531 L 133.273438 46.535156 C 133.214844 46.785156 133.203125 47.042969 133.191406 47.289062 C 133.203125 47.53125 133.214844 47.785156 133.273438 48.027344 L 133.898438 47.585938 C 133.886719 47.4375 133.875 47.289062 133.863281 47.144531 Z M 133.925781 47.75 C 133.945312 47.855469 133.976562 47.976562 133.992188 48.082031 C 134.023438 48.175781 134.0625 48.28125 134.09375 48.375 L 133.421875 49.066406 C 133.398438 48.929688 133.363281 48.804688 133.335938 48.671875 C 133.3125 48.535156 133.296875 48.394531 133.285156 48.246094 C 133.496094 48.082031 133.710938 47.914062 133.925781 47.75 Z M 134.175781 48.625 L 133.597656 49.230469 C 133.664062 49.429688 133.738281 49.585938 133.828125 49.753906 C 133.933594 49.914062 134.023438 50.050781 134.15625 50.1875 L 134.421875 48.835938 Z M 134.597656 48.949219 C 134.582031 49.21875 134.546875 49.4375 134.515625 49.671875 C 134.488281 49.890625 134.464844 50.078125 134.421875 50.261719 C 134.5 50.355469 134.597656 50.421875 134.699219 50.480469 C 134.800781 50.523438 134.921875 50.558594 135.046875 50.5625 L 135.324219 49.636719 L 135.160156 48.984375 C 134.988281 49.046875 134.863281 49.089844 134.765625 49.082031 C 134.671875 49.078125 134.625 49.023438 134.597656 48.949219 Z M 134.515625 46.160156 L 134.488281 44.742188 C 134.574219 44.738281 134.671875 44.769531 134.746094 44.808594 C 134.828125 44.851562 134.894531 44.921875 134.964844 45.019531 L 135.207031 45.617188 C 135.152344 45.734375 135.113281 45.863281 135.058594 46.003906 C 135.011719 46.148438 134.976562 46.28125 134.929688 46.4375 C 134.847656 46.378906 134.769531 46.304688 134.699219 46.269531 C 134.640625 46.230469 134.5625 46.175781 134.515625 46.160156 Z M 135.011719 46.453125 L 135.289062 45.996094 L 135.425781 46.714844 Z M 134.910156 47.042969 C 135.03125 47.191406 135.1875 47.410156 135.207031 47.652344 C 135.238281 47.875 135.140625 48.28125 135.011719 48.394531 C 134.875 48.476562 134.59375 48.359375 134.433594 48.175781 C 134.300781 47.945312 134.152344 47.457031 134.175781 47.207031 C 134.222656 46.949219 134.5 46.8125 134.617188 46.777344 C 134.746094 46.75 134.824219 46.890625 134.910156 47.042969 Z M 134.910156 47.042969 " fill-opacity="1" fill-rule="evenodd"/><path fill="rgb(50.19989%, 50.19989%, 50.19989%)" d="M 134.78125 47.328125 C 134.871094 47.390625 134.9375 47.664062 134.929688 47.796875 C 134.925781 47.898438 134.800781 48.0625 134.71875 48 C 134.648438 47.910156 134.488281 47.519531 134.488281 47.402344 C 134.515625 47.277344 134.707031 47.261719 134.78125 47.328125 Z M 134.78125 47.328125 " fill-opacity="1" fill-rule="evenodd"/><path fill="rgb(0%, 0%, 0%)" d="M 142.515625 52.492188 C 142.421875 52.773438 142.210938 53.167969 141.855469 53.722656 C 141.507812 54.257812 141.027344 54.929688 140.40625 55.738281 L 135.359375 55.832031 C 136.007812 55.390625 136.523438 54.832031 136.898438 54.152344 C 137.289062 53.457031 137.488281 52.78125 137.660156 51.730469 C 137.84375 50.644531 137.882812 48.152344 138.011719 47.796875 C 138.15625 47.457031 138.34375 49.511719 138.554688 49.671875 C 138.796875 49.789062 139.234375 48.273438 139.433594 48.628906 C 139.652344 48.988281 139.605469 51.40625 139.816406 51.808594 C 140.046875 52.171875 140.53125 50.894531 140.765625 50.929688 C 141.007812 50.96875 140.960938 51.742188 141.238281 52.019531 C 141.53125 52.273438 141.953125 52.4375 142.515625 52.492188 Z M 136.734375 42.328125 C 136.46875 41.8125 136.097656 41.402344 135.644531 40.953125 C 135.171875 40.480469 134.515625 39.808594 133.933594 39.574219 C 133.355469 39.34375 132.824219 39.367188 132.277344 39.550781 C 131.757812 39.710938 130.796875 40.488281 130.851562 40.546875 C 130.914062 40.570312 132.046875 39.832031 132.652344 39.839844 C 133.277344 39.839844 133.902344 40.046875 134.574219 40.59375 C 135.289062 41.136719 136.296875 42.261719 136.78125 43.085938 C 137.28125 43.902344 137.375 45.199219 137.472656 45.386719 C 137.570312 45.515625 137.507812 44.527344 137.371094 44.007812 C 137.253906 43.476562 137.039062 42.839844 136.734375 42.328125 Z M 136.734375 42.328125 " fill-opacity="1" fill-rule="evenodd"/><path fill="rgb(12.939453%, 12.939453%, 12.939453%)" d="M 154.5625 48.734375 C 152.722656 48.835938 150.792969 48.929688 148.683594 48.996094 C 146.574219 49.054688 144.398438 49.101562 142.023438 49.136719 L 142.398438 50.320312 L 147.09375 51.554688 C 148.429688 51.488281 150.140625 51.394531 152.285156 51.292969 C 154.445312 51.183594 156.945312 51.039062 159.921875 50.894531 C 159.359375 50.78125 158.757812 50.621094 158.09375 50.414062 C 157.4375 50.199219 156.5625 49.886719 155.960938 49.613281 C 155.375 49.335938 154.910156 49.035156 154.5625 48.734375 Z M 154.5625 48.734375 " fill-opacity="1" fill-rule="evenodd"/><path fill="rgb(25.099182%, 25.099182%, 25.099182%)" d="M 159.898438 50.847656 C 158.234375 50.945312 156.644531 51.015625 155.035156 51.105469 C 153.429688 51.183594 151.683594 51.253906 150.339844 51.316406 C 149.019531 51.371094 147.632812 51.417969 147.140625 51.484375 C 146.679688 51.535156 147.007812 51.699219 147.46875 51.722656 C 147.933594 51.730469 148.878906 51.664062 149.867188 51.625 C 150.871094 51.570312 152.03125 51.554688 153.425781 51.484375 C 154.863281 51.398438 157.203125 51.253906 158.28125 51.199219 C 159.347656 51.148438 159.855469 51.125 159.804688 51.152344 C 159.832031 51.050781 159.863281 50.953125 159.898438 50.847656 Z M 159.898438 50.847656 " fill-opacity="1" fill-rule="evenodd"/><path fill="rgb(22.349548%, 43.528748%, 97.648621%)" d="M 141.734375 46.269531 C 141.863281 46.253906 141.953125 46.324219 142 46.460938 C 142.0625 46.59375 142.035156 46.703125 142.070312 47.097656 C 142.117188 47.492188 142.132812 48.3125 142.28125 48.734375 C 142.457031 49.136719 142.664062 49.238281 143.035156 49.464844 C 143.441406 49.691406 144.027344 49.820312 144.558594 50.015625 C 145.097656 50.179688 145.742188 50.34375 146.167969 50.488281 C 146.585938 50.605469 146.886719 50.710938 147.09375 50.871094 C 147.320312 51.035156 147.457031 51.246094 147.5 51.507812 L 141.945312 49.566406 C 141.875 48.46875 141.804688 47.375 141.734375 46.269531 Z M 141.734375 46.269531 " fill-opacity="1" fill-rule="evenodd"/><path fill="rgb(10.198975%, 35.688782%, 100%)" d="M 141.757812 51.890625 C 142.433594 52.085938 143.128906 52.273438 143.914062 52.457031 C 144.714844 52.644531 145.8125 52.933594 146.410156 52.980469 C 146.996094 53.003906 147.296875 52.890625 147.46875 52.644531 C 147.675781 52.382812 147.742188 51.753906 147.570312 51.460938 C 147.40625 51.140625 147.246094 51.109375 146.457031 50.796875 C 145.671875 50.480469 143.644531 49.957031 142.894531 49.589844 C 142.179688 49.199219 142.238281 49.066406 142.070312 48.546875 C 141.921875 47.988281 141.964844 46.867188 141.875 46.460938 C 141.792969 46.058594 141.621094 45.863281 141.542969 46.195312 C 141.492188 46.53125 141.4375 47.609375 141.449219 48.429688 C 141.46875 49.226562 141.484375 50.039062 141.566406 50.941406 C 141.628906 51.253906 141.691406 51.570312 141.757812 51.890625 Z M 141.757812 51.890625 " fill-opacity="1" fill-rule="evenodd"/><g fill="rgb(100%, 100%, 100%)" fill-opacity="1"><g transform="translate(11.478959, 48.907642)"><g><path d="M 5.765625 -6.15625 L 4.5 -4.546875 L 4.5 0 L 1.28125 0 L 1.28125 -15.921875 L 4.5 -15.921875 L 4.5 -8.984375 L 5.515625 -10.703125 L 8.484375 -15.921875 L 12.421875 -15.921875 L 7.859375 -8.921875 L 12.5 0 L 8.671875 0 Z M 5.765625 -6.15625 "/></g></g></g><g fill="rgb(100%, 100%, 100%)" fill-opacity="1"><g transform="translate(23.874603, 48.907642)"><g><path d="M 5.90625 0.21875 C 4.3125 0.21875 3.070312 -0.253906 2.1875 -1.203125 C 1.300781 -2.148438 0.859375 -3.503906 0.859375 -5.265625 L 0.859375 -6.21875 C 0.859375 -8.082031 1.265625 -9.519531 2.078125 -10.53125 C 2.890625 -11.550781 4.0625 -12.0625 5.59375 -12.0625 C 7.082031 -12.0625 8.203125 -11.582031 8.953125 -10.625 C 9.703125 -9.675781 10.082031 -8.269531 10.09375 -6.40625 L 10.09375 -4.875 L 3.9375 -4.875 C 3.976562 -4 4.171875 -3.359375 4.515625 -2.953125 C 4.859375 -2.554688 5.390625 -2.359375 6.109375 -2.359375 C 7.140625 -2.359375 8.003906 -2.707031 8.703125 -3.40625 L 9.90625 -1.546875 C 9.53125 -1.015625 8.976562 -0.585938 8.25 -0.265625 C 7.53125 0.0546875 6.75 0.21875 5.90625 0.21875 Z M 3.953125 -7.046875 L 7.0625 -7.046875 L 7.0625 -7.328125 C 7.039062 -8.035156 6.921875 -8.570312 6.703125 -8.9375 C 6.484375 -9.300781 6.101562 -9.484375 5.5625 -9.484375 C 5.03125 -9.484375 4.640625 -9.289062 4.390625 -8.90625 C 4.148438 -8.519531 4.003906 -7.898438 3.953125 -7.046875 Z M 3.953125 -7.046875 "/></g></g></g><g fill="rgb(100%, 100%, 100%)" fill-opacity="1"><g transform="translate(34.596343, 48.907642)"><g><path d="M 4.03125 -11.84375 L 4.125 -10.75 C 4.8125 -11.625 5.726562 -12.0625 6.875 -12.0625 C 8.050781 -12.0625 8.882812 -11.523438 9.375 -10.453125 C 10.050781 -11.523438 11.019531 -12.0625 12.28125 -12.0625 C 14.34375 -12.0625 15.398438 -10.625 15.453125 -7.75 L 15.453125 0 L 12.359375 0 L 12.359375 -7.5625 C 12.359375 -8.25 12.265625 -8.738281 12.078125 -9.03125 C 11.890625 -9.320312 11.566406 -9.46875 11.109375 -9.46875 C 10.535156 -9.46875 10.109375 -9.113281 9.828125 -8.40625 L 9.84375 -8.03125 L 9.84375 0 L 6.75 0 L 6.75 -7.53125 C 6.75 -8.21875 6.65625 -8.710938 6.46875 -9.015625 C 6.289062 -9.316406 5.96875 -9.46875 5.5 -9.46875 C 4.96875 -9.46875 4.546875 -9.175781 4.234375 -8.59375 L 4.234375 0 L 1.140625 0 L 1.140625 -11.84375 Z M 4.03125 -11.84375 "/></g></g></g><g fill="rgb(100%, 100%, 100%)" fill-opacity="1"><g transform="translate(51.21504, 48.907642)"><g><path d="M 4.03125 -11.84375 L 4.125 -10.75 C 4.8125 -11.625 5.726562 -12.0625 6.875 -12.0625 C 8.050781 -12.0625 8.882812 -11.523438 9.375 -10.453125 C 10.050781 -11.523438 11.019531 -12.0625 12.28125 -12.0625 C 14.34375 -12.0625 15.398438 -10.625 15.453125 -7.75 L 15.453125 0 L 12.359375 0 L 12.359375 -7.5625 C 12.359375 -8.25 12.265625 -8.738281 12.078125 -9.03125 C 11.890625 -9.320312 11.566406 -9.46875 11.109375 -9.46875 C 10.535156 -9.46875 10.109375 -9.113281 9.828125 -8.40625 L 9.84375 -8.03125 L 9.84375 0 L 6.75 0 L 6.75 -7.53125 C 6.75 -8.21875 6.65625 -8.710938 6.46875 -9.015625 C 6.289062 -9.316406 5.96875 -9.46875 5.5 -9.46875 C 4.96875 -9.46875 4.546875 -9.175781 4.234375 -8.59375 L 4.234375 0 L 1.140625 0 L 1.140625 -11.84375 Z M 4.03125 -11.84375 "/></g></g></g><g fill="rgb(100%, 100%, 100%)" fill-opacity="1"><g transform="translate(67.833737, 48.907642)"><g><path d="M 5.90625 0.21875 C 4.3125 0.21875 3.070312 -0.253906 2.1875 -1.203125 C 1.300781 -2.148438 0.859375 -3.503906 0.859375 -5.265625 L 0.859375 -6.21875 C 0.859375 -8.082031 1.265625 -9.519531 2.078125 -10.53125 C 2.890625 -11.550781 4.0625 -12.0625 5.59375 -12.0625 C 7.082031 -12.0625 8.203125 -11.582031 8.953125 -10.625 C 9.703125 -9.675781 10.082031 -8.269531 10.09375 -6.40625 L 10.09375 -4.875 L 3.9375 -4.875 C 3.976562 -4 4.171875 -3.359375 4.515625 -2.953125 C 4.859375 -2.554688 5.390625 -2.359375 6.109375 -2.359375 C 7.140625 -2.359375 8.003906 -2.707031 8.703125 -3.40625 L 9.90625 -1.546875 C 9.53125 -1.015625 8.976562 -0.585938 8.25 -0.265625 C 7.53125 0.0546875 6.75 0.21875 5.90625 0.21875 Z M 3.953125 -7.046875 L 7.0625 -7.046875 L 7.0625 -7.328125 C 7.039062 -8.035156 6.921875 -8.570312 6.703125 -8.9375 C 6.484375 -9.300781 6.101562 -9.484375 5.5625 -9.484375 C 5.03125 -9.484375 4.640625 -9.289062 4.390625 -8.90625 C 4.148438 -8.519531 4.003906 -7.898438 3.953125 -7.046875 Z M 3.953125 -7.046875 "/></g></g></g><g fill="rgb(100%, 100%, 100%)" fill-opacity="1"><g transform="translate(78.555476, 48.907642)"><g><path d="M 4.375 0 L 1.265625 0 L 1.265625 -16.8125 L 4.375 -16.8125 Z M 4.375 0 "/></g></g></g><g fill="rgb(100%, 100%, 100%)" fill-opacity="1"><g transform="translate(84.200801, 48.907642)"><g><path d="M 11.59375 -13.25 L 7.65625 -13.25 L 7.65625 0 L 4.4375 0 L 4.4375 -13.25 L 0.5625 -13.25 L 0.5625 -15.921875 L 11.59375 -15.921875 Z M 11.59375 -13.25 "/></g></g></g><g fill="rgb(100%, 100%, 100%)" fill-opacity="1"><g transform="translate(96.366693, 48.907642)"><g><path d="M 6.953125 -1.078125 C 6.304688 -0.210938 5.441406 0.21875 4.359375 0.21875 C 3.273438 0.21875 2.453125 -0.15625 1.890625 -0.90625 C 1.328125 -1.65625 1.046875 -2.742188 1.046875 -4.171875 L 1.046875 -11.84375 L 4.140625 -11.84375 L 4.140625 -4.09375 C 4.160156 -2.9375 4.546875 -2.359375 5.296875 -2.359375 C 6.003906 -2.359375 6.515625 -2.664062 6.828125 -3.28125 L 6.828125 -11.84375 L 9.9375 -11.84375 L 9.9375 0 L 7.03125 0 Z M 6.953125 -1.078125 "/></g></g></g><g fill="rgb(100%, 100%, 100%)" fill-opacity="1"><g transform="translate(107.394768, 48.907642)"><g><path d="M 10.359375 -5.53125 C 10.359375 -3.613281 10.050781 -2.175781 9.4375 -1.21875 C 8.820312 -0.257812 7.859375 0.21875 6.546875 0.21875 C 5.523438 0.21875 4.703125 -0.242188 4.078125 -1.171875 L 3.984375 0 L 1.125 0 L 1.125 -16.8125 L 4.21875 -16.8125 L 4.21875 -10.875 C 4.800781 -11.664062 5.570312 -12.0625 6.53125 -12.0625 C 7.84375 -12.0625 8.804688 -11.582031 9.421875 -10.625 C 10.035156 -9.675781 10.347656 -8.28125 10.359375 -6.4375 Z M 7.265625 -6.3125 C 7.265625 -7.5625 7.144531 -8.398438 6.90625 -8.828125 C 6.664062 -9.253906 6.242188 -9.46875 5.640625 -9.46875 C 4.992188 -9.46875 4.519531 -9.171875 4.21875 -8.578125 L 4.21875 -3.1875 C 4.5 -2.632812 4.984375 -2.359375 5.671875 -2.359375 C 6.253906 -2.359375 6.660156 -2.550781 6.890625 -2.9375 C 7.128906 -3.320312 7.253906 -4.070312 7.265625 -5.1875 Z M 7.265625 -6.3125 "/></g></g></g><g fill="rgb(100%, 100%, 100%)" fill-opacity="1"><g transform="translate(118.488487, 48.907642)"><g><path d="M 5.90625 0.21875 C 4.3125 0.21875 3.070312 -0.253906 2.1875 -1.203125 C 1.300781 -2.148438 0.859375 -3.503906 0.859375 -5.265625 L 0.859375 -6.21875 C 0.859375 -8.082031 1.265625 -9.519531 2.078125 -10.53125 C 2.890625 -11.550781 4.0625 -12.0625 5.59375 -12.0625 C 7.082031 -12.0625 8.203125 -11.582031 8.953125 -10.625 C 9.703125 -9.675781 10.082031 -8.269531 10.09375 -6.40625 L 10.09375 -4.875 L 3.9375 -4.875 C 3.976562 -4 4.171875 -3.359375 4.515625 -2.953125 C 4.859375 -2.554688 5.390625 -2.359375 6.109375 -2.359375 C 7.140625 -2.359375 8.003906 -2.707031 8.703125 -3.40625 L 9.90625 -1.546875 C 9.53125 -1.015625 8.976562 -0.585938 8.25 -0.265625 C 7.53125 0.0546875 6.75 0.21875 5.90625 0.21875 Z M 3.953125 -7.046875 L 7.0625 -7.046875 L 7.0625 -7.328125 C 7.039062 -8.035156 6.921875 -8.570312 6.703125 -8.9375 C 6.484375 -9.300781 6.101562 -9.484375 5.5625 -9.484375 C 5.03125 -9.484375 4.640625 -9.289062 4.390625 -8.90625 C 4.148438 -8.519531 4.003906 -7.898438 3.953125 -7.046875 Z M 3.953125 -7.046875 "/></g></g></g></svg>